<svg width="245" height="240" viewBox="0 0 245 240" fill="none" xmlns="http://www.w3.org/2000/svg">
<g clip-path="url(#clip0_1471_43512)">
<mask id="mask0_1471_43512" style="mask-type:luminance" maskUnits="userSpaceOnUse" x="0" y="0" width="245" height="240">
<path d="M244.676 39.5684L38.4375 0L-0.000356004 200.346L206.238 239.914L244.676 39.5684Z" fill="white"/>
</mask>
<g mask="url(#mask0_1471_43512)">
<path d="M150.858 117.251L137.87 114.977C140.367 112.896 138.34 114.584 150.533 104.41L126.068 100.978C131.134 95.4173 136.447 89.484 141.381 83.3066L109.061 107.207C124.083 110.919 121.428 110.275 125.136 111.142C124.565 111.547 126.299 110.301 110.318 121.769L120.221 123.928C117.6 125.736 109.257 131.493 106.618 133.313C123.157 136.289 121.055 135.906 122.419 136.158L86.225 185.796L144.315 128.156L137.425 126.637C141.699 123.656 130.334 131.601 150.859 117.246" fill="#C33130"/>
<path d="M75.0318 23.2267C74.8214 23.1864 74.6303 23.0458 74.5306 22.8346L73.0414 19.6619C72.8746 19.3131 73.0274 18.8959 73.3811 18.7301C73.7299 18.5633 74.1472 18.7161 74.3139 19.0648L75.8031 22.2376C75.9699 22.5863 75.8172 23.0036 75.4684 23.1703C75.3259 23.2364 75.178 23.2496 75.0377 23.2227" fill="#C33130"/>
<path d="M40.6566 79.4919C40.5865 79.4784 40.5183 79.455 40.453 79.4165L37.3862 77.7273C37.0477 77.5429 36.9223 77.1138 37.1117 76.7763C37.301 76.4388 37.7251 76.3124 38.0627 76.5018L41.1295 78.191C41.468 78.3754 41.5934 78.8045 41.404 79.142C41.2531 79.4142 40.9471 79.5476 40.6566 79.4919Z" fill="#C33130"/>
<path d="M77.6352 99.8686C77.5651 99.8552 77.4969 99.8317 77.4316 99.7932L76.0835 99.0517C75.7459 98.8623 75.6196 98.4382 75.809 98.1007C75.9933 97.7622 76.4224 97.6368 76.76 97.8262L78.1081 98.5677C78.4466 98.7521 78.572 99.1812 78.3826 99.5187C78.2317 99.7909 77.9257 99.9243 77.6352 99.8686ZM59.0101 89.6021C58.94 89.5887 58.8718 89.5652 58.8065 89.5267L53.9456 86.8494C53.6071 86.6651 53.4817 86.236 53.6711 85.8985C53.8555 85.56 54.2846 85.4346 54.6221 85.624L59.483 88.3013C59.8215 88.4856 59.9469 88.9147 59.7575 89.2522C59.6066 89.5245 59.3006 89.6579 59.0101 89.6021ZM49.8337 84.5443C49.7636 84.5309 49.6954 84.5074 49.6301 84.4689L48.5502 83.8723C48.2117 83.6879 48.0863 83.2589 48.2757 82.9213C48.4651 82.5838 48.8892 82.4575 49.2267 82.6469L50.3066 83.2435C50.6442 83.4329 50.7705 83.8569 50.5811 84.1944C50.4302 84.4667 50.1242 84.6001 49.8337 84.5443Z" fill="#C33130"/>
<path d="M83.1332 102.902C83.0631 102.889 82.9949 102.865 82.9296 102.827L79.8627 101.137C79.5252 100.948 79.3988 100.524 79.5882 100.186C79.7776 99.8489 80.2017 99.7226 80.5392 99.912L83.6061 101.601C83.9446 101.786 84.07 102.215 83.8806 102.552C83.7297 102.824 83.4237 102.958 83.1332 102.902Z" fill="#C33130"/>
<path d="M51.9535 134.171C51.663 134.115 51.4281 133.878 51.3887 133.569C51.3427 133.187 51.613 132.834 51.9957 132.788L67.2924 130.873C67.6761 130.822 68.0283 131.097 68.0744 131.48C68.1254 131.863 67.8501 132.215 67.4674 132.261L52.1706 134.176C52.0957 134.188 52.0236 134.185 51.9535 134.171ZM72.8108 131.557C72.5203 131.502 72.2854 131.265 72.246 130.956C72.195 130.572 72.4703 130.22 72.853 130.174L78.7373 129.439C79.121 129.388 79.4732 129.663 79.5192 130.046C79.5702 130.429 79.2949 130.782 78.9122 130.828L73.0279 131.563C72.953 131.574 72.881 131.571 72.8108 131.557Z" fill="#C33130"/>
<path d="M54.9683 190.263C54.828 190.236 54.6964 190.164 54.5876 190.055C54.3253 189.771 54.3378 189.327 54.6218 189.064L64.8464 179.483C65.1304 179.221 65.5746 179.233 65.8369 179.517C66.0992 179.801 66.0876 180.24 65.8027 180.508L55.578 190.089C55.4072 190.248 55.1777 190.308 54.9673 190.268M73.3722 173.018C73.232 172.992 73.0995 172.925 72.9915 172.81C72.7293 172.526 72.7418 172.082 73.0258 171.82L78.1401 167.032C78.4241 166.77 78.8633 166.782 79.1315 167.062C79.3938 167.346 79.3813 167.79 79.0973 168.052L73.9829 172.84C73.8122 172.999 73.5826 173.059 73.3722 173.018ZM86.6669 160.563C86.5266 160.536 86.3941 160.469 86.2862 160.355C86.0239 160.071 86.0354 159.632 86.3204 159.364L91.1696 154.822C91.4536 154.56 91.8978 154.572 92.161 154.851C92.4233 155.135 92.4108 155.579 92.1268 155.842L87.2776 160.384C87.1068 160.543 86.8772 160.603 86.6669 160.563Z" fill="#C33130"/>
<path d="M107.942 214.539C107.561 214.466 107.314 214.102 107.387 213.721L107.667 212.264C107.74 211.883 108.104 211.636 108.484 211.709C108.865 211.782 109.112 212.146 109.039 212.527L108.759 213.984C108.686 214.365 108.322 214.612 107.942 214.539ZM109.339 207.257C108.958 207.184 108.711 206.82 108.784 206.439L110.042 199.884C110.115 199.503 110.479 199.256 110.86 199.329C111.24 199.402 111.486 199.771 111.414 200.147L110.156 206.702C110.083 207.083 109.719 207.33 109.339 207.257ZM113.669 184.685C113.289 184.612 113.042 184.248 113.115 183.867L113.394 182.41C113.467 182.029 113.831 181.783 114.212 181.856C114.593 181.929 114.84 182.293 114.767 182.673L114.487 184.131C114.414 184.511 114.05 184.758 113.669 184.685ZM115.066 177.403C114.686 177.33 114.439 176.966 114.512 176.586L114.861 174.768C114.934 174.387 115.298 174.14 115.678 174.213C116.059 174.286 116.305 174.655 116.233 175.031L115.884 176.849C115.811 177.23 115.447 177.476 115.066 177.403Z" fill="#C33130"/>
<path d="M116.044 172.305C115.663 172.232 115.416 171.868 115.49 171.488L116.15 168.047C116.223 167.666 116.587 167.419 116.967 167.492C117.348 167.566 117.595 167.93 117.522 168.31L116.862 171.751C116.789 172.131 116.425 172.378 116.044 172.305Z" fill="#C33130"/>
<path d="M170.601 219.8C170.391 219.76 170.199 219.619 170.1 219.408L168.611 216.235C168.444 215.886 168.597 215.469 168.945 215.302C169.293 215.141 169.711 215.288 169.877 215.642L171.366 218.815C171.533 219.164 171.38 219.581 171.032 219.748C170.894 219.815 170.741 219.827 170.601 219.8Z" fill="#C33130"/>
<path d="M164.392 206.562C164.182 206.522 163.991 206.381 163.891 206.17L163.26 204.829C163.094 204.48 163.246 204.063 163.595 203.896C163.944 203.729 164.361 203.882 164.528 204.231L165.159 205.572C165.325 205.921 165.173 206.338 164.824 206.505C164.686 206.572 164.533 206.584 164.393 206.557M161.241 199.846C161.025 199.805 160.839 199.665 160.74 199.454L157.906 193.411C157.739 193.062 157.892 192.645 158.24 192.478C158.589 192.312 159.006 192.464 159.173 192.813L162.007 198.856C162.174 199.204 162.021 199.622 161.672 199.788C161.535 199.856 161.382 199.868 161.242 199.841M148.326 172.319C148.116 172.279 147.925 172.139 147.825 171.927L147.036 170.249C146.869 169.901 147.022 169.483 147.371 169.317C147.719 169.15 148.137 169.303 148.303 169.651L149.093 171.329C149.259 171.678 149.107 172.095 148.758 172.262C148.62 172.329 148.468 172.341 148.327 172.314" fill="#C33130"/>
<path d="M146.12 167.628C145.91 167.588 145.719 167.447 145.619 167.236L144.13 164.063C143.963 163.715 144.116 163.297 144.464 163.131C144.813 162.964 145.23 163.117 145.396 163.47L146.885 166.643C147.052 166.992 146.899 167.409 146.551 167.576C146.413 167.643 146.26 167.655 146.12 167.628Z" fill="#C33130"/>
<path d="M218.177 173.986C218.107 173.973 218.039 173.949 217.974 173.911L214.902 172.22C214.564 172.031 214.438 171.607 214.627 171.269C214.817 170.932 215.241 170.806 215.578 170.995L218.645 172.684C218.984 172.869 219.109 173.298 218.92 173.635C218.769 173.907 218.463 174.041 218.172 173.985" fill="#C33130"/>
<path d="M205.365 166.927C205.295 166.914 205.227 166.89 205.161 166.852L203.861 166.135C203.523 165.945 203.397 165.521 203.586 165.184C203.775 164.846 204.199 164.72 204.537 164.909L205.838 165.626C206.175 165.816 206.302 166.24 206.112 166.577C205.962 166.849 205.656 166.983 205.365 166.927ZM198.87 163.349C198.8 163.336 198.731 163.313 198.661 163.273L192.819 160.054C192.48 159.87 192.355 159.441 192.544 159.103C192.734 158.766 193.158 158.64 193.495 158.829L199.338 162.048C199.675 162.237 199.801 162.661 199.612 162.999C199.461 163.271 199.155 163.404 198.865 163.348M178.732 152.253C178.662 152.239 178.594 152.216 178.528 152.177L177.227 151.46C176.889 151.276 176.763 150.847 176.953 150.509C177.137 150.171 177.566 150.046 177.904 150.235L179.205 150.952C179.542 151.141 179.669 151.565 179.479 151.903C179.328 152.175 179.022 152.308 178.732 152.253ZM172.237 148.675C172.166 148.662 172.098 148.638 172.033 148.6L170.408 147.706C170.069 147.522 169.944 147.093 170.133 146.755C170.323 146.418 170.747 146.291 171.084 146.481L172.709 147.374C173.048 147.559 173.173 147.988 172.984 148.325C172.833 148.597 172.527 148.731 172.237 148.675Z" fill="#C33130"/>
<path d="M167.702 146.17C167.631 146.156 167.563 146.133 167.498 146.094L164.431 144.405C164.094 144.216 163.967 143.792 164.157 143.454C164.346 143.117 164.77 142.99 165.108 143.18L168.174 144.869C168.513 145.053 168.638 145.482 168.449 145.82C168.298 146.092 167.992 146.225 167.702 146.17Z" fill="#C33130"/>
<path d="M205.706 111.968C205.415 111.912 205.18 111.675 205.141 111.366C205.095 110.983 205.365 110.63 205.748 110.584L209.222 110.15C209.606 110.099 209.958 110.374 210.004 110.757C210.05 111.139 209.78 111.493 209.397 111.539L205.918 111.972C205.843 111.983 205.771 111.98 205.701 111.967" fill="#C33130"/>
<path d="M169.067 116.554C168.777 116.498 168.542 116.261 168.502 115.952C168.456 115.57 168.727 115.217 169.109 115.171L172.584 114.736C172.966 114.69 173.32 114.961 173.366 115.343C173.412 115.726 173.141 116.079 172.759 116.125L169.284 116.559C169.209 116.571 169.137 116.567 169.067 116.554Z" fill="#C33130"/>
<path d="M119.328 20.4264C119.013 20.3658 118.769 20.0957 118.761 19.7567L118.653 16.2571C118.639 15.8702 118.946 15.5448 119.332 15.5357C119.719 15.5217 120.044 15.8282 120.053 16.2142L120.161 19.7138C120.17 20.0998 119.868 20.4262 119.482 20.4352C119.43 20.4356 119.379 20.431 119.329 20.4214" fill="#C33130"/>
<path d="M63.1703 44.7223C63.01 44.6916 62.8553 44.6048 62.7472 44.4646L53.3197 32.2709C53.0822 31.9657 53.1408 31.5252 53.446 31.2878C53.7512 31.0503 54.1917 31.1089 54.4292 31.4141L63.8616 43.6088C64.0991 43.9139 64.0405 44.3545 63.7353 44.5919C63.5703 44.7212 63.3656 44.7598 63.1753 44.7233" fill="#C33130"/>
<path d="M74.7082 110.845C74.7082 110.845 74.6631 110.836 74.6431 110.832L62.5371 107.295C62.1632 107.187 61.9521 106.798 62.0602 106.424C62.1673 106.056 62.5567 105.839 62.9306 105.948L75.0366 109.485C75.4105 109.593 75.6216 109.982 75.5135 110.356C75.4102 110.704 75.0588 110.912 74.7082 110.845ZM51.8386 104.162C51.8386 104.162 51.7935 104.153 51.7734 104.15L45.0468 102.184C44.6729 102.076 44.4618 101.688 44.5698 101.314C44.677 100.945 45.0663 100.729 45.4403 100.837L52.1669 102.802C52.5358 102.91 52.7519 103.299 52.6439 103.673C52.5406 104.022 52.1891 104.229 51.8386 104.162ZM34.3532 99.0524C34.3532 99.0524 34.3081 99.0437 34.2881 99.0399L20.8348 95.1087C20.4659 95.0016 20.2498 94.6123 20.3578 94.2384C20.4659 93.8645 20.8543 93.6534 21.2283 93.7615L34.6816 97.6927C35.0555 97.8007 35.2666 98.1891 35.1585 98.563C35.0552 98.9119 34.7038 99.1197 34.3532 99.0524Z" fill="#C33130"/>
<path d="M64.8901 212.796C64.8 212.778 64.7087 212.74 64.6302 212.689C64.3085 212.471 64.226 212.035 64.4486 211.714L72.3461 200.134C72.5626 199.817 72.9991 199.734 73.3208 199.952C73.6376 200.168 73.72 200.605 73.5025 200.927L65.606 212.502C65.4458 212.741 65.1606 212.847 64.8951 212.797M79.1081 191.955C79.0179 191.937 78.9266 191.899 78.8432 191.847C78.5214 191.629 78.444 191.194 78.6615 190.872L81.6684 186.459C81.8859 186.137 82.3223 186.055 82.6441 186.272C82.9609 186.489 83.0433 186.925 82.8258 187.247L79.8189 191.66C79.6537 191.898 79.3735 192.006 79.1081 191.955Z" fill="#C33130"/>
<path d="M206.556 146.318C206.556 146.318 206.511 146.31 206.491 146.306L203.128 145.323C202.754 145.215 202.543 144.827 202.651 144.453C202.759 144.079 203.147 143.868 203.521 143.976L206.885 144.959C207.259 145.067 207.47 145.455 207.362 145.829C207.258 146.178 206.907 146.386 206.556 146.318Z" fill="#C33130"/>
<path d="M165.984 134.468C165.984 134.468 165.939 134.46 165.919 134.456L162.556 133.473C162.182 133.365 161.971 132.977 162.079 132.603C162.187 132.229 162.575 132.018 162.949 132.126L166.312 133.109C166.686 133.217 166.897 133.605 166.789 133.979C166.686 134.328 166.335 134.536 165.984 134.468Z" fill="#C33130"/>
<path d="M155.102 47.8418C155.052 47.8322 155.003 47.8176 154.96 47.7989C154.604 47.6477 154.439 47.2369 154.591 46.8767L155.972 43.6574C156.123 43.3022 156.539 43.1379 156.895 43.2892C157.25 43.4404 157.415 43.8512 157.263 44.2114L155.882 47.4306C155.75 47.7377 155.422 47.9033 155.107 47.8427" fill="#C33130"/>
<path d="M100.937 105.165C100.816 105.142 100.702 105.089 100.609 105.004L91.1164 96.697C90.8273 96.4442 90.7929 96.0014 91.0516 95.7084C91.3044 95.4194 91.7522 95.3859 92.0403 95.6436L101.533 103.95C101.822 104.203 101.857 104.646 101.598 104.939C101.431 105.135 101.177 105.211 100.937 105.165Z" fill="#C33130"/>
<path d="M38.6041 117.118C38.2535 117.05 38.009 116.728 38.0371 116.365C38.0751 115.978 38.4149 115.695 38.7973 115.732L42.2884 116.049C42.6758 116.087 42.9585 116.426 42.9215 116.809C42.8885 117.197 42.5437 117.479 42.1613 117.442L38.6702 117.125C38.6702 117.125 38.6251 117.116 38.6001 117.112" fill="#C33130"/>
<path d="M94.8697 122.226C94.5191 122.159 94.2746 121.837 94.3027 121.474C94.3407 121.086 94.6805 120.804 95.0629 120.841L98.554 121.157C98.9414 121.195 99.2241 121.535 99.1871 121.918C99.1501 122.3 98.8093 122.588 98.4269 122.551L94.9358 122.234C94.9358 122.234 94.8907 122.225 94.8657 122.22" fill="#C33130"/>
<path d="M51.0304 168.493C50.8401 168.456 50.6701 168.34 50.5587 168.163C50.3631 167.83 50.4657 167.403 50.8002 167.202L53.8087 165.406C54.1422 165.211 54.5681 165.318 54.7698 165.648C54.9654 165.981 54.8568 166.412 54.5283 166.609L51.5198 168.405C51.3675 168.495 51.1907 168.523 51.0304 168.493Z" fill="#C33130"/>
<path d="M63.0213 161.343C62.831 161.306 62.6561 161.19 62.5497 161.014C62.354 160.68 62.4617 160.254 62.7912 160.052L63.9878 159.337C64.3213 159.141 64.7482 159.244 64.9488 159.579C65.1445 159.912 65.0359 160.343 64.7073 160.54L63.5107 161.255C63.3584 161.345 63.1816 161.374 63.0213 161.343ZM69.0084 157.772C68.8181 157.735 68.6431 157.618 68.5367 157.442C68.3411 157.109 68.4497 156.678 68.7782 156.481L74.167 153.268C74.5015 153.067 74.9314 153.181 75.1281 153.509C75.3237 153.843 75.2151 154.274 74.8866 154.47L69.4978 157.684C69.3455 157.774 69.1687 157.802 69.0084 157.772ZM93.5599 143.129C93.3696 143.093 93.1937 142.981 93.0883 142.8C92.8876 142.466 92.9953 142.04 93.3298 141.839L94.825 140.947C95.1595 140.747 95.5845 140.859 95.7861 141.189C95.9818 141.522 95.8731 141.953 95.5446 142.15L94.0493 143.042C93.897 143.132 93.7202 143.16 93.5599 143.129Z" fill="#C33130"/>
<path d="M97.7566 140.632C97.5663 140.596 97.3914 140.479 97.285 140.303C97.0843 139.968 97.192 139.542 97.5265 139.342L100.535 137.546C100.869 137.345 101.294 137.458 101.496 137.788C101.692 138.121 101.583 138.552 101.254 138.749L98.246 140.544C98.0937 140.635 97.9169 140.663 97.7566 140.632Z" fill="#C33130"/>
<path d="M91.2842 202.755C91.2341 202.745 91.185 202.73 91.1418 202.712C90.7866 202.561 90.6223 202.145 90.7735 201.79L96.8464 187.621C96.9976 187.266 97.4084 187.101 97.7687 187.253C98.1239 187.404 98.2892 187.815 98.137 188.175L92.0641 202.344C91.9325 202.651 91.6047 202.816 91.2892 202.756M99.566 183.433C99.5159 183.424 99.4668 183.409 99.4236 183.391C99.0684 183.239 98.9041 182.824 99.0553 182.468L102.205 175.118C102.356 174.763 102.767 174.597 103.122 174.749C103.478 174.9 103.643 175.311 103.491 175.671L100.341 183.021C100.209 183.328 99.8815 183.494 99.566 183.433Z" fill="#C33130"/>
<path d="M143.987 206.817C143.722 206.766 143.501 206.562 143.435 206.285L140.329 192.62C140.246 192.24 140.479 191.864 140.858 191.781C141.238 191.698 141.614 191.931 141.697 192.311L144.803 205.976C144.892 206.352 144.653 206.726 144.273 206.814C144.175 206.837 144.076 206.839 143.986 206.822M138.392 182.226C138.126 182.175 137.906 181.972 137.84 181.695L136.284 174.864C136.201 174.485 136.434 174.109 136.813 174.026C137.189 173.937 137.564 174.175 137.652 174.555L139.207 181.386C139.296 181.761 139.057 182.141 138.678 182.224C138.58 182.247 138.481 182.249 138.391 182.231M134.353 164.467C134.087 164.416 133.867 164.213 133.8 163.935L132.583 158.587C132.5 158.208 132.732 157.837 133.113 157.749C133.492 157.666 133.868 157.899 133.951 158.278L135.168 163.626C135.252 164.001 135.019 164.377 134.639 164.465C134.541 164.487 134.442 164.489 134.352 164.472" fill="#C33130"/>
<path d="M189.01 179.123C188.89 179.1 188.775 179.047 188.683 178.962L178.136 169.731C177.847 169.478 177.814 169.03 178.072 168.742C178.324 168.453 178.772 168.42 179.06 168.678L189.607 177.908C189.896 178.161 189.93 178.604 189.671 178.897C189.499 179.092 189.251 179.169 189.01 179.123ZM170.029 162.511C169.914 162.488 169.8 162.435 169.702 162.349L164.429 157.734C164.14 157.481 164.106 157.033 164.364 156.745C164.617 156.456 165.064 156.423 165.353 156.68L170.626 161.296C170.915 161.548 170.948 161.996 170.691 162.284C170.518 162.48 170.27 162.557 170.029 162.511ZM156.321 150.513C156.201 150.49 156.087 150.437 155.994 150.352L146.501 142.045C146.212 141.792 146.179 141.345 146.436 141.057C146.689 140.768 147.137 140.734 147.425 140.992L156.918 149.298C157.207 149.551 157.241 149.999 156.983 150.287C156.81 150.482 156.557 150.558 156.321 150.513Z" fill="#C33130"/>
<path d="M154.708 103.944C154.518 103.907 154.343 103.791 154.237 103.615C154.041 103.281 154.15 102.85 154.478 102.654L157.487 100.858C157.82 100.662 158.246 100.77 158.448 101.099C158.643 101.433 158.535 101.864 158.206 102.06L155.198 103.856C155.045 103.946 154.869 103.975 154.708 103.944Z" fill="#C33130"/>
<path d="M212.77 57.6598C213.105 57.4591 213.53 57.5718 213.731 57.9013C213.932 58.2358 213.819 58.6607 213.49 58.8623L210.481 60.6581C210.329 60.7483 210.152 60.7767 209.992 60.7459" fill="#C33130"/>
<path d="M209.991 60.7458C209.801 60.7093 209.626 60.5927 209.52 60.4165C209.324 60.083 209.432 59.6571 209.761 59.4555L212.77 57.6597" fill="#C33130"/>
</g>
<path d="M92.113 85.0597L79.4508 66.2324L84.1838 63.054L85.7037 65.3084L84.1706 66.3435L88.2236 72.3655L89.4881 71.5125L91.0072 73.7719L89.7426 74.6249L93.7957 80.6469L95.3279 79.6168L96.8469 81.8762L92.113 85.0597Z" fill="#C33130"/>
<path d="M102.467 78.9668L93.8883 57.9634L97.4266 56.5185L104.977 75.0037L105.964 74.5959L106.996 77.1202L102.467 78.9668Z" fill="#C33130"/>
<path d="M112.969 75.363L108.868 53.0533L114.477 52.0213L114.97 54.7018L113.151 55.033L114.465 62.1757L115.962 61.8969L116.456 64.5774L114.954 64.8502L116.27 71.9878L118.083 71.6555L118.578 74.331L112.969 75.363Z" fill="#C33130"/>
<mask id="mask1_1471_43512" style="mask-type:luminance" maskUnits="userSpaceOnUse" x="0" y="0" width="245" height="240">
<path d="M244.676 39.5684L38.4375 0L-0.000356004 200.346L206.238 239.914L244.676 39.5684Z" fill="white"/>
</mask>
<g mask="url(#mask1_1471_43512)">
<path d="M133.463 74.3156L129.612 74.0908C129.991 67.621 130.056 66.5223 129.357 64.0775L128.839 64.0455C128.987 66.5197 128.923 67.5563 128.544 74.0261L124.693 73.8012L126.025 51.158L129.876 51.3878C129.496 57.8576 129.432 58.8943 128.995 61.334L129.514 61.3659C130.5 58.9589 130.559 57.9213 130.943 51.4525L134.795 51.6774C134.375 58.7625 133.604 62.483 131.571 62.851C133.548 63.4536 133.896 66.9163 133.461 74.3256" fill="#C33130"/>
</g>
<path d="M152.364 58.6775L150.694 58.1495L144.675 77.183L140.998 76.0207L147.017 56.9872L145.378 56.4649L146.198 53.8702L153.184 56.0778L152.364 58.6775Z" fill="#C33130"/>
<mask id="mask2_1471_43512" style="mask-type:luminance" maskUnits="userSpaceOnUse" x="0" y="0" width="245" height="240">
<path d="M244.676 39.5684L38.4375 0L-0.000356004 200.346L206.238 239.914L244.676 39.5684Z" fill="white"/>
</mask>
<g mask="url(#mask2_1471_43512)">
<path d="M164.567 68.8182C166.034 66.4514 165.93 65.3931 165.93 65.3931L165.462 65.1007C165.462 65.1007 165.13 65.8834 163.658 68.2542C162.19 70.626 161.635 71.2724 161.635 71.2724L162.076 71.544C162.076 71.544 163.1 71.1849 164.567 68.8182ZM163.175 73.8267C164.627 75.2995 163.089 78.3899 159.179 84.6963L156.093 82.7802C160.4 75.8387 160.641 73.8545 160.641 73.8545L160.2 73.5829C159.151 75.8274 158.603 76.7088 155.183 82.2213L151.906 80.1907L163.867 60.9106L168.382 63.7137C169.648 64.5018 170.486 66.4695 169.703 67.7368L167.672 71.0131C166.132 73.4905 164.918 73.917 163.179 73.8326" fill="#C33130"/>
</g>
<path d="M180.016 72.7711L164.051 88.8916L166.769 91.5828L182.733 75.4624L180.016 72.7711Z" fill="#C33130"/>
<mask id="mask3_1471_43512" style="mask-type:luminance" maskUnits="userSpaceOnUse" x="0" y="0" width="245" height="240">
<path d="M244.676 39.5684L38.4375 0L-0.000356004 200.346L206.238 239.914L244.676 39.5684Z" fill="white"/>
</mask>
<g mask="url(#mask3_1471_43512)">
<path d="M175.773 103.925L173.709 100.668C179.182 97.2004 180.116 96.611 181.688 94.6124L181.409 94.1746C179.484 95.7368 178.608 96.2958 173.134 99.763L171.069 96.5058L190.234 84.3662L192.298 87.6235C186.825 91.0908 185.944 91.6487 183.709 92.7154L183.988 93.1532C186.519 92.5484 187.394 91.9944 192.874 88.5231L194.939 91.7803C188.944 95.5787 185.47 97.1241 183.985 95.6866C184.649 97.6416 182.041 99.9453 175.774 103.92" fill="#C33130"/>
</g>
</g>
<defs>
<clipPath id="clip0_1471_43512">
<rect width="210" height="204" fill="white" transform="translate(38.4375) rotate(10.8606)"/>
</clipPath>
</defs>
</svg>
