<svg xmlns="http://www.w3.org/2000/svg" width="194" height="136" fill="none" xmlns:v="https://vecta.io/nano"><g clip-path="url(#A)" fill="#c33130"><path d="M43.756 70.805c-1.623 8.073-3.944 64.318-3.944 64.318h13.799l-.472-28.258h5.231l-.472 28.258h13.799S69.38 78.882 67.64 70.805H43.753h.003zm9.387 28.35c.116-8.166.935-14.862 1.513-20.644h2.205c.462 5.782 1.4 12.478 1.4 20.644h-5.118zm70.392 35.968h20.406v-7.706h-6.607v-20.49h4.44V99.22h-4.44V78.604h6.607v-7.707h-20.406v64.225zm28.194-56.519h6.144v56.519h13.799V78.604h6.262v-7.707h-26.205v7.707zM19.947 70.637H9.157C4.142 70.637 0 74.176 0 78.461v49.724c0 4.281 4.142 7.819 9.157 7.819h10.79c5.015 0 9.157-3.538 9.157-7.819V99.412H15.309v7.82h3.208c-.11 8.289-1.462 15.084-1.9 20.952h-3.098c-.544-6.796-2.009-14.711-2.009-24.86s1.462-18.064 2.009-24.86h3.098c.329 5.121.654 5.919.763 12.81h11.725v-12.81c0-4.285-4.142-7.823-9.157-7.823v-.003zm83.964 47.508c-.096 6.891-.384 4.034-.675 9.155l.014.034h-7.976l14.915-48.966 1.14-7.731H86.692c-4.426 0-8.082 3.538-8.082 7.823l.633 9.156h9.719c.096-6.891.383-4.035.674-9.156l-.034-.089h8.25L83.34 127.338l-1.14 7.73 23.98.055c4.427 0 8.083-3.538 8.083-7.823l-.634-9.155h-9.718zM19.016.092H0v64.225h19.016c5.333 0 11.595-3.487 11.595-7.707V45.692c0-8.258-2.899-11.101-8.349-13.488 5.45-2.384 8.349-5.23 8.349-13.488V7.796c0-4.216-6.261-7.703-11.595-7.703zm-4.289 56.519h-2.913V36.06h2.797s4.022 2.384 4.022 10.276-3.906 10.276-3.906 10.276zm-.116-28.258h-2.797V7.799h2.913s3.906 2.384 3.906 10.275-4.022 10.276-4.022 10.276v.003zM43.305 0c-1.623 8.073-3.944 64.318-3.944 64.318H53.16l-.472-28.258h5.231l-.473 28.258h13.799S68.932 8.073 67.193 0H43.305zm9.387 28.35c.116-8.166.935-14.862 1.513-20.644h2.205c.462 5.782 1.4 12.478 1.4 20.644h-5.118zm45.864 3.761c0 10.002-2.078 17.801-2.656 24.497h-.185c-.579-6.696-2.656-14.495-2.656-24.497L91.469.092H77.811l7.723 64.225h20.434L113.806.092h-13.659l-1.592 32.022v-.003zm24.528 32.207h20.406v-7.71h-6.61V36.119h4.44v-7.707h-4.44V7.799h6.61V.092h-20.406v64.225zm28.193-56.519h6.145v56.519h13.799V7.799h6.261V.092h-26.205v7.707zM188.426 0c-3.242 0-5.59 2.411-5.59 5.487s2.348 5.46 5.59 5.46 5.577-2.381 5.577-5.46S191.685 0 188.426 0zm0 9.817c-2.632 0-4.296-2.007-4.296-4.329s1.664-4.357 4.296-4.357 4.266 2.038 4.266 4.357-1.637 4.329-4.266 4.329zm2.246-5.426c0-.99-.709-1.552-2.088-1.552h-2.051v4.898h1.281V5.953h.537l.976 1.785h1.526l-1.208-1.99c.585-.195 1.027-.661 1.027-1.356zm-2.088.61h-.77V3.853h.804c.428 0 .709.209.709.562 0 .414-.305.586-.747.586h.004z"/></g><defs><clipPath id="A"><path fill="#fff" d="M0 0h194v136H0z"/></clipPath></defs></svg>