<svg width="174" height="189" viewBox="0 0 174 189" fill="none" xmlns="http://www.w3.org/2000/svg">
<path d="M51.9546 101.357C51.1054 98.1692 48.9495 94.1567 48.2688 92.3552C46.7598 88.3619 46.0985 81.371 42.2435 78.8016C39.4071 76.9121 36.9183 79.1405 34.1112 80.1505C30.5398 81.4493 26.5896 82.2828 22.9469 80.7589C18.2561 78.7994 15.8255 73.6838 14.1204 68.9026C11.9713 62.839 10.305 56.3597 11.4248 50.0242C12.5356 43.6922 17.052 37.5843 23.3804 36.3796C30.6667 34.9954 37.8574 40.6143 40.6273 47.4879C41.3402 49.2671 41.8455 51.1956 41.5315 53.0789C41.2174 54.9621 39.9483 56.7904 38.0984 57.2967C34.7375 58.2118 34.7401 55.6654 34.1647 53.7126C33.3418 50.8899 32.6953 48.4265 30.1835 46.5361C26.9592 44.1036 21.5241 44.5551 19.6472 48.1342C18.1168 51.045 19.3436 54.5872 20.5871 57.6363C22.2765 61.7845 23.3682 72.0912 28.8682 72.9134C30.7308 73.1932 32.6204 72.5502 34.3262 71.7434C36.0354 70.9454 37.6865 69.9666 39.5142 69.5092C42.253 68.8292 45.2736 69.4322 47.5481 71.0978C51.8656 74.2733 53.3861 82.7853 55.2505 87.7193L59.841 99.8679C62.2755 106.31 60.5335 110.65 54.6152 112.886L44.849 116.577C40.0771 118.38 36.1659 116.602 33.4573 112.525C31.9274 110.223 27.0432 101.248 28.5868 98.8289C29.9719 96.6627 33.3553 96.3983 35.6498 95.8863C36.5008 98.891 39.3713 108.718 43.3826 108.906C47.1259 109.084 53.0592 105.463 51.9635 101.354" fill="white"/>
<path d="M75.0161 74.2373C75.0161 74.2373 75.0362 74.2905 75.0374 74.3205C79.4939 72.596 83.9503 70.8715 88.3978 69.1504C85.2765 70.3501 67.9222 37.2152 66.2724 32.8491C68.3681 38.3955 68.8595 44.8827 70.0232 50.7305C71.5912 58.616 73.0436 66.464 75.0161 74.2373ZM102.436 90.7403C99.9924 90.2134 99.329 87.6245 98.319 85.7041C97.848 84.8071 93.4906 74.7 92.2876 75.1445C88.6176 76.5312 80.3514 78.2248 77.7705 81.0965C74.9944 84.2041 78.2517 91.3195 78.8385 94.4849C79.1206 96.011 79.4018 97.5882 78.887 99.1822C78.3689 100.767 76.8326 102.372 74.9267 102.676C71.6461 103.186 70.1888 99.9742 69.6954 97.3516C67.5305 85.7365 65.3478 74.1282 63.1173 62.5278C61.9813 56.6189 60.8419 50.7011 59.697 44.7955C58.997 41.1962 55.4394 34.0117 57.8483 30.2011C59.3597 27.8046 68.8321 25.5944 71.4492 24.646C72.5689 24.223 91.5329 56.7801 93.4278 59.8061C97.2088 65.8616 100.999 71.9137 104.783 77.9781C106.19 80.2249 110.201 84.1453 110.304 86.7836C110.393 89.1431 104.977 91.0681 102.784 90.8014C102.657 90.7885 102.536 90.7633 102.427 90.7437" fill="white"/>
<path d="M133.042 83.2623C131.163 83.6377 128.733 86.128 126.831 85.8527C123.297 85.3423 122.408 78.2044 121.392 75.5156L116.627 62.9055C115.701 60.4562 113.127 58.0518 111.583 55.9276C108.289 51.402 105.153 46.7561 101.937 42.1703C100.74 39.0023 97.4004 35.7007 95.4426 32.9113C93.1314 29.6166 90.8324 26.3275 88.5211 23.0328C86.9803 20.8363 82.6432 16.7759 84.4842 14.6605C85.7618 13.2041 88.8237 12.8686 90.6102 12.3558C99.5215 25.9952 108.429 39.6258 117.341 53.2653C115.707 50.7693 116.054 46.5816 115.689 43.7076C115.148 39.3994 114.391 35.1117 113.742 30.8138C113.103 26.5424 112.681 22.1483 111.842 17.912C111.15 14.4415 109.154 11.2814 110.458 7.66503C111.531 4.67348 114.404 2.41175 117.57 2.057C118.85 13.1849 120.139 24.3095 121.42 35.4374C122.358 43.5912 122.352 52.6596 124.477 60.5679C124.937 62.2701 132.63 83.3269 133.045 83.2412" fill="white"/>
<path d="M127.342 126.66C127.293 126.8 127.403 126.525 127.342 126.66V126.66Z" fill="white"/>
<path d="M127.569 127.152C127.614 127.216 127.475 127.279 127.547 127.201C127.512 127.163 127.509 127.236 127.449 127.238C127.419 127.158 127.508 127.125 127.566 127.143" fill="white"/>
<path d="M127.189 126.657C127.189 126.657 127.164 126.697 127.14 126.716C127.127 126.681 127.166 126.676 127.189 126.657Z" fill="white"/>
<path d="M127.282 127.2C127.148 127.139 127.423 127.248 127.282 127.2V127.2Z" fill="white"/>
<path d="M133.96 144.442C133.915 144.459 133.886 144.409 133.83 144.42C133.824 144.351 133.892 144.397 133.927 144.383C133.917 144.357 133.911 144.339 133.9 144.312C133.98 144.282 133.962 144.421 133.951 144.445" fill="white"/>
<path d="M134.243 144.466C134.244 144.334 134.379 144.557 134.243 144.466V144.466Z" fill="white"/>
<path d="M134.256 144.229C134.256 144.229 134.281 144.189 134.304 144.17C134.318 144.205 134.279 144.21 134.256 144.229Z" fill="white"/>
<path d="M134.8 143.871C134.665 143.81 134.94 143.919 134.8 143.871V143.871Z" fill="white"/>
<path d="M134.565 143.706C134.576 143.762 134.538 143.716 134.494 143.733C134.477 143.688 134.543 143.674 134.565 143.706Z" fill="white"/>
<path d="M134.529 144.146C134.623 144.232 134.55 143.986 134.529 144.146V144.146Z" fill="white"/>
<path d="M134.302 143.815C134.302 143.815 134.277 143.855 134.254 143.874C134.24 143.839 134.279 143.834 134.302 143.815Z" fill="white"/>
<path d="M134.172 143.875C134.191 143.766 134.209 143.921 134.217 143.969C134.127 143.892 133.971 144.123 134.142 144.038C134.152 144.065 134.159 144.083 134.165 144.1C134.073 144.125 134.051 144.093 134.003 144.101C133.974 144.051 134.014 143.995 133.957 144.007C133.944 143.971 134.009 143.956 133.993 143.912C134.081 143.93 134.144 143.936 134.172 143.875Z" fill="white"/>
<path d="M133.938 143.791C133.939 143.659 134.074 143.882 133.938 143.791V143.791Z" fill="white"/>
<path d="M133.806 143.658C133.806 143.658 133.93 143.611 133.946 143.706C133.834 143.678 133.795 143.764 133.806 143.658Z" fill="white"/>
<path d="M134.187 144.265C134.125 144.288 134.103 144.256 134.044 144.288C133.954 144.292 134.195 144.15 134.187 144.265Z" fill="white"/>
<path d="M133.628 143.695C133.604 143.552 133.723 143.812 133.628 143.695V143.695Z" fill="white"/>
<path d="M133.45 143.66C133.521 143.684 133.58 143.733 133.64 143.812C133.578 143.835 133.54 143.789 133.522 143.714C133.495 143.724 133.502 143.742 133.5 143.763C133.443 143.775 133.492 143.716 133.463 143.666" fill="white"/>
<path d="M76.411 153.125C76.3874 152.982 76.5057 153.242 76.411 153.125V153.125Z" fill="white"/>
<path d="M76.6855 154.685C76.6124 154.814 76.713 154.543 76.6855 154.685V154.685Z" fill="white"/>
<path d="M76.957 154.785L76.9395 154.792C76.9395 154.792 76.9515 154.797 76.9603 154.794C76.9603 154.794 76.9603 154.794 76.957 154.785Z" fill="white"/>
<path d="M77.125 155.148C77.2186 155.234 77.1458 154.988 77.125 155.148V155.148Z" fill="white"/>
<path d="M76.4997 153.681C76.4997 153.681 76.5252 153.64 76.5485 153.622C76.5619 153.657 76.523 153.662 76.4997 153.681Z" fill="white"/>
<path d="M76.2243 152.628C76.2243 152.628 76.1988 152.668 76.1755 152.687C76.1621 152.652 76.201 152.647 76.2243 152.628Z" fill="white"/>
<path d="M75.9863 152.272C75.9863 152.272 75.9775 152.275 75.9688 152.278C75.9688 152.278 75.9863 152.272 75.9896 152.28" fill="white"/>
<path d="M76.0723 152.818C76.1659 152.904 76.0931 152.658 76.0723 152.818V152.818Z" fill="white"/>
<path d="M76.7918 154.32C76.733 154.353 76.9794 154.199 76.7918 154.32V154.32Z" fill="white"/>
<path d="M76.945 154.485C76.945 154.485 76.9195 154.525 76.8962 154.544C76.8828 154.509 76.9217 154.504 76.945 154.485Z" fill="white"/>
<path d="M76.7773 154.549C76.7773 154.549 76.8018 154.56 76.833 154.589C76.9132 154.64 76.8018 154.56 76.7773 154.549Z" fill="white"/>
<path d="M76.0337 152.984C76.1016 153.03 76.1049 153.038 76.0115 153.033C75.9669 152.969 76.1058 152.906 76.0337 152.984Z" fill="white"/>
<path d="M76.487 154.426C76.4324 154.335 76.5467 154.261 76.6168 154.285C76.6103 154.349 76.5303 154.379 76.487 154.426Z" fill="white"/>
<path d="M76.595 154.496C76.5713 154.353 76.6863 154.604 76.595 154.496V154.496Z" fill="white"/>
<path d="M76.3173 153.952C76.2385 154.012 76.4661 153.835 76.3173 153.952V153.952Z" fill="white"/>
<path d="M76.2239 153.49C76.0892 153.429 76.364 153.538 76.2239 153.49V153.49Z" fill="white"/>
<path d="M76.1667 153.634C76.1826 153.81 76.1553 153.496 76.1667 153.634V153.634Z" fill="white"/>
<path d="M76.3418 153.75C76.3653 153.812 76.2251 153.763 76.2443 153.868C76.1576 153.88 76.255 153.681 76.3418 153.75Z" fill="white"/>
<path d="M76.261 154.096C76.2373 153.952 76.3524 154.203 76.261 154.096V154.096Z" fill="white"/>
<path d="M76.6043 154.685C76.6043 154.685 76.6642 154.602 76.6109 154.622C76.6008 154.595 76.613 154.601 76.6397 154.591C76.6575 154.584 76.6841 154.574 76.7019 154.567C76.6397 154.591 76.7988 154.662 76.7545 154.76C76.6435 154.843 76.6243 154.657 76.5265 154.694C76.5186 154.647 76.5854 154.662 76.6077 154.694" fill="white"/>
<path d="M76.8036 154.944C76.6423 154.894 76.8577 154.792 76.8036 154.944V154.944Z" fill="white"/>
<path d="M76.4036 154.933C76.3799 154.79 76.4949 155.041 76.4036 154.933V154.933Z" fill="white"/>
<path d="M76.5371 155.045C76.5371 155.045 76.5616 155.056 76.5928 155.085C76.6729 155.136 76.5616 155.056 76.5371 155.045Z" fill="white"/>
<path d="M76.5095 154.995C76.5095 154.995 76.535 154.955 76.5583 154.936C76.5717 154.972 76.5328 154.977 76.5095 154.995Z" fill="white"/>
<path d="M77.0622 155.414C77.0622 155.414 77.0877 155.374 77.111 155.355C77.0822 155.387 77.0767 155.399 77.0622 155.414Z" fill="white"/>
<path d="M76.8196 155.172C76.7959 155.029 76.9109 155.28 76.8196 155.172V155.172Z" fill="white"/>
<path d="M76.9001 155.172C76.9032 155.019 76.9471 155.296 77.0081 155.243C77.0249 155.287 76.9171 155.297 76.9372 155.351C76.7927 155.344 77.0115 155.252 76.9001 155.172Z" fill="white"/>
<path d="M76.9216 155.042C76.9216 155.042 76.9471 155.002 76.9704 154.983C76.9838 155.018 76.9449 155.023 76.9216 155.042Z" fill="white"/>
<path d="M77.1376 155.772C77.2099 155.775 77.312 155.696 77.34 155.797C77.2899 155.745 77.1579 155.906 77.1376 155.772Z" fill="white"/>
<path d="M77.0442 155.148C77.0205 155.005 77.1356 155.255 77.0442 155.148V155.148Z" fill="white"/>
<path d="M77.4348 155.913C77.4112 155.77 77.5262 156.02 77.4348 155.913V155.913Z" fill="white"/>
<path d="M80.6716 164.912C80.6716 164.912 80.6461 164.952 80.6228 164.971C80.6094 164.936 80.6483 164.931 80.6716 164.912Z" fill="white"/>
<path d="M80.8713 165.09C80.9714 165.113 80.8624 165.093 80.8002 165.117C80.6758 165.164 80.8555 164.995 80.8713 165.09Z" fill="white"/>
<path d="M80.5408 164.536C80.5408 164.536 80.5662 164.496 80.5895 164.477C80.603 164.512 80.5641 164.517 80.5408 164.536Z" fill="white"/>
<path d="M80.6259 164.737C80.6022 164.593 80.7206 164.853 80.6259 164.737V164.737Z" fill="white"/>
<path d="M80.9803 165.161C81.0227 165.246 80.9461 165.285 80.8606 165.328C80.8515 165.25 80.9036 165.2 80.9803 165.161Z" fill="white"/>
<path d="M80.4936 164.249C80.4481 164.317 80.5283 164.368 80.5928 164.405C80.5928 164.405 80.5928 164.405 80.6017 164.401C80.6874 164.44 80.6451 164.435 80.5928 164.405C80.575 164.411 80.5817 164.429 80.5884 164.447C80.5106 164.456 80.4781 164.316 80.3859 164.341C80.3924 164.277 80.4392 164.321 80.5024 164.246" fill="white"/>
<path d="M80.4808 164.487C80.5095 164.375 80.4956 164.634 80.3966 164.641C80.3832 164.605 80.3421 164.631 80.3155 164.641C80.3063 164.482 80.4634 164.656 80.4808 164.487Z" fill="white"/>
<path d="M80.2684 165.054C80.2448 164.911 80.3632 165.17 80.2684 165.054V165.054Z" fill="white"/>
<path d="M80.528 165.281C80.4634 165.245 80.3578 165.234 80.3876 165.151C80.4522 165.188 80.5578 165.199 80.528 165.281Z" fill="white"/>
<path d="M80.1168 164.382C80.1394 164.576 80.2358 164.428 80.1168 164.382V164.382Z" fill="white"/>
<path d="M80.636 165.271C80.5349 165.299 80.6603 165.201 80.6257 165.163C80.7513 165.146 80.617 165.247 80.636 165.271Z" fill="white"/>
<path d="M80.5047 164.711C80.5047 164.711 80.5491 164.695 80.5758 164.684C80.5681 164.718 80.5604 164.751 80.5894 164.801C80.5116 164.81 80.5015 164.784 80.5169 164.717" fill="white"/>
<path d="M80.8382 165.377C80.917 165.317 80.8808 165.543 80.9596 165.483C80.9631 165.573 80.7806 165.439 80.8382 165.377Z" fill="white"/>
<path d="M80.9817 165.434C80.847 165.373 81.1218 165.482 80.9817 165.434V165.434Z" fill="white"/>
<path d="M84.3321 167.393C84.2498 167.363 84.3997 167.276 84.4654 167.343C84.5734 167.414 84.3286 167.303 84.3321 167.393Z" fill="white"/>
<path d="M84.7343 167.17C84.6856 167.31 84.7951 167.035 84.7343 167.17V167.17Z" fill="white"/>
<path d="M85.1962 166.965C85.1725 166.822 85.2909 167.082 85.1962 166.965V166.965Z" fill="white"/>
<path d="M85.4325 166.895C85.4089 166.752 85.5272 167.012 85.4325 166.895V166.895Z" fill="white"/>
<path d="M85.5741 167.025C85.5741 167.025 85.5272 166.901 85.6316 166.882C85.615 166.918 85.6242 167.077 85.7263 166.998C85.7399 167.115 85.6241 166.996 85.583 167.022" fill="white"/>
<path d="M85.7207 166.848C85.8143 166.934 85.7415 166.688 85.7207 166.848V166.848Z" fill="white"/>
<path d="M85.8466 166.942C85.8229 166.799 85.9413 167.059 85.8466 166.942V166.942Z" fill="white"/>
<path d="M86.1334 166.894C86.1334 166.894 86.0878 166.881 86.0522 166.895C86.0422 166.868 86.0743 166.846 86.052 166.814C86.0787 166.804 86.101 166.836 86.1332 166.813C86.1433 166.84 86.1111 166.862 86.1334 166.894Z" fill="white"/>
<path d="M86.0904 166.698L86.0505 166.754C86.0505 166.754 86.0505 166.754 86.0705 166.726C86.0883 166.719 86.0904 166.698 86.0993 166.695" fill="white"/>
<path d="M86.1555 166.764C86.0209 166.704 86.2957 166.813 86.1555 166.764V166.764Z" fill="white"/>
<path d="M86.2358 166.764C86.2358 166.764 86.2445 166.68 86.3067 166.656C86.3146 166.704 86.298 166.741 86.2358 166.764Z" fill="white"/>
<path d="M122.374 142.563C122.193 142.54 121.907 142.617 121.638 142.658C121.378 142.696 121.064 142.672 120.87 142.776C120.425 142.995 120.044 143.707 120.088 144.065C120.122 144.397 120.376 144.747 120.49 145.049C120.701 145.608 120.941 146.268 120.954 146.679C120.974 147.189 120.609 148.158 119.946 148.419C119.573 148.56 119.113 148.419 118.835 148.22C118.553 148.012 118.132 147.461 117.816 146.922C117.475 146.341 117.059 145.697 116.821 145.148C116.524 144.469 116.347 143.704 116.013 143.009C115.862 142.691 115.64 142.399 115.513 142.062C115.402 141.769 115.38 141.443 115.264 141.162C115.113 140.763 114.826 140.405 114.646 139.956C114.457 139.51 114.396 138.945 114.196 138.442C113.979 137.896 113.666 137.416 113.472 136.931C113.268 136.39 113.13 135.864 113.234 135.439C113.423 134.678 114.312 134.423 115.02 134.551C115.678 134.678 115.816 135.072 116.277 135.78C116.475 136.09 116.784 136.369 116.929 136.619C117.351 137.332 117.732 138.232 118.208 138.417C118.766 138.632 119.919 137.974 120.138 137.505C120.283 137.217 120.152 136.79 120.017 136.273C119.739 135.212 119.189 134.162 118.655 133.259C117.943 132.422 117.151 131.778 116.311 131.275C115.682 131.249 115.017 130.942 114.311 131.006C113.957 131.038 113.243 131.298 112.665 131.516C112.39 131.62 112.137 131.757 112.026 131.839C111.612 132.168 111.196 132.467 110.841 132.763C110.501 133.044 110.072 133.47 109.846 133.839C109.697 134.088 109.628 134.469 109.552 134.833C109.476 135.196 109.312 135.542 109.302 135.84C109.281 136.588 109.447 137.62 109.804 138.429C110.038 138.969 110.469 139.465 110.703 139.894C111.504 141.397 112.274 143.113 112.989 144.79C113.141 145.139 113.21 145.508 113.346 145.842C113.47 146.17 113.67 146.43 113.833 146.753C114.395 147.839 114.759 148.989 115.443 149.887C116.591 150.883 117.401 151.601 118.488 151.951C119.021 152.125 119.483 152.032 120.113 151.925C120.379 151.876 120.702 151.926 120.943 151.865C122.066 151.583 122.918 150.561 123.477 149.944C124.125 149.213 124.522 148.14 124.434 147.21C124.406 146.865 124.291 146.534 124.243 146.166C124.084 144.938 123.588 142.712 122.383 142.559" fill="white"/>
<path d="M135.144 142.656C134.836 142.407 134.197 142.273 133.782 142.41C133.44 142.529 133.131 142.838 132.671 142.992C132.463 143.06 132.19 143.062 131.913 143.136C131.411 143.285 130.775 143.698 130.411 143.704C129.678 143.697 129.466 142.519 129.178 141.837C129.065 141.566 128.85 141.292 128.715 140.988C128.57 140.657 128.493 140.321 128.385 140.088C128.175 139.64 127.63 139.218 127.594 138.694C127.566 138.217 128.105 137.923 128.684 137.734C129.236 137.556 129.711 137.255 130.257 137.059C130.522 136.634 130.718 136.56 130.754 136.171C130.813 135.601 130.12 134.494 129.758 134.316C129.486 134.186 129.037 134.234 128.693 134.293C128.347 134.343 127.847 134.471 127.438 134.625C127.047 134.773 126.519 135.257 126.135 135.209C125.643 135.141 125.58 134.384 125.409 133.932C125.1 133.115 124.403 132.182 124.342 131.404C124.303 130.79 124.914 130.285 125.335 130.055C126.546 129.415 128.669 129.201 128.662 127.733C128.655 126.935 128.096 126.101 127.738 125.851C127.256 125.516 126.65 125.634 125.986 125.864C125.672 125.973 125.326 125.972 125.026 126.065C124.845 126.123 124.203 126.467 123.996 126.565C123.171 126.989 122.425 127.514 121.772 127.882C121.075 128.268 120.249 128.661 120.008 129.34C119.761 130.032 120.13 130.846 120.531 131.718C120.666 132.022 120.776 132.366 120.91 132.64C121.079 132.982 121.35 133.295 121.526 133.654C122.301 135.248 123.181 136.984 123.994 138.868C124.655 140.403 125.522 141.89 126.152 143.315C126.633 144.401 127.083 145.752 127.575 146.733C127.862 147.304 128.391 147.682 128.749 147.689C129.124 147.689 129.681 147.468 130.229 147.332C131.58 146.984 133.813 146.282 135.036 145.435C135.422 145.167 135.946 144.563 135.935 144.132C135.928 143.657 135.468 142.949 135.117 142.666" fill="white"/>
<path d="M107.392 141.591C107.141 141.088 107.003 140.562 106.799 140.02C106.688 139.727 106.491 139.447 106.371 139.158C106.109 138.516 105.979 137.825 105.717 137.265C105.559 136.929 105.294 136.522 105.006 136.296C104.603 135.982 103.577 135.903 102.899 136.312C102.371 136.633 101.846 137.663 101.893 138.244C101.971 139.177 102.698 140.079 103.186 141.02C103.534 141.7 103.747 142.451 103.98 143.042C104.249 143.701 104.587 144.111 104.916 144.687C105.194 145.18 105.459 145.719 105.734 146.152C105.987 146.553 106.369 146.866 106.612 147.24C107.203 148.132 107.478 149.154 107.75 150.197C107.93 150.89 108.148 151.761 108.106 152.375C108.069 152.896 107.598 153.612 107.09 153.773C106.588 153.922 105.871 153.341 105.478 152.273C105.33 151.883 105.233 151.412 105.074 150.935C104.907 150.44 104.629 149.947 104.435 149.432C104.25 148.944 104.145 148.477 103.949 148.094C103.618 147.459 103.148 146.886 102.8 146.074C102.621 145.655 102.534 145.1 102.35 144.642C101.986 143.705 101.249 142.857 100.904 141.862C100.708 141.318 100.679 140.568 100.358 140.04C100.05 139.548 99.1688 138.695 98.7228 138.589C97.5183 138.304 96.1355 139.455 96.1328 140.308C96.1372 140.804 96.7363 141.825 97.0454 142.428C97.3903 143.099 97.7161 143.665 97.9832 144.345C98.515 145.645 98.7777 146.905 99.4643 148.319C100.158 149.75 100.798 150.989 101.29 152.101C101.887 153.467 102.246 154.954 102.998 155.978C103.856 157.145 104.775 157.508 106.09 157.548C106.996 157.581 108.03 157.495 108.755 157.13C109.241 156.885 109.591 156.306 110.032 155.967C110.825 155.353 111.34 155.047 111.616 154.274C111.792 153.771 111.867 152.789 111.792 152.24C111.658 151.215 110.968 150.087 110.819 148.967C110.791 148.704 110.868 148.451 110.832 148.222C110.798 147.971 110.666 147.676 110.607 147.384C110.547 147.092 110.541 146.78 110.463 146.546C110.134 145.595 109.562 144.726 109.04 143.909C108.53 143.098 107.807 142.448 107.368 141.58" fill="white"/>
<path d="M101.044 112.776C101.375 112.711 101.714 112.614 101.955 112.634C102.721 112.7 102.845 113.241 103.222 114.052C103.856 115.435 104.049 116.427 104.445 117.717C104.582 118.162 104.702 118.614 104.849 119.055C105.009 119.532 105.224 119.968 105.396 120.451C105.685 121.214 105.774 122.042 106.049 122.77C106.307 123.453 106.765 124.071 107.023 124.755C107.462 125.917 107.575 126.97 108.456 127.58C109.676 128.417 112.486 127.254 112.067 125.526C111.781 124.447 110.874 123.766 110.313 123.035C109.403 121.837 108.911 120.157 108.251 118.733C108.021 118.232 107.723 117.767 107.541 117.257C107.426 116.926 107.473 116.674 107.419 116.37C107.371 116.135 107.256 115.884 107.207 115.649C106.908 114.211 106.531 112.649 105.858 111.19C106.241 110.538 107.173 110.237 107.563 109.603C107.783 109.245 107.754 108.871 107.785 108.444C107.552 107.72 107.292 107.139 106.743 106.921C106.001 106.623 105.084 106.939 104.054 107.196C103.599 107.308 103.108 107.381 102.785 107.493C102.035 107.767 101.646 108.106 100.973 108.503C100.618 108.718 100.18 108.823 99.8492 109.049C99.6005 109.224 99.402 109.451 99.1611 109.593C98.5526 109.945 97.9929 110.237 97.7895 110.801C97.6327 111.864 98.2657 113.136 99.2239 113.119C99.5185 113.119 99.7938 112.934 100.125 112.869C100.391 112.82 100.71 112.831 101.023 112.774" fill="white"/>
<path d="M76.6866 122.76C76.4539 122.037 76.1937 121.456 75.6441 121.237L71.6778 121.813C70.928 122.086 70.5385 122.426 69.8656 122.823C69.5103 123.038 69.0726 123.142 68.7417 123.369C68.4931 123.544 68.2946 123.771 68.0536 123.913C67.4452 124.264 66.8855 124.557 66.6788 125.112C66.522 126.175 67.1549 127.447 68.1131 127.43C68.4043 127.421 68.683 127.245 69.0142 127.18C69.2797 127.131 69.5988 127.142 69.9122 127.084C70.2433 127.02 70.5822 126.923 70.8234 126.943C71.5806 127.012 71.7129 127.55 72.0903 128.361C72.7335 129.74 72.9134 130.727 73.3129 132.026C73.4505 132.471 73.5704 132.923 73.717 133.364C73.8735 133.832 74.089 134.268 74.2645 134.76C74.5529 135.523 74.6424 136.351 74.9174 137.079C75.1756 137.762 75.6238 138.384 75.8908 139.064C76.3301 140.226 76.4434 141.278 77.324 141.889C78.5352 142.729 81.3542 141.563 80.9349 139.835C80.6492 138.756 79.7418 138.075 79.19 137.34C78.2805 136.143 77.7845 134.454 77.128 133.039C76.8979 132.537 76.6002 132.072 76.4268 131.559C76.3116 131.228 76.3589 130.977 76.296 130.676C76.2566 130.437 76.1327 130.19 76.0845 129.955C75.7847 128.516 75.3991 126.958 74.7346 125.496C75.1179 124.844 76.05 124.542 76.44 123.908C76.6516 123.554 76.6308 123.177 76.6622 122.749" fill="white"/>
<path d="M100.229 122.525C99.8695 122.326 99.5477 122.093 99.1872 121.945C98.3439 121.594 97.4375 121.399 96.5909 121.121C95.711 120.835 94.8591 120.65 94.0553 120.081C93.2705 119.536 92.2534 118.511 92.241 117.349C92.2357 116.905 92.3722 116.245 92.8562 115.94C93.5046 115.533 93.883 115.755 94.335 116.091C94.6078 116.303 94.994 116.491 95.1878 116.682C95.6857 117.193 95.9283 117.862 96.5876 117.887C97.6682 117.925 98.3741 116.837 98.5294 116.119C98.5487 115.229 98.2534 114.367 97.6031 113.802C97.2422 113.492 96.665 113.335 96.2153 113.059C95.8369 112.836 95.407 112.451 95.0789 112.362C94.7719 112.275 94.374 112.324 93.9515 112.281C93.5745 112.251 93.1643 112.214 92.8019 112.249C91.9339 112.344 90.8278 112.884 90.3132 113.484C89.8907 113.978 89.7477 114.701 89.5077 115.329C88.8775 116.967 89.0496 119.062 90.4599 120.994C90.8188 121.487 91.29 121.927 91.61 122.425C91.7539 122.644 91.9058 122.993 92.0729 123.193C92.3092 123.469 92.6831 123.652 92.9847 123.832C93.3019 124.027 93.5804 124.307 93.8509 124.458C94.1057 124.595 94.465 124.713 94.7509 124.798C96.0434 125.181 97.6229 125.061 98.625 125.859C98.9846 126.139 99.3969 126.612 99.5979 127.063C99.9408 127.836 99.8831 128.973 99.078 129.369C98.1784 129.81 96.9672 128.97 96.461 128.248C96.1522 127.807 96.0687 127.21 95.6212 126.913C95.1893 126.63 94.5057 126.675 94.1293 126.888C93.5997 127.18 93.2234 128.011 93.192 128.439C93.1057 129.689 94.3722 131.482 95.2196 132.166C95.7407 132.577 96.378 132.732 97.0208 132.874C97.3756 132.953 97.7305 133.113 98.0151 133.087C98.4763 133.044 98.8628 132.858 99.2706 132.754C99.6783 132.651 100.161 132.611 100.539 132.457C101.226 132.178 101.899 131.7 102.243 131.296C102.413 131.1 102.469 130.846 102.589 130.598C102.714 130.338 102.907 130.123 102.98 129.913C103.185 129.328 103.226 128.684 103.25 127.914C103.311 126.461 102.591 124.421 101.401 123.208C101.085 122.881 100.637 122.746 100.229 122.525Z" fill="white"/>
<path d="M85.9377 158.125C85.5782 157.927 85.2565 157.693 84.896 157.546C84.0526 157.195 83.1462 157 82.2997 156.721C81.4164 156.426 80.5679 156.25 79.7641 155.682C78.9792 155.137 77.9622 154.111 77.9498 152.95C77.9444 152.506 78.0809 151.846 78.565 151.541C79.2134 151.134 79.5918 151.356 80.0438 151.692C80.3166 151.903 80.7027 152.092 80.8966 152.283C81.3945 152.794 81.6371 153.463 82.2964 153.488C83.377 153.526 84.0829 152.437 84.2382 151.72C84.2486 150.833 83.9622 149.968 83.3118 149.402C82.951 149.093 82.3737 148.936 81.9241 148.659C81.5456 148.437 81.1158 148.052 80.7876 147.963C80.4806 147.876 80.0794 147.916 79.6602 147.882C79.2833 147.852 78.873 147.814 78.5107 147.85C77.6427 147.945 76.5366 148.484 76.022 149.084C75.5995 149.579 75.4565 150.302 75.2165 150.93C74.5774 152.571 74.7584 154.663 76.1686 156.594C76.5276 157.087 76.9987 157.528 77.3188 158.026C77.4627 158.245 77.6146 158.593 77.7817 158.794C78.0091 159.073 78.3919 159.253 78.6935 159.433C79.0107 159.627 79.2892 159.908 79.5596 160.059C79.8145 160.196 80.1738 160.314 80.4597 160.398C81.7522 160.782 83.3316 160.662 84.3338 161.46C84.6934 161.739 85.1057 162.212 85.3067 162.664C85.6496 163.437 85.5919 164.574 84.7868 164.97C83.8872 165.411 82.6794 164.579 82.1698 163.849C81.861 163.408 81.7775 162.811 81.33 162.513C80.8981 162.23 80.2145 162.276 79.8381 162.489C79.3084 162.78 78.9322 163.612 78.9008 164.04C78.8145 165.289 80.081 167.082 80.9373 167.763C81.4495 168.178 82.0923 168.32 82.7385 168.472C83.0933 168.55 83.4482 168.71 83.7327 168.684C84.194 168.642 84.5805 168.455 84.9882 168.352C85.396 168.248 85.8784 168.208 86.2572 168.055C86.9469 167.784 87.6163 167.298 87.9612 166.894C88.1308 166.698 88.187 166.443 88.3066 166.195C88.4316 165.935 88.6246 165.72 88.6976 165.51C88.9031 164.925 88.9441 164.281 88.968 163.511C89.0284 162.059 88.3083 160.019 87.1186 158.805C86.8022 158.478 86.355 158.343 85.9466 158.122" fill="white"/>
<path d="M115.415 113.907C116.023 114.63 116.434 115.53 116.895 116.4C117.356 117.27 117.739 118.231 117.964 119.12C118.237 120.193 118.372 122.109 119.349 122.785C120.165 123.359 122.599 122.439 122.865 121.395C123.104 120.443 122.111 119.479 121.586 118.735C121.201 118.201 120.802 117.682 120.52 117.069C119.985 115.922 119.616 114.571 119.216 113.404C119.069 112.962 118.834 112.554 118.754 112.128C118.67 111.663 118.747 111.167 118.705 110.707C118.567 109.187 118.532 107.912 118.619 106.449C118.471 105.734 118.425 104.941 118.347 104.118C118.271 103.325 118.304 102.39 117.968 101.716C117.713 101.204 117.279 101.023 116.914 100.674C116.456 100.725 116.021 100.809 115.623 101.02C115.126 101.289 114.967 101.836 114.652 102.158C114.643 102.618 114.442 103.028 114.472 103.483C114.523 104.316 115.024 105.374 115.218 106.426C115.33 107.043 115.384 107.885 115.456 108.506C115.492 108.817 115.526 109.068 115.208 109.087C114.968 109.096 114.247 107.939 114.117 107.704C113.862 107.243 113.707 106.835 113.453 106.484C113.202 106.143 112.661 105.759 112.291 105.291C112.083 105.035 111.958 104.758 111.761 104.558C111.346 104.106 110.483 103.865 110.032 103.853C109.012 103.842 108.057 104.538 108.007 105.429C107.944 106.579 109.091 107.545 109.727 108.207C110.109 108.6 110.505 109.029 110.903 109.436C111.259 109.788 111.7 110.068 112.063 110.438C112.818 111.227 113.601 111.956 114.314 112.741C114.666 113.135 115.09 113.502 115.427 113.912" fill="white"/>
<path d="M152.356 124.489C149.996 127.865 143.371 128.097 139.524 128.344C141.029 125.473 148.597 121.985 152.072 123.521C152.171 123.839 152.262 124.159 152.365 124.486" fill="white"/>
<path d="M164.272 125.463C162.574 126.642 160.895 127.601 159.312 127.013C160.939 125.404 163.471 123.667 164.272 125.463Z" fill="white"/>
<path d="M162.461 135.964C161.375 137.713 159.436 136.853 158.024 136.504C156.458 136.123 154.792 135.556 153.359 135.205C156.318 134.837 159.272 134.431 162.461 135.964Z" fill="white"/>
<path d="M138.443 111.209C136.421 111.151 134.447 110.579 132.374 111.22C132.152 111.061 131.817 111.41 132.055 111.665C137.302 113.404 145.466 118.24 149.032 112.41C145.087 110.006 141.879 111.3 138.452 111.205" fill="white"/>
<path d="M149.077 92.5875C139.672 93.5249 132.312 98.6384 126.445 103.107C130.374 102.271 135.322 101.578 139.402 100.31C143.884 98.9206 150.032 97.6419 149.077 92.5875Z" fill="white"/>
<path d="M154.51 104.955C152.674 107.19 149.098 106.3 146.899 106.421C148.855 104.769 152.834 103.367 154.51 104.955Z" fill="white"/>
<path d="M162.812 117.973C160.949 116.831 159.134 115.55 157.559 113.772C159.298 113.216 164.151 114.932 163.052 117.882L162.803 117.976L162.812 117.973Z" fill="white"/>
<path d="M137.501 137.77C138.177 140.688 143.246 143.864 147.215 145.203C150.417 146.286 154.727 146.269 155.903 143.442C149.572 140.905 143.99 140.834 137.501 137.77Z" fill="white"/>
<path d="M57.9406 174.495C58.539 174.117 57.846 176.61 57.3038 177.271C56.7471 177.948 56.0117 178.206 55.4249 178.265C54.9041 176.403 56.8001 175.616 57.944 174.504" fill="white"/>
<path d="M65.7553 136.078C58.2311 135.301 47.1128 132.86 44.4644 140.767C48.3281 143.252 51.9931 140.508 55.3004 139.451C58.8898 138.308 62.7621 138.477 66.1763 137.004C66.2888 136.577 66.3691 136.171 65.7553 136.078Z" fill="white"/>
<path d="M61.864 176.684C61.2267 179.216 61.2972 183.784 64.7404 185.048C68.9507 180.415 70.1504 170.743 71.1207 164.738C69.6313 168.08 62.9732 172.228 61.864 176.684Z" fill="white"/>
<path d="M54.6636 170.795C54.7828 170.922 54.8964 171.061 55.0157 171.189C60.2573 167.484 62.5962 162.037 64.3433 157.523C60.703 160.978 52.7611 167.345 54.6636 170.795Z" fill="white"/>
<path d="M45.7983 148.274C46.472 148.284 46.11 148.481 46.0506 148.808C44.2293 150.196 43.939 154.453 41.1654 153.94C40.9175 151.214 44.1007 149.829 45.8072 148.271" fill="white"/>
<path d="M48.186 159.886C49.4102 158.369 53.1758 158.579 54.5064 158.015C54.6534 159.775 49.0847 162.802 48.186 159.886Z" fill="white"/>
<path d="M50.6483 152.161C52.8789 151.937 54.2072 149.701 56.2132 148.345C58.2891 146.931 60.8583 145.91 62.6067 144.195C58.0864 144.057 49.4663 147.152 50.6483 152.161Z" fill="white"/>
<path d="M86.9497 129.388C86.8076 129.523 86.4455 129.639 86.1668 129.816C85.6362 130.158 85.3632 130.403 84.9702 130.116C84.5317 129.359 84.5822 128.498 84.4338 127.702C84.3215 127.136 84.1026 126.61 83.9703 126.072C83.9478 125.959 83.9854 125.843 83.9684 125.718C83.8875 125.262 83.6264 124.813 83.6232 124.347C83.6219 124.236 83.8008 124.199 83.9185 124.134C84.4968 124.778 84.9957 125.776 85.5926 126.818C85.7923 127.158 86.0721 127.549 86.3141 127.894C86.6452 128.367 87.3945 128.926 86.943 129.37M92.6508 131.28C92.1077 130.461 91.4681 129.709 90.943 128.964C90.1882 127.88 89.3453 126.698 88.5595 125.666C88.2998 125.328 87.9546 125.033 87.727 124.673C87.417 124.202 87.184 123.854 86.9108 123.48C86.7135 123.2 86.5873 122.893 86.4022 122.618C86.0665 122.106 85.6066 121.722 85.2433 121.271C84.842 120.773 84.524 120.174 84.1504 119.615C83.7802 119.065 83.481 118.408 83.0977 117.985C82.6074 117.44 81.6591 116.865 80.9402 117.005C79.6456 117.261 79.0453 118.36 78.8332 119.008C78.8066 119.555 78.9211 120.1 79.0235 120.721C79.1823 121.705 79.3444 122.699 79.6178 123.772C79.8174 124.568 80.0459 125.415 80.2119 126.123C80.2556 126.32 80.3083 126.513 80.3643 126.715C80.6712 127.876 80.9029 129.188 81.3166 130.31C81.3903 130.505 81.5018 130.666 81.5667 130.864C81.6562 131.155 81.6168 131.454 81.6852 131.742C81.7402 131.995 81.903 132.238 81.9914 132.499C82.3929 133.696 82.4789 134.972 82.917 136.104C83.0679 136.503 83.3 136.903 83.4631 137.307C83.624 137.733 83.7384 138.197 83.9515 138.573C84.4 139.357 85.4826 139.83 86.4162 139.183C86.8347 138.893 87.0354 138.107 87.1023 137.666C86.9108 136.461 86.2496 134.926 85.9537 133.74C85.8853 133.451 85.8554 132.996 85.9651 132.802C86.1135 132.523 86.5201 132.39 86.8287 132.212C87.264 131.967 87.7214 131.672 88.2289 131.43C88.7413 131.388 88.8089 131.809 89.1056 132.326C89.3578 132.778 89.6982 133.41 90.0551 134.005C90.672 135.019 91.1964 135.977 92.0446 135.992C92.2914 136 92.5168 135.844 92.9188 135.671C93.221 135.557 93.5588 135.511 93.7709 135.4C94.5405 135.018 94.6671 134.412 94.3388 133.705C93.9559 132.906 93.2229 132.149 92.6664 131.294" fill="white"/>
<path d="M94.8795 154.675C94.7375 154.81 94.3754 154.927 94.0967 155.103C93.566 155.445 93.2931 155.691 92.9001 155.403C92.4616 154.646 92.5121 153.785 92.3637 152.989C92.2514 152.423 92.0324 151.897 91.9002 151.359C91.8777 151.246 91.9152 151.13 91.8983 151.005C91.8173 150.549 91.5563 150.1 91.5531 149.635C91.5518 149.523 91.7307 149.486 91.8484 149.422C92.4266 150.065 92.9256 151.063 93.5225 152.105C93.7222 152.445 94.002 152.837 94.2439 153.181C94.5751 153.654 95.3244 154.213 94.8728 154.658M100.581 156.567C100.038 155.748 99.398 154.996 98.8729 154.251C98.1181 153.168 97.2752 151.985 96.4894 150.954C96.2263 150.607 95.8844 150.32 95.648 149.963C95.338 149.492 95.105 149.144 94.8318 148.771C94.6345 148.49 94.5083 148.183 94.3232 147.908C93.9875 147.396 93.5276 147.012 93.1643 146.561C92.763 146.064 92.445 145.464 92.0625 144.909C91.6923 144.359 91.3931 143.702 91.0098 143.278C90.5195 142.734 89.5712 142.159 88.8523 142.299C87.5577 142.555 86.9574 143.654 86.7453 144.302C86.7187 144.849 86.8332 145.394 86.9356 146.015C87.0944 146.999 87.2565 147.993 87.53 149.066C87.7295 149.862 87.958 150.709 88.124 151.417C88.1677 151.613 88.2204 151.807 88.2764 152.009C88.5833 153.17 88.815 154.482 89.2287 155.604C89.3024 155.799 89.4139 155.96 89.4788 156.158C89.5683 156.449 89.5289 156.748 89.5973 157.036C89.6523 157.289 89.8151 157.532 89.9035 157.793C90.305 158.99 90.391 160.266 90.8291 161.398C90.98 161.797 91.2087 162.188 91.3718 162.592C91.5328 163.018 91.6472 163.482 91.8602 163.858C92.3087 164.642 93.3914 165.115 94.3249 164.468C94.7434 164.178 94.9441 163.393 95.0111 162.951C94.8196 161.746 94.1583 160.211 93.8624 159.025C93.794 158.736 93.7642 158.281 93.8649 158.091C94.0133 157.812 94.4199 157.678 94.732 157.51C95.1672 157.264 95.6246 156.97 96.1377 156.715C96.6501 156.673 96.7176 157.094 97.0144 157.611C97.2666 158.063 97.6069 158.695 97.9639 159.29C98.5807 160.305 99.1052 161.262 99.9534 161.277C100.2 161.285 100.426 161.129 100.828 160.956C101.126 160.833 101.468 160.796 101.68 160.685C102.449 160.303 102.576 159.697 102.248 158.99C101.865 158.192 101.132 157.434 100.575 156.58" fill="white"/>
</svg>
