<svg width="227" height="148" viewBox="0 0 227 148" fill="none" xmlns="http://www.w3.org/2000/svg">
<path d="M35.1955 33.4932C34.6404 33.4198 34.086 33.3454 33.5315 33.2695C31.3451 42.8657 28.231 57.6397 27.4023 73.5731C23.4592 73.5275 19.528 73.4792 15.6088 73.4275C14.7847 56.912 11.6916 40.7234 9.53404 29.5036C8.98477 29.4057 8.43703 29.3072 7.89082 29.2077C9.53312 40.4951 11.6935 56.5497 12.2085 73.3834C8.1243 73.3283 4.05481 73.269 0 73.2053V0C5.41742 1.66433 10.8609 3.20688 16.3306 4.62733C17.3631 14.4282 18.912 27.7055 20.6697 46.0955C21.2205 46.1546 21.7722 46.2133 22.3242 46.2715C24.0831 28.3644 25.6385 16.128 26.6752 7.16162C32.1716 8.42877 37.6879 9.57382 43.2231 10.5962V73.7393C39.0811 73.7001 34.9492 73.6579 30.8277 73.6123C31.3473 57.7704 33.53 43.2185 35.1955 33.4932Z" fill="#C33130"/>
<path d="M50.7493 11.8223C57.9378 13.0062 65.1493 13.9851 72.3838 14.7586C73.9624 22.4301 76.0699 74.0165 76.0699 73.9721C71.8899 73.9519 67.7151 73.9283 63.5465 73.9008V47.4541C62.2506 47.3749 60.9553 47.2926 59.6603 47.2069V73.8736C55.4959 73.8433 51.3395 73.8105 47.1914 73.7747C47.1923 73.6949 49.2829 19.2455 50.7493 11.8223ZM62.6025 20.8113C61.9372 20.7324 61.2726 20.6525 60.608 20.5711C60.0817 25.9494 59.7677 32.2364 59.6603 39.9348C60.9198 40.0373 62.1802 40.1368 63.4418 40.2331C63.4418 32.5923 63.0211 26.2823 62.6025 20.8113Z" fill="#C33130"/>
<path d="M105.848 23.8063C105.814 38.2724 105.779 52.7392 105.743 67.2066C105.743 70.9581 101.724 74.0536 96.863 74.0466C91.1197 74.0344 85.3828 74.0151 79.6523 73.9897V15.5498C85.4177 16.055 91.1895 16.4308 96.9677 16.6768C101.831 16.8895 105.848 20.0535 105.848 23.8063ZM94.7492 45.3086C94.7492 36.371 92.6362 23.3849 92.6362 23.377C92.0377 23.3482 91.4392 23.3182 90.8406 23.287C89.9428 23.2399 91.262 36.2385 91.262 45.2116C91.262 54.1848 90.8406 67.1099 90.8406 67.1111C91.4037 67.1166 91.967 67.1218 92.53 67.1267C92.531 67.1197 94.7492 54.2484 94.7492 45.3086Z" fill="#C33130"/>
<path d="M109.76 17.009C115.965 17.068 122.168 16.9771 128.371 16.7363V23.6143C126.362 23.6831 124.353 23.7382 122.344 23.7792V42.0624C124.001 42.0401 125.657 42.0116 127.313 41.9767V48.8504C125.658 48.878 124.001 48.9006 122.344 48.9184V67.2015C124.354 67.1939 126.363 67.1838 128.371 67.1716V74.0486C122.17 74.0608 115.966 74.0657 109.76 74.063V17.009Z" fill="#C33130"/>
<path d="M165.371 20.7606C163.376 21.0008 161.379 21.2272 159.379 21.4393V40.5245C161.028 40.4101 162.674 40.2892 164.32 40.1619V47.3893C162.675 47.4928 161.028 47.5904 159.379 47.6819V73.9256C155.207 73.9501 151.029 73.9719 146.846 73.9905V15.5779C153.032 15.0393 159.207 14.3527 165.37 13.5176L165.371 20.7606Z" fill="#C33130"/>
<path d="M195.679 15.924V65.855C195.679 70.1815 191.733 73.7742 186.934 73.7978C183.493 73.8312 180.045 73.8621 176.592 73.8902C171.777 73.9138 167.787 70.6469 167.787 66.6741V20.3763C167.787 16.4008 171.777 12.5537 176.592 11.7358C180.046 11.1627 183.494 10.5421 186.934 9.87348C191.733 8.92213 195.679 11.5984 195.679 15.924ZM183.595 42.1672C183.595 32.3317 183.177 24.72 182.76 18.2199C182.098 18.3267 181.436 18.432 180.775 18.5357C180.251 25.1548 179.834 32.7926 179.834 42.5225C179.834 52.2523 180.251 59.8145 180.775 66.3354L182.76 66.2772C183.177 59.6976 183.595 52.0029 183.595 42.1672Z" fill="#C33130"/>
<path d="M219.439 37.7499C225.8 38.2551 226.812 49.2218 226.815 73.2049C222.999 73.2639 219.17 73.3199 215.327 73.3729C215.327 48.1028 212.649 42.8818 212.649 42.8959L211.001 43.0994C211.929 50.4749 211.929 53.6613 211.929 73.42C207.839 73.4732 203.736 73.524 199.621 73.5724V7.28115C205.292 5.98279 210.939 4.55438 216.563 2.99592C221.296 1.65962 226.817 3.93381 226.815 8.78606V21.2299C226.815 30.655 224.263 34.3888 219.439 37.7499ZM214.813 23.0509C214.813 14.4471 212.753 12.3543 212.753 12.3577C212.169 12.4951 211.585 12.6316 211.001 12.7671C210.124 12.9706 211.412 15.2316 211.412 23.7186C211.412 32.2055 211.001 34.8288 211.001 34.8276C211.55 34.7453 212.099 34.6611 212.649 34.5751C212.65 34.5788 214.813 31.6571 214.813 23.0509Z" fill="#C33130"/>
<path d="M39.6247 87.0074C37.6433 87.0708 35.6641 87.1369 33.6868 87.2054V107.972C35.3168 107.812 36.9487 107.657 38.5825 107.505V115.181C36.949 115.368 35.3171 115.561 33.6868 115.761V144.318C29.56 145.186 25.4453 146.123 21.3418 147.13V79.56C27.411 79.4856 33.505 79.418 39.6247 79.3574V87.0074Z" fill="#C33130"/>
<path d="M62.3424 109.287C68.8578 110.155 69.9147 119.075 69.9138 138.475C65.9841 138.918 62.0603 139.422 58.1426 139.988C58.1426 118.135 55.4146 113.482 55.4158 113.477C54.8561 113.526 54.2968 113.576 53.7377 113.627C54.6814 120.205 54.6814 122.993 54.6814 140.503C50.5235 141.142 46.3741 141.848 42.2324 142.622V79.3319C47.939 79.2786 53.6621 79.2315 59.4018 79.1905C64.2292 79.1715 69.9126 82.3604 69.9135 86.2444V96.3345C69.9138 103.964 67.2813 106.706 62.3424 109.287ZM57.6184 96.2433C57.6184 88.7766 55.5199 86.5605 55.5199 86.5572C54.9256 86.5718 54.3317 86.5865 53.7374 86.6015C52.846 86.6242 54.1569 88.8724 54.1569 96.4082C54.1569 103.944 53.7374 106.256 53.7374 106.256C54.2971 106.215 54.8561 106.175 55.4152 106.135C55.4143 106.131 57.6172 103.711 57.6184 96.2433Z" fill="#C33130"/>
<path d="M86.145 136.987C81.9925 137.28 77.8447 137.639 73.7012 138.065V79.102C77.8444 79.0809 81.9925 79.0628 86.145 79.0479V136.987Z" fill="#C33130"/>
<path d="M90.3672 79.0331C96.5631 79.0154 102.764 79.0046 108.971 79.001V85.8465C106.961 85.8499 104.952 85.856 102.944 85.8655V104.16C104.599 104.14 106.256 104.125 107.913 104.114V110.963C106.256 110.976 104.6 110.996 102.944 111.022V129.316C104.952 129.269 106.961 129.235 108.971 129.215V136.062C102.767 136.13 96.5658 136.348 90.3672 136.716V79.0331Z" fill="#C33130"/>
<path d="M133.709 114.79C134.271 114.809 134.835 114.829 135.398 114.85C134.236 105.744 132.123 92.6341 130.96 79.0202C135.258 79.03 139.552 79.0441 143.844 79.0615V137.249C138.568 136.829 133.287 136.519 128.001 136.317C126.522 122.172 123.561 109.128 121.763 100.63L120.074 100.617C121.342 109.595 123.351 122.599 124.514 136.2C120.215 136.074 115.915 136.02 111.613 136.038V79C116.9 79 122.187 79.0043 127.474 79.0132C129.059 93.0833 132.018 106.174 133.709 114.79Z" fill="#C33130"/>
<path d="M174.132 86.6367C174.096 102.246 174.061 117.852 174.026 133.455C174.026 137.52 170.048 140.216 165.216 139.546C159.509 138.772 153.791 138.125 148.061 137.607V79.0791C153.825 79.1066 159.578 79.1394 165.32 79.1779C170.152 79.1948 174.132 82.5715 174.132 86.6367ZM163.114 109.215C163.114 99.8311 161.012 86.3139 161.012 86.3304L159.224 86.2937C159.224 86.2903 159.645 99.6851 159.645 108.985C159.645 118.285 159.224 131.626 159.224 131.624C159.785 131.683 160.346 131.744 160.908 131.806C160.907 131.821 163.114 118.598 163.114 109.215Z" fill="#C33130"/>
<path d="M192.612 87.1053L190.634 87.0386C190.218 92.8293 189.802 99.5105 189.697 107.673C191.954 107.886 194.207 108.109 196.459 108.341C202.586 108.952 205.475 113.369 205.476 117.445V139.188C205.476 143.659 201.548 146.35 196.77 145.268C193.343 144.508 189.909 143.795 186.466 143.129C181.667 142.181 177.689 138.147 177.689 134.077V117.023C181.736 117.451 185.773 117.921 189.8 118.432C189.8 123.575 190.218 131.17 190.634 136.222C191.293 136.342 191.952 136.463 192.611 136.585C192.923 130.808 193.339 124.098 193.444 115.84C191.189 115.562 188.933 115.295 186.673 115.04C180.519 114.332 177.688 110.353 177.691 106.629V86.645C177.691 82.5774 181.668 79.235 186.467 79.2619C189.909 79.2943 193.343 79.3292 196.771 79.3665C201.549 79.3941 205.477 83.1135 205.477 87.5839V106.138C201.443 105.718 197.398 105.326 193.341 104.962C193.34 99.7575 192.924 92.116 192.612 87.1053Z" fill="#C33130"/>
</svg>
