<svg width="187" height="105" viewBox="0 0 187 105" fill="none" xmlns="http://www.w3.org/2000/svg">
<path d="M157.029 73.3537C153.132 73.2815 149.236 73.2356 145.342 73.2159C143.583 73.2093 142.534 73.3471 142.011 75.2428C141.886 75.6888 141.261 80.5624 141.288 80.5624C142.837 80.7297 144.616 81.343 146.125 80.8346C145.612 81.0511 144.987 87.4301 144.839 88.273C144.635 89.4274 144.034 91.1689 143.974 92.612C141.88 92.612 140.226 92.6776 139.759 92.6842C137.509 92.6514 135.26 92.6317 133.011 92.6153C133.258 91.5527 133.82 89.9686 133.422 88.9027C133.024 87.8433 131.949 88.3583 130.913 88.3583C130.446 88.3517 126.082 88.1123 126.003 88.3583C126.109 87.6761 126.214 86.9939 126.319 86.315C128.174 86.3052 130.581 86.7709 132.386 86.2822C133.55 85.9673 133.626 85.459 134.007 84.2652C134.221 83.5929 134.353 82.8221 134.044 82.2055C133.662 81.4447 132.754 81.202 131.946 81.2249C131.456 81.2348 127.286 81.8349 127.089 81.5168C126.793 81.0413 127.049 80.3591 127.496 80.0114C127.533 79.9819 127.569 79.959 127.608 79.9327C128.121 79.6179 128.739 79.6179 129.325 79.631C130.772 79.6605 132.222 79.6933 133.669 79.7294C134.047 79.7392 134.468 79.7327 134.757 79.4604C135.984 78.2929 135.967 75.105 135.684 73.5767C131.798 72.9568 127.855 73.5242 123.961 73.3045C121.094 73.1503 121.265 75.8036 120.949 78.1584C120.647 80.405 120.607 82.7073 120.426 84.9638C120.127 87.5186 119.864 90.0834 119.591 92.6415C118.174 92.6546 116.757 92.6678 115.339 92.6874C114.001 92.7071 112.659 92.7301 111.321 92.753C111.097 92.2119 110.861 91.674 110.647 91.1427C110.403 90.5294 109.249 88.637 109.381 88.0303C109.578 87.1382 112.12 85.951 112.794 84.7604C112.922 84.5308 113.041 84.2914 113.143 84.0389C114.448 80.8576 113.616 76.0692 110.38 74.7672C108.595 74.0457 106.586 74.1703 104.652 74.308C102.788 74.4425 100.923 74.5803 99.0586 74.7246C98.3516 74.7803 97.5788 74.8656 97.0724 75.3739C96.2405 76.207 96.6285 77.6173 96.5857 78.6438C96.4608 81.7661 95.9379 84.8621 95.5269 87.9483C95.3296 89.4274 94.4779 91.5658 94.6029 93.245C92.3799 93.3335 90.1603 93.4319 87.9373 93.5369C88.0722 93.2253 88.1741 92.8973 88.2333 92.5661C88.4207 91.5166 88.2793 90.4343 88.1379 89.375C85.6947 89.4701 83.2481 89.5783 80.8082 89.6964C80.8641 89.0634 80.9167 88.4337 80.9726 87.8007C82.5247 87.8237 86.4345 88.3091 87.6776 87.2169C88.6674 86.3478 89.131 83.3731 87.5131 83.0648C86.8061 82.9304 85.8328 83.1698 85.1093 83.2124C83.8565 83.2911 82.6036 83.3731 81.354 83.4584C81.4625 83.4518 81.4001 81.7333 81.5217 81.7169C82.7055 81.6349 83.8926 81.5529 85.0764 81.4742C85.8755 81.4217 87.8485 81.671 88.5161 81.2512C89.5486 80.6051 90.1636 76.2923 89.1869 75.5642C88.3714 74.9541 85.5927 75.6232 84.5964 75.6855C82.791 75.8036 80.989 75.9512 79.1837 75.9282C78.1183 75.9151 76.9509 75.9151 76.1124 76.5776C75.1949 77.3024 74.9976 78.5716 75.0206 79.7064C75.1094 84.2914 74.2183 89.0732 73.6527 93.6156C73.6231 93.8517 73.6001 94.0977 73.6033 94.3371C67.9737 94.6979 62.3538 95.1111 56.7406 95.5801C56.836 94.7241 56.9346 92.6415 56.8425 92.6448C58.7498 92.5923 60.6768 92.5464 62.5182 92.0676C66.3788 91.0706 68.411 87.7515 68.2203 83.9143C68.1052 81.6086 66.9181 79.444 64.9845 78.3945C64.0375 77.8796 62.9129 77.6337 61.6534 77.7648C59.779 77.9387 51.5417 77.8272 51.1537 79.6802C50.519 82.6844 50.5486 85.7378 50.5716 88.7682C50.5913 91.2444 50.3447 93.6943 50.2461 96.1442C47.0333 96.4329 43.8206 96.7379 40.6112 97.0593C41.716 95.9343 42.5348 94.5372 43.0248 93.0548C43.9225 90.3523 43.5378 87.6662 43.6529 84.9146C43.7055 83.6748 44.6953 80.9855 43.6529 80.0278C42.7782 79.2276 40.8841 79.8606 39.8252 80.077C38.7631 80.2968 37.5793 80.6838 37.3195 81.7759C36.7013 84.3636 37.0959 87.499 36.9939 90.1358C36.9644 90.8771 36.9315 91.6445 36.5533 92.3004C36.1784 92.9564 35.3563 93.4516 34.5836 93.2581C33.5116 92.9859 33.2617 91.7167 33.2386 90.6967C33.1959 88.9388 33.2156 87.1743 33.2978 85.4131C33.3373 84.544 33.9423 82.2646 33.3406 81.5201C32.7552 80.7953 31.1078 81.3167 30.2857 81.4119C29.2301 81.5365 27.6155 81.7005 27.0828 82.7008C26.4416 83.911 26.7277 85.8165 26.6487 87.1382C26.56 88.7026 26.5205 90.2736 26.6948 91.8249C26.9546 94.124 27.7339 96.6821 29.7727 98.2105C26.2509 98.604 22.7323 99.0173 19.217 99.4469C19.4275 99.1747 19.6182 98.8893 19.7859 98.5811C20.3778 97.4889 20.562 96.223 20.3351 94.7897C20.118 93.4221 19.5656 92.4054 18.6777 91.7462C17.7866 91.0902 16.5633 90.7655 15.0112 90.7787C14.393 90.7787 13.7781 90.7852 13.1599 90.7885C12.6469 90.7951 12.2917 90.7491 12.0944 90.6508C11.8971 90.5524 11.782 90.4113 11.7492 90.2244C11.6965 89.9194 11.8248 89.6832 12.1372 89.516C12.4496 89.3487 12.956 89.2077 13.6531 89.1027C14.3766 88.9912 15.1263 88.9551 15.9024 88.9978C16.6784 89.0371 17.392 89.1355 18.0398 89.2864C19.6116 89.657 19.5229 89.3618 19.7234 87.9483C20.0457 85.6853 19.6643 84.8785 17.1881 84.239C15.1921 83.724 12.9856 83.7634 10.9665 84.3636C7.03363 85.5344 4.19906 88.2697 4.86002 91.7954C5.2908 94.0912 7.72419 95.8261 10.4634 95.754C11.1079 95.7376 11.7722 95.6228 12.3904 95.7802C14.7481 96.3837 12.1832 97.5971 11.0389 97.6791C9.31905 97.7972 5.91888 96.0852 4.62655 97.5479C3.54468 98.7713 5.03102 100.66 6.23785 101.503C5.70513 101.756 5.30724 102.071 5.18228 102.467C4.71205 103.966 6.95143 104.311 8.19114 104.143C24.4258 101.917 40.746 100.139 57.1451 98.85C57.2897 98.8401 57.4377 98.827 57.5824 98.8172C89.3776 96.3345 121.459 95.6293 153.701 96.8395C154.481 96.8691 155.424 96.7739 155.99 96.2557C156.191 96.0721 156.345 95.8327 156.427 95.5277C156.835 93.9895 154.116 93.245 150.748 92.8973C151.485 89.1159 152.623 81.7497 152.741 80.8379C154.796 80.5952 156.059 82.2613 157.236 80.569C158.147 79.2637 158.496 77.5582 158.736 75.984C159.088 73.6947 159.157 73.3963 156.993 73.3537H157.029ZM57.3489 84.6522C57.5462 83.583 57.2897 83.5535 58.5064 83.3272C59.8119 83.0812 61.2752 83.6224 61.3969 85.0064C61.4726 85.846 61.3147 86.4265 60.8215 86.9021C60.6669 87.0497 60.4827 87.1874 60.2624 87.3186C60.0158 87.4662 57.1714 88.1648 57.1878 87.8794C57.2404 86.8299 57.1615 85.6853 57.3489 84.6489V84.6522ZM102.949 80.3952C103.689 80.3624 104.425 80.3296 105.165 80.3C105.685 80.2771 106.086 80.4312 106.375 80.7592C106.661 81.0872 106.809 81.5332 106.822 82.0908C106.855 83.6617 106.106 84.4718 104.576 84.5276C103.863 84.5538 103.149 84.58 102.432 84.6063C102.603 83.2026 102.774 81.7989 102.949 80.3952ZM101.693 90.6639C101.834 89.5521 102.301 88.0565 102.173 86.948C102.383 88.7354 102.758 91.2542 103.807 92.9334C103.054 92.9531 102.301 92.9728 101.548 92.9957C101.633 92.1561 101.62 91.2149 101.693 90.6639Z" fill="#C33130"/>
<path d="M29.4046 54.2034V43.7478C29.4046 35.8404 26.6193 33.1183 21.3843 30.8323C26.6193 28.5497 29.4046 25.8243 29.4046 17.9169V7.46125C29.4046 3.42723 23.3902 0.088501 18.2669 0.088501H0V61.586H18.2669C23.3902 61.586 29.4046 58.2473 29.4046 54.2067V54.2034ZM14.1466 54.2034H11.3482V34.5253H14.0348C14.0348 34.5253 17.8986 36.8079 17.8986 44.3644C17.8986 51.9208 14.1466 54.2034 14.1466 54.2034ZM14.0348 27.146H11.3482V7.46781H14.1466C14.1466 7.46781 17.8986 9.75048 17.8986 17.3069C17.8986 24.8633 14.0348 27.146 14.0348 27.146Z" fill="#C33130"/>
<path d="M50.6122 34.5253H55.6368L55.183 61.5828H68.4384C68.4384 61.5828 66.2155 7.73024 64.545 0H41.5987C40.0401 7.73024 37.8105 61.5861 37.8105 61.5861H51.066L50.6122 34.5286V34.5253ZM52.0656 7.37931H54.1833C54.6273 12.9154 55.5283 19.3272 55.5283 27.146H50.6122C50.724 19.3272 51.5099 12.9154 52.0656 7.37931Z" fill="#C33130"/>
<path d="M101.791 61.586L109.321 0.088501H96.2007L94.6716 30.7504C94.6716 40.3271 92.6756 47.7949 92.1199 54.2067H91.9423C91.3866 47.7949 89.3905 40.3271 89.3905 30.7504L87.8647 0.088501H74.7441L82.1627 61.586H101.791Z" fill="#C33130"/>
<path d="M137.834 54.2034H131.485V34.5843H135.75V27.205H131.485V7.46781H137.834V0.088501H118.232V61.586H137.834V54.2034Z" fill="#C33130"/>
<path d="M145.316 7.46781H151.219V61.586H164.474V7.46781H170.489V0.088501H145.316V7.46781Z" fill="#C33130"/>
<path d="M181.001 0C177.887 0 175.631 2.3089 175.631 5.25407C175.631 8.19923 177.887 10.4819 181.001 10.4819C184.115 10.4819 186.358 8.20251 186.358 5.25407C186.358 2.30562 184.131 0 181.001 0ZM181.001 9.3996C178.472 9.3996 176.874 7.4777 176.874 5.25407C176.874 3.03044 178.472 1.0823 181.001 1.0823C183.53 1.0823 185.098 3.03372 185.098 5.25407C185.098 7.47442 183.526 9.3996 181.001 9.3996Z" fill="#C33130"/>
<path d="M183.159 4.20457C183.159 3.25674 182.479 2.71887 181.153 2.71887H179.184V7.40883H180.413V5.70011H180.93L181.867 7.40883H183.334L182.173 5.50333C182.735 5.31639 183.159 4.87035 183.159 4.20457ZM181.153 4.78836H180.413V3.68966H181.186C181.597 3.68966 181.867 3.88972 181.867 4.22753C181.867 4.62437 181.574 4.78836 181.15 4.78836H181.153Z" fill="#C33130"/>
</svg>
