<svg width="187" height="101" viewBox="0 0 187 101" fill="none" xmlns="http://www.w3.org/2000/svg">
<path d="M35.1596 82.2258C35.1431 82.2982 32.6254 81.9264 32.4274 81.8903C31.5959 81.7422 31.5101 81.4231 31.5695 80.8902C31.619 80.4461 31.6685 80.002 31.7147 79.5612C31.7444 79.2881 31.7675 78.9953 31.5365 78.7683C30.9855 78.219 29.4643 77.9295 28.7746 78.5183C28.3523 78.8769 28.3127 79.3572 28.2863 79.8046C28.1411 82.5317 28.1708 85.2786 27.7385 87.9959C27.6461 88.5749 27.5372 89.1835 27.8837 89.7263C28.1939 90.2099 28.9627 90.6178 29.8338 90.5092C30.8997 90.3744 31.19 89.6539 31.1636 89.0618C31.1372 88.5025 30.9228 87.9235 31.2065 87.3906C32.4242 87.5156 33.6418 87.6406 34.8594 87.7656C34.5624 88.6078 34.8231 89.4862 34.7868 90.3481C34.7505 91.21 34.3017 92.1672 33.094 92.5752C32.213 92.8712 31.1405 92.8022 30.1704 92.6508C28.2368 92.3515 26.2503 92.4337 24.8941 91.3481C23.9174 90.5685 23.9867 89.6901 24.0494 88.7558C24.2969 85.1438 24.5543 81.5383 24.8644 77.9295C24.9139 77.3472 24.9865 76.6531 25.5871 76.1728C26.3427 75.5708 27.4778 75.7418 28.504 75.9195C29.5171 76.0938 30.5664 76.1794 31.5794 76.3504C33.0247 76.5971 34.5459 77.1498 35.087 78.0874C35.7734 79.2684 35.4071 80.9988 35.1596 82.2258Z" fill="#C33130"/>
<path d="M43.7919 87.861C43.8711 87.9531 43.9965 88.0321 44.1945 88.0847C44.7422 88.2295 45.6167 88.0716 46.1809 88.0222C46.7782 87.9663 46.9894 87.9827 47.0323 87.5913C47.0653 87.2952 46.8244 86.9794 46.7716 86.6866C46.6957 86.282 46.6198 85.8806 46.5439 85.476C46.237 83.8344 45.8576 82.1896 45.6992 80.5415C45.0722 82.6699 44.4486 84.7983 43.8216 86.9235C43.7292 87.2393 43.5807 87.6077 43.7919 87.861ZM48.0453 93.3449C47.5833 93.2397 47.7285 92.1113 47.7186 91.8843C47.6955 91.3119 48.141 90.1638 46.8871 90.1473C45.7322 90.1309 44.5806 90.1145 43.4256 90.1013C43.3003 90.1013 43.165 90.1013 43.0561 90.1375C42.67 90.2691 42.6238 91.4336 42.5578 91.7001C42.4621 92.0817 42.3829 92.4666 42.274 92.8482C42.0991 93.4798 41.8187 93.3384 40.8551 93.3087C40.3206 93.2923 39.786 93.2791 39.2548 93.2594C38.443 93.2265 38.4628 93.2298 38.6113 92.7265C38.8291 91.9863 39.0766 91.2494 39.3109 90.5125C39.3109 89.8579 39.7596 89.1012 39.9576 88.4565C40.6769 86.1208 41.3831 83.7851 42.0991 81.4494C42.274 80.8803 42.4456 80.3145 42.6205 79.7486C42.7888 79.1993 42.8119 78.4525 43.1782 77.9459C43.4289 77.5972 43.2409 77.6926 43.8612 77.663C45.0491 77.6103 46.3822 77.788 47.5767 77.8308C47.7417 77.8373 47.9166 77.8439 48.0552 77.8998C48.7118 78.1531 48.6359 79.6434 48.7382 80.0908C48.9329 80.9757 49.1309 81.8573 49.3256 82.7423C49.484 83.4627 51.3648 93.266 51.774 93.2495C50.5333 93.2956 49.2926 93.3285 48.0486 93.3515" fill="#C33130"/>
<path d="M59.4129 92.8251C59.403 93.0093 57.5287 93.0587 57.3109 93.0619C55.9844 93.085 56.1131 92.427 56.1461 91.7165C56.2649 88.9498 56.3738 86.1865 56.4794 83.4199C56.5322 82.0185 56.585 80.6203 56.6345 79.2189C56.6543 78.6761 56.3672 78.1004 57.2581 77.9294C58.2349 77.7386 59.6306 77.8504 60.6437 77.8669C60.8945 77.8702 61.9867 81.6566 62.122 82.0349C62.6565 83.5317 63.1977 85.0252 63.7487 86.5187C64.346 85.0285 64.9432 83.5416 65.5405 82.0513C66.1213 80.6006 66.471 78.9656 67.3587 77.5807C67.9592 77.607 68.5631 77.5807 69.1603 77.5445C70.203 77.482 71.259 77.0708 71.2095 78.0116C71.1666 78.811 71.1666 79.6104 71.1633 80.4098C71.1534 81.8342 71.1831 83.2587 71.1567 84.6831C71.1336 85.9167 71.1138 87.1471 71.0907 88.3807C71.0808 88.9959 71.0676 89.6143 71.0577 90.2295C71.0511 90.5289 71.3217 91.6079 70.8993 91.7888C70.7805 91.8382 70.632 91.8546 70.4934 91.8678C69.619 91.95 68.7347 92.0685 67.8503 92.1013C67.4049 90.4927 67.8899 88.6472 67.8899 87.0089C67.8899 85.3706 68.0945 83.7488 67.9955 82.1171C67.9955 82.8343 67.4741 83.8607 67.0155 84.5088C66.6591 85.4364 66.2994 86.3641 65.9431 87.2918C65.689 87.9498 65.7253 88.9827 64.6199 89.213C63.9764 89.3479 62.5806 89.5749 62.0824 89.1669C61.8316 88.9597 61.8118 88.4465 61.7227 88.1932C61.5808 87.7919 61.4422 87.3938 61.3036 86.9925C60.779 85.4595 60.2774 83.9199 59.7461 82.3869C59.9804 83.0514 59.69 83.9627 59.6669 84.6436C59.6373 85.5647 59.6076 86.4859 59.5779 87.4037C59.5185 89.2097 59.4624 91.0158 59.403 92.8251" fill="#C33130"/>
<path d="M77.1386 77.1201C77.9932 76.7517 79.6695 76.8273 80.6495 76.7944C80.1348 76.9096 80.6495 79.4262 80.6726 79.765C80.9366 83.206 80.9069 86.6767 80.6858 90.121C80.6561 90.5651 80.7716 90.6013 80.2437 90.7493C79.884 90.8513 79.3329 90.8447 78.9436 90.8842C78.2968 90.9533 77.5643 91.075 76.9307 91.0816C76.6172 89.1834 76.9175 87.1899 76.9472 85.2851C76.9703 83.6403 76.9967 81.9954 77.0231 80.3506C77.033 79.7584 77.0429 79.1729 76.967 78.584C76.9175 78.1761 76.6931 77.5609 77.0429 77.1826C77.0627 77.1596 77.0957 77.1398 77.1419 77.1201" fill="#C33130"/>
<path d="M93.4985 86.7918C93.515 86.5747 93.4655 86.3345 93.4655 86.1043C93.4589 85.318 93.4523 84.5318 93.4457 83.7489C93.4358 82.4527 93.4259 81.1533 93.416 79.8572C93.416 79.3736 93.8581 77.7287 92.4821 77.8241C90.8983 77.936 89.8489 77.9557 89.8687 79.1433C89.9116 81.7093 89.9446 84.2719 89.9611 86.8379C89.9611 87.0122 89.9644 87.1932 90.0964 87.3478C90.2977 87.5813 90.7597 87.6899 91.1853 87.6735C92.0631 87.6406 93.449 87.4498 93.4952 86.7951M89.6939 76.1563C90.8785 75.9556 92.2479 75.8799 93.4754 75.8668C94.5115 75.8569 95.6235 76.0148 96.3165 76.5017C96.9632 76.9589 96.9962 77.505 96.983 78.0807C96.9632 78.8933 97.0325 79.7124 97.0556 80.5283C97.1051 82.1599 97.1513 83.7916 97.2008 85.42C97.2371 86.6339 97.28 88.0912 95.4387 88.8183C94.2772 89.2755 92.9243 89.4926 91.5747 89.588C90.1327 89.69 87.4797 90.0848 86.6944 89.0124C86.2126 88.3544 86.2654 87.305 86.2159 86.5879C86.0971 84.9167 86.0542 83.239 86.1103 81.5645C86.14 80.7256 86.1961 79.8868 86.2786 79.0512C86.3512 78.3538 86.2027 77.459 86.9881 76.903C87.5754 76.4885 88.8161 76.301 89.6477 76.1563C89.6642 76.1563 89.6774 76.1497 89.6939 76.1497" fill="#C33130"/>
<path d="M110.115 75.2055V75.1923C110.115 75.1923 111.719 75.1891 111.91 75.1759C112.386 75.1496 112.98 75.0312 113.263 75.4259C113.412 75.6332 113.428 75.8799 113.438 76.12C113.531 77.9919 113.623 79.8637 113.715 81.7355C113.808 83.5942 114.224 85.6667 113.976 87.4991C113.075 87.4037 112.181 87.8905 111.293 87.7392C110.445 87.5912 109.993 86.8971 109.67 86.3214C108.419 84.1008 107.169 81.877 105.915 79.6565C105.987 82.1764 106.044 84.6963 106.166 87.2129C106.225 88.4761 103.839 88.2656 102.806 88.282C102.509 88.282 102.434 78.2518 102.417 77.2977C102.41 76.824 102.242 76.1793 102.41 75.745C102.566 75.3535 102.401 75.5542 102.905 75.4095C103.499 75.2384 104.288 75.245 104.912 75.2252C106.027 75.1891 105.938 75.4029 106.4 76.222C107.096 77.3701 107.7 78.5511 108.32 79.7255C108.871 80.7651 109.38 82.2586 110.33 83.0975C110.647 81.9527 110.284 80.4493 110.244 79.2683C110.198 77.9162 110.145 76.5609 110.112 75.2088" fill="#C33130"/>
<path d="M123.365 85.5878C123.708 85.9037 125.21 85.7359 125.668 85.7425C126.744 85.7622 127.816 85.7852 128.892 85.805C129.549 85.8181 129.595 86.6372 129.539 87.009C129.45 87.6307 128.688 87.3972 128.018 87.3906C127.094 87.384 126.167 87.3741 125.243 87.3676C124.16 87.3577 123.081 87.3478 121.999 87.3412C120.884 87.3314 119.801 87.7294 119.613 86.6307C119.409 85.4266 119.425 84.1667 119.353 82.9528C119.207 80.6336 118.828 78.1762 119.039 75.8602C119.095 75.2352 119.27 75.2812 120.088 75.2582C120.762 75.2418 121.438 75.2582 122.111 75.2944C123.461 75.3602 124.804 75.4852 126.153 75.551C126.622 75.5707 127.1 75.5905 127.543 75.7122C127.988 75.8339 128.4 76.0774 128.575 76.4228C129.522 78.2979 123.603 76.9623 122.732 77.061C122.722 77.9459 122.821 78.8571 122.867 79.7486C122.873 79.9131 122.89 80.0875 123.015 80.2191C123.197 80.4066 123.537 80.4296 123.837 80.4329C124.731 80.4526 125.629 80.4724 126.523 80.4888C126.85 80.4954 127.189 80.5053 127.467 80.6402C128.087 80.9428 128.044 81.6567 127.925 82.2258C126.305 82.1731 124.685 82.1172 123.065 82.0646L123.187 84.1897C123.203 84.5055 123.124 84.9562 123.246 85.2556C123.339 85.4793 123.329 85.5517 123.362 85.5846" fill="#C33130"/>
<path d="M142.364 77.9985C142.849 78.4163 142.941 79.2716 142.281 79.3933C141.496 79.538 140.582 78.89 139.806 78.959C138.754 79.0512 139.344 80.8309 139.397 81.4822C139.529 83.1633 139.688 84.841 139.876 86.5187C139.922 86.9431 140.338 87.6668 140.064 88.0715C139.674 88.6472 138.034 88.2064 137.351 88.1406C137.127 88.1208 136.896 88.0978 136.701 88.0024C136.441 87.8741 136.299 87.6307 136.263 87.3872C135.824 84.387 135.771 81.2618 135.494 78.232C134.566 78.1004 133.61 78.0281 132.689 77.8702C132.019 77.755 132.174 77.857 131.993 77.3932C131.861 77.0543 131.933 76.5674 131.91 76.2122C131.92 76.3306 136.137 76.8767 136.497 76.9359C137.856 77.1563 139.216 77.3767 140.575 77.5971C141.196 77.6991 141.875 77.6004 142.337 77.9721C142.347 77.9787 142.354 77.9853 142.364 77.9919" fill="#C33130"/>
<path d="M30.2126 100.214C29.7704 99.9506 29.5493 99.5789 29.6483 99.1315C30.9583 99.5196 32.3838 99.3683 33.7136 99.4736C37.2411 99.7401 40.7619 99.9013 44.2893 99.9276C54.4229 100.036 64.5597 98.842 74.6965 97.3188C94.825 93.9206 114.841 92.5225 134.95 92.2297C135.867 92.1573 137.121 92.4008 137.148 93.5489C137.174 94.6575 135.996 94.8878 135.102 94.822C108.407 91.9665 81.7052 100.069 55.0201 100.839C50.4962 100.984 45.9755 100.964 41.4548 100.908C38.495 100.681 32.8821 101.602 30.2159 100.214" fill="#C33130"/>
<path d="M18.3301 0.0888672H0V61.7738H18.3301C23.4711 61.7738 29.5063 58.4249 29.5063 54.372V43.8845C29.5063 35.953 26.7115 33.2226 21.4583 30.9297C26.7115 28.6401 29.5063 25.9063 29.5063 17.9749V7.48738C29.5063 3.43777 23.4711 0.0888672 18.3301 0.0888672ZM14.1955 54.372H11.3874V34.6339H14.0833C14.0833 34.6339 17.9605 36.9235 17.9605 44.5029C17.9605 52.0824 14.1955 54.372 14.1955 54.372ZM14.0833 27.2321H11.3874V7.49067H14.1955C14.1955 7.49067 17.9605 9.78029 17.9605 17.3597C17.9605 24.9392 14.0833 27.2288 14.0833 27.2288V27.2321Z" fill="#C33130"/>
<path d="M41.7427 0C40.1786 7.75379 37.9414 61.7738 37.9414 61.7738H51.2427L50.7873 34.6338H55.8293L55.374 61.7738H68.6752C68.6752 61.7738 66.4446 7.75379 64.7683 0H41.7427ZM50.7906 27.2287C50.9028 19.3861 51.6915 12.9548 52.2491 7.4018H54.3741C54.8196 12.9548 55.7237 19.3861 55.7237 27.2287H50.7906Z" fill="#C33130"/>
<path d="M95.0004 30.8409C95.0004 40.4468 92.9974 47.9374 92.4398 54.3687H92.2616C91.7039 47.9374 89.701 40.4468 89.701 30.8409L88.1699 0.0888672H75.0039L82.4481 61.7738H102.144L109.701 0.0888672H96.5348L95.0004 30.8442V30.8409Z" fill="#C33130"/>
<path d="M118.643 61.7738H138.312V54.3687H131.941V34.6898H136.22V27.288H131.941V7.49067H138.312V0.0888672H118.643V61.7738Z" fill="#C33130"/>
<path d="M145.818 7.49067H151.741V61.7738H165.043V7.49067H171.078V0.0888672H145.818V7.49067Z" fill="#C33130"/>
<path d="M181.629 0C178.504 0 176.24 2.31594 176.24 5.27008C176.24 8.22422 178.504 10.5138 181.629 10.5138C184.754 10.5138 187.004 8.22751 187.004 5.27008C187.004 2.31265 184.77 0 181.629 0ZM181.629 9.42825C179.091 9.42825 177.488 7.50049 177.488 5.27008C177.488 3.03967 179.091 1.0856 181.629 1.0856C184.166 1.0856 185.74 3.04296 185.74 5.27008C185.74 7.4972 184.163 9.42825 181.629 9.42825Z" fill="#C33130"/>
<path d="M183.794 4.2174C183.794 3.26668 183.111 2.72717 181.781 2.72717H179.805V7.43143H181.039V5.7175H181.557L182.497 7.43143H183.969L182.804 5.52012C183.368 5.33261 183.794 4.88521 183.794 4.2174ZM181.781 4.80297H181.039V3.70092H181.814C182.227 3.70092 182.497 3.90159 182.497 4.24043C182.497 4.63848 182.204 4.80297 181.778 4.80297H181.781Z" fill="#C33130"/>
</svg>
