<svg width="187" height="79" viewBox="0 0 187 79" fill="none" xmlns="http://www.w3.org/2000/svg">
<path d="M18.3329 0.0927734H0V61.9911H18.3329C23.4781 61.9911 29.51 58.6285 29.51 54.5645V44.0436C29.51 36.091 26.7158 33.3472 21.4675 31.0471C26.7158 28.7469 29.51 26.0032 29.51 18.0506V7.51933C29.51 3.44504 23.4678 0.0927734 18.3329 0.0927734ZM14.1982 54.5645H11.3936V34.7604H14.0848C14.0848 34.7604 17.9617 37.0605 17.9617 44.6624C17.9617 52.2643 14.1982 54.5645 14.1982 54.5645ZM14.0848 27.3338H11.3936V7.51933H14.1982C14.1982 7.51933 17.9617 9.8195 17.9617 17.4214C17.9617 25.0233 14.0848 27.3235 14.0848 27.3235V27.3338Z" fill="#C33130"/>
<path d="M41.7383 0C40.1711 7.77726 37.9336 61.9808 37.9336 61.9808H51.2348L50.7811 34.7501H55.8231L55.3695 61.9808H68.6706C68.6706 61.9808 66.4332 7.77726 64.7628 0H41.7383ZM50.7811 27.3235C50.8945 19.4535 51.6781 12.9965 52.2452 7.42656H54.3693C54.8127 12.9965 55.72 19.4535 55.72 27.3235H50.7914H50.7811Z" fill="#C33130"/>
<path d="M94.9949 30.9439C94.9949 40.5778 92.9946 48.0972 92.4378 54.5542H92.2625C91.7057 48.0972 89.7054 40.5881 89.7054 30.9439L88.1691 0.0927734H75.002L82.4465 61.9911H102.14L109.698 0.0927734H96.5313L94.9949 30.9542V30.9439Z" fill="#C33130"/>
<path d="M118.639 61.9807H138.312V54.5542H131.94V34.8119H136.219V27.3854H131.94V7.51933H138.312V0.0927734H118.639V61.9807Z" fill="#C33130"/>
<path d="M145.818 7.51933H151.737V61.9807H165.038V7.51933H171.08V0.0927734H145.818V7.51933Z" fill="#C33130"/>
<path d="M181.627 0C178.503 0 176.234 2.3208 176.234 5.29142C176.234 8.26205 178.503 10.5519 181.627 10.5519C184.751 10.5519 186.999 8.26205 186.999 5.29142C186.999 2.3208 184.762 0 181.627 0ZM181.627 9.45855C179.091 9.45855 177.482 7.51939 177.482 5.29142C177.482 3.06346 179.091 1.09335 181.627 1.09335C184.164 1.09335 185.741 3.05314 185.741 5.29142C185.741 7.5297 184.164 9.45855 181.627 9.45855Z" fill="#C33130"/>
<path d="M183.793 4.22902C183.793 3.28008 183.113 2.7334 181.782 2.7334H179.803V7.45751H181.04V5.73497H181.556L182.494 7.45751H183.968L182.803 5.53899C183.37 5.35332 183.793 4.89948 183.793 4.22902ZM181.782 4.81696H181.04V3.71329H181.813C182.226 3.71329 182.494 3.90927 182.494 4.25997C182.494 4.66224 182.195 4.82727 181.772 4.82727L181.782 4.81696Z" fill="#C33130"/>
<path d="M124.535 70.5419L126.598 78.7317H123.607L122.226 72.9452L121.855 73.3371L120.927 78.742H118.143L120.308 66.0034H123.092L122.494 69.5723L125.979 66.0034H128.969L124.535 70.5522V70.5419Z" fill="#C33130"/>
<path d="M128.475 78.7215L130.64 65.9829H133.424L131.259 78.7215H128.475Z" fill="#C33130"/>
<path d="M135.383 78.2882C134.795 77.8138 134.496 77.1949 134.496 76.411C134.496 76.1634 134.506 75.9777 134.537 75.854L135.733 68.8606C135.898 67.9117 136.373 67.1484 137.156 66.5811C137.94 66.0138 138.909 65.725 140.064 65.725C141.095 65.725 141.91 65.9622 142.508 66.4264C143.106 66.8905 143.405 67.5197 143.405 68.314C143.405 68.5615 143.394 68.7472 143.364 68.8709L142.167 75.8643C142.002 76.8132 141.528 77.5765 140.734 78.1438C139.94 78.7111 138.971 78.9999 137.816 78.9999C136.785 78.9999 135.971 78.7627 135.383 78.2986V78.2882ZM139.002 76.4729C139.219 76.3181 139.342 76.1118 139.383 75.854L140.58 68.8606C140.621 68.6028 140.559 68.3965 140.404 68.2418C140.25 68.087 140.012 68.0148 139.693 68.0148C139.373 68.0148 139.095 68.0974 138.889 68.2418C138.682 68.3965 138.559 68.6028 138.517 68.8606L137.321 75.854C137.28 76.1118 137.332 76.3181 137.486 76.4729C137.641 76.6276 137.878 76.6998 138.208 76.6998C138.538 76.6998 138.785 76.6173 139.002 76.4729Z" fill="#C33130"/>
<path d="M145.292 78.2986C144.694 77.8344 144.395 77.2155 144.395 76.4316C144.395 76.2459 144.415 76.0603 144.456 75.854L144.58 75.1732H147.364L147.24 75.854L147.22 76.019C147.22 76.2253 147.292 76.3903 147.447 76.5141C147.601 76.6379 147.828 76.6998 148.127 76.6998C148.447 76.6998 148.705 76.6173 148.921 76.4729C149.138 76.3181 149.261 76.1118 149.303 75.854L149.529 74.544C149.571 74.2861 149.519 74.0799 149.364 73.9251C149.21 73.7704 148.973 73.6982 148.643 73.6982C147.612 73.6982 146.797 73.4713 146.209 73.0071C145.622 72.5533 145.323 71.9138 145.323 71.1092C145.323 70.872 145.333 70.6863 145.364 70.5522L145.652 68.8503C145.807 67.9117 146.271 67.1484 147.055 66.5708C147.838 65.9932 148.818 65.7043 149.983 65.7043C151.014 65.7043 151.829 65.9416 152.437 66.4057C153.045 66.8699 153.344 67.4888 153.344 68.2727C153.344 68.4584 153.324 68.644 153.283 68.8503L153.159 69.5311H150.375L150.499 68.8503C150.499 68.8503 150.519 68.7575 150.519 68.6853C150.519 68.4687 150.437 68.3036 150.272 68.1799C150.107 68.0561 149.89 68.0045 149.612 68.0045C149.282 68.0045 149.014 68.087 148.808 68.2314C148.601 68.3862 148.478 68.5925 148.436 68.8503L148.148 70.5522C148.106 70.8101 148.158 71.0164 148.313 71.1711C148.467 71.3258 148.705 71.398 149.034 71.398C150.066 71.398 150.88 71.6353 151.468 72.0994C152.056 72.5636 152.355 73.1928 152.355 73.9767C152.355 74.2243 152.344 74.4099 152.313 74.5337L152.087 75.8437C151.922 76.7926 151.447 77.5559 150.653 78.1232C149.859 78.6905 148.89 78.9793 147.735 78.9793C146.704 78.9793 145.89 78.7421 145.292 78.2779V78.2986Z" fill="#C33130"/>
<path d="M160.449 70.5419L162.512 78.7317H159.521L158.14 72.9452L157.769 73.3371L156.841 78.742H154.057L156.222 66.0034H159.006L158.408 69.5723L161.893 66.0034H164.883L160.449 70.5522V70.5419Z" fill="#C33130"/>
</svg>
