<svg width="187" height="110" viewBox="0 0 187 110" fill="none" xmlns="http://www.w3.org/2000/svg">
<path d="M60.936 86.6337C60.9459 86.4754 60.9195 86.3304 60.8568 86.1985C60.8436 86.393 60.8271 86.5875 60.8139 86.7821C60.8007 86.9766 60.7974 87.1876 60.8139 87.4151C60.8766 87.4052 60.9063 87.392 60.903 87.3755C60.903 87.3591 60.9195 87.3459 60.9624 87.3393C60.969 87.3722 60.969 87.4217 60.969 87.4843C60.969 87.547 60.9789 87.5931 61.0053 87.6228C61.0284 87.4975 61.0515 87.3623 61.0746 87.2173C61.0977 87.0755 61.0878 86.9337 61.0449 86.8018C61.0581 86.8876 61.0449 86.9667 61.0152 87.0425C60.9558 86.9304 60.9294 86.792 60.9393 86.6337H60.936Z" fill="#C33130"/>
<path d="M61.0386 86.8019C61.0551 86.7657 61.0584 86.7129 61.0485 86.6437C61.0419 86.6635 61.032 86.6799 61.0254 86.6997C61.032 86.7327 61.0353 86.769 61.0419 86.8019H61.0386Z" fill="#C33130"/>
<path d="M60.9795 86.0633C61.0125 86.2084 61.0388 86.3469 61.0586 86.4854C61.0685 86.5546 61.0652 86.6073 61.0487 86.6436C61.1114 86.4952 61.1312 86.3271 61.1048 86.1491C61.0784 85.9677 61.0718 85.7897 61.0916 85.6116C61.1312 85.5886 61.1609 85.5622 61.1774 85.5325C61.1939 85.5028 61.1807 85.483 61.1378 85.4732C61.1378 85.4896 61.1312 85.4995 61.1114 85.5028C61.1114 85.3611 61.0949 85.2127 61.0619 85.0511C61.0257 84.8896 61.0355 84.7544 61.0817 84.639C61.0553 84.6093 61.0157 84.5566 60.963 84.4873C60.9366 84.4544 60.9201 84.4214 60.9102 84.395C60.93 84.8072 60.9498 85.2193 60.9696 85.6281C60.9465 85.7732 60.9531 85.915 60.9861 86.06L60.9795 86.0633Z" fill="#C33130"/>
<path d="M60.9141 87.8998C60.9141 87.8998 60.9141 87.9167 60.9175 87.9269C60.9378 87.9269 60.9378 87.9133 60.9141 87.8998Z" fill="#C33130"/>
<path d="M60.9058 84.3983C60.9058 84.3753 60.9058 84.3522 60.9025 84.3258C60.8926 84.3456 60.8959 84.3687 60.9058 84.3983Z" fill="#C33130"/>
<path d="M64.1107 82.2552C64.1338 82.2783 64.1569 82.2717 64.1734 82.2321C64.1503 82.2321 64.1404 82.2288 64.1371 82.2123C64.1338 82.1794 64.1404 82.1596 64.1635 82.1563C64.1272 82.0574 64.0546 82.0013 63.9458 81.9881C63.8336 81.9783 63.7445 81.9486 63.6719 81.9057C63.6917 81.9057 63.7214 81.8991 63.7511 81.8958C63.7841 81.8925 63.7742 81.876 63.728 81.8464C63.6191 81.8464 63.5432 81.8497 63.5003 81.8629C63.4574 81.876 63.3815 81.8629 63.266 81.8299C63.4442 81.8398 63.6653 81.82 63.9293 81.7639C64.1965 81.7112 64.3912 81.7376 64.5133 81.8431C64.4869 81.8101 64.444 81.787 64.3879 81.7672C64.3318 81.7475 64.3219 81.7178 64.3615 81.6782C64.4704 81.6782 64.5331 81.7079 64.5529 81.7573C64.5694 81.8068 64.6024 81.8398 64.6453 81.8497C64.6189 81.8167 64.5925 81.7837 64.5661 81.7409C64.5397 81.7013 64.543 81.6518 64.5793 81.5958C64.6222 81.5892 64.6585 81.5826 64.6915 81.5694C64.7212 81.5562 64.7476 81.5496 64.7707 81.5463C64.7707 81.52 64.7641 81.4936 64.7608 81.4705C64.3912 81.4837 64.0678 81.5002 63.7973 81.52C63.5267 81.5397 63.2594 81.5661 63.002 81.6024C62.7447 81.6387 62.4642 81.6848 62.1672 81.7475C61.8669 81.8068 61.5171 81.876 61.1113 81.9552C61.1014 81.7475 61.0651 81.4969 61.0024 81.21C60.9397 80.9232 60.9034 80.6891 60.9001 80.5144C60.8704 80.3099 60.8539 80.0824 60.8506 79.8385C60.8506 79.5945 60.8407 79.3505 60.8275 79.1065C60.8044 78.6548 60.7846 78.1965 60.7615 77.7349C60.7384 77.2733 60.7516 76.8118 60.7945 76.3502C60.7879 76.1589 60.778 75.9677 60.7615 75.7765C60.745 75.5852 60.745 75.394 60.7615 75.1995C60.7615 75.0577 60.7615 74.9093 60.7615 74.7511C60.7615 74.5928 60.6856 74.4543 60.5305 74.339C60.283 73.884 59.8541 73.6136 59.2469 73.5312C59.1875 73.4356 59.0984 73.3729 58.9796 73.3498C58.8609 73.3235 58.752 73.2773 58.6497 73.2048C58.5144 73.2081 58.3956 73.2015 58.3032 73.1784C58.2075 73.1586 58.125 73.1322 58.0491 73.0993C57.9765 73.0663 57.8841 73.0432 57.7785 73.0234C57.6729 73.0069 57.5311 73.0102 57.3496 73.0399C57.3331 73.0795 57.277 73.0894 57.1846 73.0795C57.0922 73.0696 57.0592 73.0795 57.0856 73.1091C56.9998 73.1586 56.9338 73.1982 56.881 73.2344C56.8282 73.2707 56.7556 73.3399 56.6566 73.4421C56.6071 73.4158 56.4982 73.3894 56.3332 73.363C56.1683 73.3366 55.9934 73.3268 55.8119 73.33C55.6271 73.3333 55.4555 73.3564 55.2872 73.3927C55.1222 73.429 55.01 73.4883 54.9539 73.5674C54.9209 73.574 54.888 73.5806 54.855 73.5839C54.8847 73.6301 54.8847 73.6532 54.8484 73.6499C54.8121 73.6499 54.7758 73.6598 54.7329 73.6828C54.657 73.7653 54.5712 73.8477 54.4821 73.9235C54.393 73.9994 54.294 74.0653 54.1884 74.1213C54.0993 74.2598 54.0102 74.3851 53.9277 74.4972C53.8452 74.6093 53.7429 74.7181 53.6241 74.8269C53.6307 74.8599 53.5912 74.9555 53.5021 75.1138C53.4163 75.272 53.3206 75.4369 53.215 75.6149C53.1094 75.793 53.0137 75.9545 52.9279 76.1029C52.8421 76.2513 52.7992 76.3337 52.8025 76.3502C52.6342 76.6799 52.5022 76.9469 52.4032 77.1513C52.3042 77.3558 52.2086 77.5371 52.1129 77.6954C52.0172 77.8536 51.9083 78.0284 51.7862 78.2196C51.6641 78.4108 51.509 78.6647 51.3209 78.9812C51.1955 79.2714 51.0437 79.5384 50.8656 79.7824C50.6874 80.0297 50.5257 80.2902 50.3772 80.5671C50.2749 80.7287 50.1363 80.9166 49.9647 81.1243C49.7931 81.3353 49.671 81.5266 49.5919 81.7013C49.3543 82.0838 49.1398 82.4332 48.9484 82.7465C48.757 83.0597 48.5689 83.3729 48.3907 83.6828C48.2093 83.9961 48.0311 84.306 47.8529 84.6192C47.6747 84.9324 47.4932 85.2753 47.3084 85.6512C47.2622 85.7501 47.2094 85.8589 47.1467 85.9776C47.0841 86.0963 47.0115 86.2183 46.929 86.3436C46.8465 86.4689 46.7871 86.5744 46.7508 86.6601C46.7145 86.7491 46.6683 86.815 46.6122 86.8645C46.4835 86.9832 46.3317 87.0821 46.1502 87.1678C45.972 87.2536 45.8334 87.3228 45.7378 87.3821C45.421 87.5437 45.1405 87.6723 44.8864 87.7745C44.6356 87.8767 44.3552 88.0185 44.045 88.1965C43.9559 88.2888 43.8701 88.3713 43.7909 88.4438C43.7084 88.5163 43.6358 88.6054 43.5731 88.7076C43.5368 88.7339 43.5137 88.7603 43.5104 88.79C43.5071 88.8164 43.484 88.846 43.4477 88.8724C43.385 88.9779 43.3487 89.1329 43.3421 89.3373C43.3355 89.5417 43.3553 89.756 43.3949 89.9769C43.4147 90.0857 43.4378 90.1912 43.4675 90.2967C43.2497 90.422 43.032 90.544 42.8142 90.6693C42.7581 90.7188 42.702 90.7682 42.6426 90.8177C42.5832 90.8342 42.5238 90.854 42.4611 90.8704C42.4083 90.9001 42.3918 90.9199 42.3918 90.9199C42.3654 90.9792 42.3423 91.0353 42.3258 91.0749C42.3159 91.1012 42.306 91.1276 42.2961 91.1573C42.273 91.1804 42.2499 91.2001 42.2268 91.2232C42.075 91.3683 41.9034 91.487 41.7121 91.5793C41.6329 91.6156 41.557 91.665 41.491 91.7277C41.4382 91.7903 41.3755 91.8497 41.3227 91.8991C41.1478 92.064 41.0323 92.1728 40.9531 92.242C40.7452 92.4003 40.5374 92.5585 40.3295 92.7201C39.7883 93.119 39.2504 93.5213 38.7159 93.9235C38.2044 94.3258 37.8217 94.6192 37.5841 94.7841C37.3366 94.9555 37.1617 95.0643 37.0363 95.1336C36.9043 95.2094 36.7657 95.272 36.6238 95.3248C36.5678 95.3446 36.4259 95.4039 36.0959 95.5754C35.6801 95.8127 35.2149 95.9512 34.7298 95.9809C34.314 96.0073 33.895 96.0139 33.4825 96.0106C33.2581 96.0106 33.0997 96.0007 32.9809 95.9875C32.8687 95.9743 32.7631 95.9611 32.6642 95.9446C32.5388 95.9248 32.4035 95.8853 32.255 95.8193C32.1461 95.7732 31.9844 95.7138 31.7732 95.6413C31.7369 95.6281 31.7006 95.6149 31.6643 95.6017C31.6445 95.5721 31.6214 95.5457 31.6016 95.516C31.5785 95.483 31.5488 95.4501 31.5125 95.4204C31.4795 95.4039 31.4399 95.3874 31.4003 95.3577C31.3674 95.3446 31.3344 95.3347 31.2981 95.3215C31.2783 95.2852 31.2585 95.2489 31.2387 95.2127C31.1133 94.9852 31.0209 94.8236 30.9648 94.728C30.9021 94.6258 30.8526 94.5335 30.813 94.4544C30.7635 94.3587 30.7272 94.2367 30.7008 94.0884C30.6777 93.9631 30.648 93.7488 30.615 93.4389C30.6018 93.241 30.5886 93.0465 30.5754 92.8487C30.582 92.4596 30.5886 92.0673 30.5985 91.6782C30.6678 91.3617 30.7404 91.0452 30.813 90.7287C30.8394 90.633 30.8988 90.5473 30.9516 90.4847C31.0275 90.1945 31.1034 89.9275 31.1793 89.6868C31.2684 89.4098 31.3805 89.123 31.5125 88.8427C31.5224 88.8263 31.529 88.8131 31.5389 88.7966C31.628 88.6581 31.7204 88.4867 31.8128 88.2921C31.9118 88.0745 32.0075 87.8668 32.1032 87.6723C32.1098 87.6624 32.1131 87.6525 32.1197 87.6426C32.2319 87.4514 32.3243 87.2832 32.3903 87.1382C32.4563 86.9964 32.5124 86.8612 32.5553 86.7425C32.585 86.6238 32.6246 86.4919 32.6774 86.3502C32.7367 86.1787 32.8522 85.9875 33.0238 85.7732C33.0634 85.7006 33.103 85.6281 33.1459 85.5556C33.0469 85.5852 32.9479 85.6116 32.8489 85.6413C33.0799 85.3577 33.3109 85.0775 33.5419 84.7972C33.8323 84.4478 33.9247 84.2895 33.9511 84.2269C34.0269 84.0587 34.149 83.8873 34.3173 83.7026C34.3437 83.6466 34.3833 83.5872 34.4328 83.5147C34.479 83.4454 34.5384 83.3729 34.611 83.3136C34.7892 83.0795 34.941 82.8816 35.0631 82.7234C35.2017 82.5486 35.3402 82.3772 35.4788 82.2123C35.624 82.0409 35.7956 81.8596 36.0002 81.6617C36.1883 81.4804 36.4226 81.2496 36.703 80.9726C36.736 80.9397 36.7921 80.8803 36.9703 80.7287C37.1254 80.5935 37.2805 80.4616 37.4356 80.3264C37.6237 80.1814 37.8052 80.0198 37.9866 79.8352C38.0823 79.7066 38.2539 79.6143 38.3661 79.5549C38.508 79.4791 38.6565 79.3966 38.8083 79.3076C38.9634 79.2186 39.1086 79.1329 39.2504 79.0472C39.4583 78.9219 39.5936 78.8592 39.7157 78.8296C39.884 78.7867 40.0523 78.7471 40.2239 78.7043C40.2338 78.8394 40.247 78.9713 40.2569 79.1065C40.2965 79.5516 40.2404 79.911 40.0853 80.2077C39.9731 80.455 39.9071 80.7155 39.8906 80.9694C39.8906 80.9891 39.8906 81.0089 39.8873 81.0287C39.8774 81.0485 39.8708 81.0683 39.8609 81.0847C39.6728 81.487 39.5408 81.8035 39.4715 82.0277C39.4055 82.2354 39.3692 82.43 39.3626 82.608C39.3428 82.819 39.2966 83.03 39.2241 83.2608C39.1647 83.452 39.102 83.7488 39.0393 84.1411C39.0393 84.1774 39.0393 84.2137 39.0327 84.2532C39.0393 84.2862 39.0492 84.3192 39.0558 84.3488C39.0393 84.3851 39.0228 84.4214 39.0063 84.4576C38.9007 84.6753 38.8743 84.8929 38.9205 85.1237C38.9337 85.1896 38.9733 85.3841 39.4319 85.5193C39.4517 85.5292 39.4748 85.5358 39.4946 85.5457C39.5276 85.5622 39.5573 85.5754 39.5903 85.5918C39.7388 85.5523 39.8906 85.516 40.0391 85.4797C40.115 85.4237 40.2107 85.3775 40.3196 85.3478C40.6561 85.2423 41.0323 85.1731 41.4382 85.1401C41.4844 85.1368 41.5273 85.1335 41.5735 85.1303C41.656 85.0445 41.7319 84.9852 41.8012 84.939C41.7319 84.6522 41.6626 84.3653 41.5933 84.0785C41.8474 84.1807 42.0981 84.2829 42.3489 84.3851C42.3555 84.3851 42.3654 84.3818 42.3753 84.3785C42.3819 84.3719 42.3852 84.3686 42.3852 84.3686C42.3786 84.3752 42.4017 84.3357 42.4413 84.24C42.4545 84.2137 42.4677 84.1873 42.4842 84.1609C42.4842 83.9235 42.6789 83.7191 42.9726 83.6499C43.0881 83.6235 43.2002 83.5971 43.3157 83.5707C43.352 83.4916 43.3949 83.4125 43.4411 83.3333C43.5467 83.1026 43.6523 82.8685 43.7579 82.6377C43.8404 82.6179 43.9229 82.5981 44.0087 82.5816C44.078 82.5058 44.144 82.4332 44.2133 82.3574C44.2397 82.2816 44.276 82.2057 44.3255 82.1365C44.3321 82.0574 44.3387 81.975 44.3453 81.8958C44.3552 81.8793 44.3618 81.8596 44.3717 81.8431C44.4805 81.6123 44.5366 81.5002 44.5663 81.4408C44.5465 81.3518 44.5267 81.2628 44.5069 81.1771C44.5597 81.1639 44.6158 81.154 44.6686 81.1408C44.6752 81.1045 44.6851 81.0617 44.695 81.0155C44.7181 80.8902 44.7709 80.7221 44.8501 80.5045C44.8699 80.4517 44.893 80.399 44.9128 80.3462C44.9194 80.2473 44.9623 80.1319 45.1009 80.0099C45.0778 79.8879 45.1306 79.756 45.1603 79.6769C45.1999 79.5714 45.2329 79.4923 45.256 79.4362C45.2593 79.4032 45.2692 79.3703 45.2857 79.3373C45.3154 79.2186 45.3418 79.0999 45.3715 78.9812C45.3715 78.9384 45.3847 78.8988 45.3946 78.8625C45.3979 78.8131 45.4144 78.7603 45.4441 78.701C45.4408 78.5955 45.4573 78.4867 45.4936 78.3746C45.5167 78.2987 45.5299 78.2031 45.5299 78.091C45.5365 78.058 45.5398 78.0284 45.5464 77.9954C45.5629 77.9426 45.5827 77.847 45.5728 77.6756C45.5662 77.5272 45.5662 77.3953 45.5728 77.2898C45.52 77.1382 45.4672 76.9865 45.4144 76.8348C45.19 76.4886 44.9656 76.1424 44.7412 75.7963C44.629 75.7831 44.5102 75.7765 44.3816 75.7699C44.3255 75.7699 44.2694 75.7633 44.2133 75.7633C43.979 75.7534 43.7447 75.7402 43.5071 75.7303C43.4642 75.5819 43.4246 75.4336 43.3817 75.2852C43.3091 75.2325 43.2596 75.1698 43.2299 75.094C43.1903 75.094 43.1475 75.0907 43.098 75.0874C42.9561 75.0808 42.8109 75.0412 42.6624 74.9687C42.636 74.9687 42.6096 74.9687 42.5832 74.9687C42.5535 74.9753 42.5238 74.9819 42.4941 74.9885C42.4446 74.9687 42.3951 74.9522 42.3456 74.9324C42.207 74.8797 42.0321 74.8104 41.821 74.7214C41.6296 74.6423 41.4184 74.5632 41.194 74.4873C40.9927 74.4181 40.7782 74.3719 40.5604 74.3455C40.3757 74.3225 40.1909 74.3324 39.9995 74.3785C39.4055 74.5236 38.8446 74.6489 38.3331 74.7544C37.8877 74.8467 37.5445 74.9687 37.3102 75.1105C37.3102 75.1105 37.3069 75.1072 37.3036 75.1039C37.3036 75.1039 37.3036 75.1039 37.3003 75.1039C37.3003 75.1105 37.3069 75.1204 37.3102 75.1269C37.2739 75.1434 37.2343 75.1566 37.198 75.1698C36.8548 75.3907 36.515 75.6149 36.1751 75.8391C36.0134 75.9545 35.8616 76.0534 35.7197 76.1391C35.6735 76.1688 35.6273 76.1985 35.5844 76.2282C35.4392 76.3238 35.2776 76.4029 35.1027 76.4623C35.0961 76.4623 35.0862 76.4689 35.0796 76.4689C34.875 76.815 34.5516 76.9667 34.3041 77.0327C34.281 77.0392 34.2711 77.0491 34.2645 77.0854C34.248 77.1711 34.2315 77.2536 34.215 77.3393C34.1127 77.3657 34.0104 77.3953 33.9082 77.4217C33.8851 77.4349 33.8587 77.4514 33.829 77.4679C33.7861 77.514 33.7465 77.547 33.7036 77.5767C33.6937 77.5866 33.6838 77.5997 33.6772 77.6096C33.3703 78.0152 33.037 78.424 32.707 78.7999C32.387 79.1626 32.0801 79.5351 31.7963 79.8978C31.3674 80.4253 30.9384 80.9496 30.516 81.4804C30.4797 81.5595 30.4203 81.6354 30.3543 81.7211C30.3114 81.8398 30.2685 81.9618 30.2256 82.0805C30.186 82.0936 30.1464 82.1035 30.1068 82.1167C30.0936 82.1365 30.0771 82.1563 30.0574 82.1827C29.9551 82.3211 29.8363 82.4761 29.6977 82.6476C29.536 82.8454 29.3743 83.0465 29.2126 83.2476C29.1499 83.3465 29.0905 83.4454 29.0278 83.5444C29.041 83.5411 29.0509 83.5378 29.0641 83.5345C28.9222 83.7817 28.7836 84.0257 28.6418 84.273C28.4669 84.5763 28.3151 84.8071 28.1732 84.972C28.1039 85.0511 27.9785 85.2259 27.7838 85.5951C27.7079 85.7468 27.6386 85.8787 27.5759 85.9842C27.4901 86.1425 27.4209 86.2809 27.3714 86.393C27.3648 86.4029 27.3615 86.4128 27.3549 86.426C26.5629 87.8602 25.9492 89.423 25.5268 91.065C25.1077 92.6871 25.0153 94.306 25.2331 95.882C25.2463 95.9281 25.2595 96.004 25.276 96.1556C25.2859 96.2447 25.2925 96.3304 25.2991 96.4128C25.4278 96.5216 25.4806 96.6634 25.4707 96.8183C25.6456 97.2503 25.8139 97.6096 25.9723 97.8899C26.1406 98.1833 26.3451 98.4834 26.5827 98.7867C26.6949 98.9351 26.8071 99.0801 26.9193 99.2285C27.0414 99.2878 27.1668 99.3538 27.2955 99.4329C27.4143 99.5055 27.5363 99.5648 27.665 99.6044C27.6749 99.6077 27.6848 99.611 27.698 99.6143C27.8762 99.6868 28.0511 99.7626 28.2293 99.8352C28.556 99.944 28.8826 100.049 29.2093 100.158C29.2456 100.162 29.2786 100.168 29.3116 100.171C29.4139 100.188 29.5063 100.204 29.5921 100.218C29.6119 100.221 29.6317 100.228 29.6515 100.231C29.9683 100.323 30.2751 100.35 30.5952 100.31C30.9714 100.264 31.3443 100.211 31.7171 100.158C31.7567 100.152 31.793 100.148 31.8326 100.142C31.8656 100.155 31.9019 100.165 31.9349 100.178C31.9448 100.178 31.9745 100.175 32.0174 100.155C32.1923 100.079 32.4431 99.9901 32.7895 99.8813C33.0073 99.7923 33.202 99.7297 33.3769 99.6868C33.5155 99.6538 33.6508 99.6275 33.7795 99.6044C33.8422 99.578 33.9049 99.5483 33.9676 99.5219C34.1787 99.4593 34.3932 99.3967 34.6044 99.3307C34.8057 99.2714 34.9146 99.2186 34.9707 99.1856C35.0598 99.123 35.1555 99.0768 35.2578 99.0472C35.4128 99.001 35.5679 98.9581 35.723 98.912C35.7461 98.8988 35.7659 98.8856 35.7857 98.8724C35.8913 98.8032 36.0134 98.7339 36.1619 98.668C36.3797 98.5658 36.5546 98.4834 36.6832 98.4273C36.7393 98.4009 36.8449 98.3416 37.0033 98.2163C37.0198 98.2031 37.0363 98.1899 37.0561 98.1734C37.0759 98.1636 37.099 98.157 37.1188 98.1471C37.264 98.0844 37.4191 98.0185 37.5907 97.9393C37.6402 97.9163 37.6831 97.8965 37.7194 97.8767C37.8646 97.7811 38.0097 97.6822 38.1549 97.5866C38.2506 97.491 38.3793 97.4184 38.5278 97.3789C38.5674 97.369 38.5938 97.3591 38.6103 97.3525C38.6235 97.336 38.6334 97.3228 38.6466 97.3063C38.6829 97.2898 38.7192 97.2733 38.7555 97.2602C38.8413 97.2206 38.9238 97.1744 38.9997 97.1151C39.1185 97.0261 39.2438 96.937 39.3758 96.8579C39.389 96.8513 39.4055 96.8414 39.4187 96.8348C39.587 96.7557 39.7883 96.6271 40.0193 96.4557C40.2668 96.271 40.5176 96.0666 40.765 95.8457C41.0224 95.6149 41.2831 95.3808 41.5405 95.1401C41.7946 94.9061 42.0189 94.6851 42.207 94.4807C42.438 94.24 42.6723 93.9961 42.9066 93.7554C43.0221 93.6169 43.1376 93.4784 43.2563 93.3399C43.2761 93.3465 43.2959 93.3564 43.3157 93.3663C43.3355 93.3531 43.3586 93.3399 43.3817 93.3268C43.3817 93.3235 43.385 93.3169 43.3883 93.3136C43.4675 93.152 43.5863 93.0168 43.7447 92.908C44.0714 92.4662 44.3981 92.0277 44.728 91.5892C44.8039 91.4046 44.8732 91.3024 44.9656 91.2265C45.0283 91.1771 45.091 91.1375 45.157 91.1111C45.157 91.1111 45.1603 91.1078 45.1636 91.1045C45.1636 91.1045 45.1801 91.0848 45.2197 91.0221C45.1933 91.0023 45.1669 90.9825 45.1405 90.9628C45.2131 90.9463 45.3088 90.9232 45.4276 90.8968C45.2692 91.3419 45.1207 91.7343 44.9854 92.0772C44.8501 92.4201 44.7214 92.7564 44.6059 93.0861C44.4904 93.4158 44.3717 93.7554 44.2496 94.1049C44.1275 94.4544 44.0087 94.8665 43.8866 95.3413C43.8536 95.3841 43.8569 95.4138 43.8932 95.4336C43.9295 95.4501 43.9328 95.483 43.8998 95.5259C43.9295 95.5556 43.9427 95.5787 43.9493 95.5951C43.9526 95.6116 43.979 95.6248 44.0219 95.6314C44.0978 95.6314 44.1704 95.6314 44.243 95.6314C44.5036 95.5688 44.6389 95.5523 44.6455 95.5885C44.6125 95.6314 44.629 95.6677 44.6884 95.6973C44.7478 95.727 44.7742 95.7699 44.7676 95.8259C44.827 95.9018 44.8633 95.938 44.8732 95.9347C44.8831 95.9347 44.9326 95.938 45.0217 95.9545C45.1933 95.9677 45.3517 95.9875 45.4969 96.0172C45.6421 96.0435 45.8103 96.0172 46.0017 95.938C46.0182 95.8259 46.071 95.6908 46.1634 95.5292C46.2525 95.3676 46.3416 95.2489 46.4307 95.1731C46.4373 95.2061 46.4505 95.2358 46.467 95.2588C46.4835 95.2819 46.4736 95.3149 46.4406 95.3577C46.4802 95.3479 46.5099 95.3149 46.5297 95.2588C46.5495 95.2028 46.5726 95.1434 46.6023 95.0841C46.6551 95.0346 46.7112 94.9786 46.7706 94.9126C46.83 94.8467 46.9158 94.7808 47.0313 94.7214C47.0577 94.7511 47.0874 94.8236 47.1104 94.9423C47.15 94.9324 47.1632 94.9225 47.15 94.9061C47.1368 94.8929 47.15 94.8797 47.1896 94.8698C47.2292 94.9489 47.2292 95.0247 47.1896 95.094C47.1533 95.1632 47.117 95.2654 47.0841 95.3973C47.1401 95.2786 47.1896 95.1599 47.2292 95.0445C47.2688 94.9291 47.2919 94.8071 47.3084 94.6819C47.3546 94.5994 47.3843 94.5269 47.4041 94.4609C47.4206 94.395 47.4404 94.3159 47.4635 94.2203C47.5856 93.9994 47.6846 93.7719 47.7605 93.5411C47.8397 93.3103 47.9387 93.0927 48.0674 92.8882C48.0476 92.9971 48.0278 93.1059 48.008 93.2081C47.9882 93.3103 47.9387 93.3861 47.8661 93.4389C47.8892 93.5411 47.9123 93.5971 47.9354 93.6103C47.9222 93.5444 47.9453 93.5015 48.0047 93.4883C48.0245 93.3795 48.0707 93.2971 48.1433 93.2443C48.1268 93.1586 48.1532 93.0729 48.2324 92.9872C48.3083 92.8981 48.371 92.8157 48.4171 92.7333C48.4996 92.5223 48.5755 92.3277 48.6448 92.153C48.7141 91.9783 48.7999 91.82 48.8956 91.6749C48.8956 91.4804 48.9583 91.3024 49.0738 91.1441C49.1893 90.9858 49.2784 90.7946 49.3411 90.5704C49.4335 90.399 49.5292 90.2308 49.6249 90.0594C49.6612 90.1385 49.6777 90.2176 49.6711 90.2869C49.6875 90.4781 49.6447 90.6298 49.5391 90.7386C49.4335 90.8507 49.3906 90.9562 49.4104 91.0584C49.4434 91.0155 49.4632 91.0023 49.4665 91.0188C49.4335 91.0617 49.4104 91.1078 49.3972 91.154C49.384 91.2001 49.4071 91.2628 49.4665 91.3386C49.4236 91.3485 49.3807 91.3848 49.3279 91.4474C49.3114 91.576 49.2586 91.6848 49.1695 91.7738C49.0804 91.8629 49.0276 91.9717 49.0144 92.1002C48.9748 92.1101 48.9484 92.1233 48.9418 92.1431C48.9352 92.1629 48.922 92.1728 48.9022 92.1794C48.9088 92.2123 48.9055 92.2552 48.8956 92.3014C48.8824 92.3475 48.8956 92.4036 48.9319 92.4662C48.79 92.4959 48.6976 92.575 48.6613 92.697C48.625 92.819 48.5821 92.9311 48.5392 93.03C48.592 93.1784 48.5623 93.3169 48.4534 93.4455C48.3413 93.5773 48.2852 93.7224 48.2753 93.884C48.4204 93.7653 48.5128 93.6334 48.5557 93.4916C48.5986 93.3498 48.7042 93.2147 48.8692 93.0927C48.856 93.0267 48.8758 92.9674 48.9286 92.9212C48.9814 92.8751 49.0243 92.8223 49.054 92.763C49.0144 92.6838 48.9979 92.6278 49.0045 92.6014C49.0078 92.575 49.0045 92.519 48.9847 92.4333C48.9814 92.4168 48.9946 92.4036 49.0243 92.397C49.054 92.3904 49.0771 92.3772 49.0969 92.3541C49.0837 92.2882 49.0804 92.2486 49.087 92.2354C49.0969 92.2255 49.0969 92.2025 49.087 92.1695C49.1497 92.1563 49.186 92.1365 49.2025 92.1068C49.2157 92.0772 49.2751 92.0508 49.3774 92.031C49.3906 91.9914 49.3774 91.9684 49.3477 91.9585C49.3147 91.9486 49.3081 91.9057 49.3378 91.8266C49.4368 91.787 49.4896 91.7409 49.4995 91.6848C49.5094 91.6288 49.5523 91.5859 49.6315 91.5496C49.6216 91.5002 49.6084 91.4672 49.5952 91.4507C49.582 91.4375 49.5622 91.4145 49.5325 91.3848C49.6678 91.2133 49.7601 91.032 49.8063 90.8375C49.8525 90.6429 49.9548 90.4583 50.1132 90.2836C50.1132 90.1945 50.1297 90.1286 50.1561 90.089C50.1792 90.0495 50.2056 89.9835 50.2287 89.8879C50.3244 89.8319 50.3541 89.7857 50.3145 89.7527C50.2749 89.7165 50.2353 89.6571 50.199 89.578C50.4861 89.2911 50.7303 89.0274 50.9316 88.7933C51.1328 88.5592 51.3209 88.2757 51.4925 87.9393C51.674 87.7613 51.905 87.6327 52.1822 87.5536C52.4593 87.4745 52.7035 87.3591 52.9147 87.214C52.9246 87.1579 52.9246 87.1184 52.9081 87.0953C52.8916 87.0722 52.9048 87.0491 52.9444 87.0228C53.0071 87.0096 53.0566 87.0063 53.0896 87.0096C53.1226 87.0096 53.1589 87.0096 53.2018 86.9997C53.2381 86.9568 53.2645 86.9206 53.281 86.8909C53.2975 86.8612 53.3569 86.8282 53.4592 86.792C53.446 86.848 53.4724 86.8678 53.5351 86.8579C53.5483 86.8216 53.5417 86.8052 53.5087 86.8085C53.4757 86.8151 53.479 86.7953 53.5153 86.7557C53.578 86.7425 53.6373 86.7029 53.6868 86.6304C53.7396 86.5579 53.8122 86.5414 53.9046 86.5777C53.8485 86.6238 53.7924 86.6568 53.7429 86.6733C53.6934 86.6931 53.6275 86.7326 53.5549 86.8019C53.7 86.7755 53.8452 86.7227 53.9805 86.6436C54.1191 86.5645 54.2247 86.4919 54.3006 86.426C54.3006 86.4095 54.2775 86.4128 54.2379 86.4392C54.1983 86.4656 54.1752 86.459 54.1686 86.426C54.492 86.2974 54.7461 86.1985 54.9309 86.1293C55.1156 86.06 55.2674 86.0073 55.3928 85.9677C55.5149 85.9281 55.6337 85.8886 55.7459 85.8523C55.8581 85.816 56.0066 85.7633 56.1914 85.694C56.485 85.6413 56.7259 85.5721 56.9041 85.4797C57.0856 85.3874 57.2539 85.3544 57.409 85.3808C57.4618 85.9677 57.5211 86.5216 57.5838 87.0392C57.6465 87.5569 57.7224 88.0613 57.8148 88.5559C57.9072 89.0505 58.0062 89.5384 58.1184 90.0198C58.2273 90.5012 58.3461 91.0056 58.4748 91.5299C58.5309 91.7475 58.5804 91.9222 58.62 92.0442C58.6596 92.1695 58.6959 92.2849 58.7223 92.397C58.7487 92.5058 58.785 92.6245 58.8246 92.7498C58.8642 92.8751 58.9235 93.0366 58.9961 93.2344C59.1083 93.4092 59.2238 93.485 59.3459 93.4652C59.468 93.4455 59.6066 93.4652 59.7617 93.5279C59.8211 93.5015 59.8574 93.4784 59.8772 93.4586C59.8937 93.4389 59.9234 93.4257 59.9663 93.4191C59.9498 93.3169 59.9465 93.2674 59.9597 93.274C59.9696 93.2806 60.0389 93.2839 60.1642 93.2806C60.1708 93.1916 60.1973 93.1256 60.2434 93.0828C60.2896 93.0399 60.3424 93.0102 60.4018 92.9905C60.4612 92.9707 60.5239 92.9476 60.5932 92.9212C60.6625 92.8915 60.7219 92.8388 60.7714 92.763C60.8011 92.7597 60.8341 92.7531 60.8638 92.7498C60.9529 92.6476 61.0024 92.5717 61.0156 92.5157C61.0288 92.4596 61.0255 92.3739 61.009 92.2552C61.0453 92.2156 61.0783 92.1992 61.1113 92.2123C61.1443 92.2255 61.1575 92.2123 61.1542 92.1794C61.1542 92.1629 61.1542 92.1497 61.1641 92.1398C61.174 92.1299 61.1773 92.1167 61.174 92.1002C61.174 92.0904 61.174 92.0838 61.1707 92.0739C61.1806 92.064 61.1872 92.0541 61.1971 92.0442C61.1971 92.0277 61.2004 92.0079 61.2202 91.9881C61.2367 91.9684 61.2532 91.9387 61.2697 91.9024C61.2994 91.8266 61.3126 91.7607 61.3027 91.7013C61.2928 91.642 61.3126 91.6354 61.3621 91.6782C61.3588 91.5035 61.3852 91.3287 61.4412 91.154C61.5006 90.9792 61.5138 90.7979 61.4874 90.6067C61.527 90.5836 61.5534 90.5572 61.5699 90.5275C61.5864 90.4979 61.6128 90.4649 61.6491 90.422C61.6227 90.2506 61.626 90.1088 61.6491 90C61.6755 89.8912 61.6953 89.7461 61.7151 89.5681C61.7283 89.6538 61.7349 89.7494 61.7415 89.8549C61.7448 89.9605 61.7811 90.0231 61.8471 90.0495C61.8471 90.0396 61.8471 90.033 61.8438 90.0231C61.9065 90.0132 61.9164 90.0099 61.8735 90.0066C61.8306 90.0066 61.8273 89.9901 61.8669 89.967C61.8273 89.8319 61.8273 89.6967 61.8702 89.5582C61.9131 89.4197 61.9098 89.3208 61.8603 89.2582C61.8702 89.3274 61.8669 89.3703 61.8471 89.3934C61.7382 89.2186 61.725 89.0702 61.8141 88.9516C61.8174 88.9878 61.8306 89.001 61.8537 88.9977C61.8306 88.9845 61.8141 88.9515 61.8075 88.8988C61.8009 88.8625 61.8009 88.8493 61.8009 88.8559C61.7877 88.7735 61.7745 88.6713 61.758 88.5526C61.7382 88.424 61.692 88.3218 61.6194 88.246C61.6194 88.124 61.6194 88.002 61.5996 87.88C61.5831 87.7613 61.5435 87.6525 61.4874 87.5536C61.4676 87.5734 61.4643 87.5932 61.4775 87.6063C61.4907 87.6228 61.4776 87.6426 61.438 87.6657C61.4182 87.5272 61.4281 87.3756 61.4677 87.2008C61.5072 87.0294 61.471 86.8612 61.3621 86.7029C61.3291 86.7788 61.3324 86.8711 61.3687 86.9766C61.405 87.0854 61.3984 87.1876 61.3489 87.2832C61.3225 87.0953 61.306 86.9206 61.306 86.7623C61.306 86.604 61.2664 86.426 61.1971 86.2282C61.2037 86.2809 61.207 86.3436 61.2103 86.4227C61.2103 86.5018 61.1938 86.5711 61.1608 86.6271C61.2367 86.8447 61.2466 87.0392 61.1971 87.214C61.1476 87.3887 61.0948 87.5668 61.0354 87.7514C61.108 87.8108 61.1542 87.8305 61.1707 87.8108C61.174 87.8371 61.1773 87.8635 61.1806 87.8866C61.1608 87.9064 61.1443 87.9064 61.1311 87.88C61.1179 87.8569 61.1014 87.8635 61.0849 87.8998C61.0651 87.9888 61.0486 88.0811 61.0288 88.1701C61.009 88.1899 61.009 88.1701 61.0222 88.1174C61.0354 88.0613 61.0222 88.0482 60.9826 88.0712C60.9496 88.1306 60.943 88.1701 60.9694 88.1932C60.9925 88.2163 60.9892 88.246 60.9529 88.2888C60.8968 88.3317 60.8869 88.4174 60.9265 88.5427C60.9661 88.668 60.9562 88.7537 60.9001 88.7966C60.8539 88.6284 60.8539 88.4801 60.9001 88.3482C60.9463 88.2196 60.9463 88.0877 60.9067 87.9525C60.8869 87.9525 60.8638 87.9591 60.844 87.9624C60.844 87.8404 60.8275 87.7119 60.7879 87.5767C60.7384 87.6723 60.7417 87.7976 60.7945 87.9558C60.8506 88.1141 60.8407 88.2427 60.7714 88.3416C60.7549 88.0976 60.7285 87.8272 60.6823 87.5272C60.6361 87.2272 60.6295 86.9535 60.6559 86.7029C60.6757 86.7029 60.6988 86.6964 60.7186 86.6931C60.8044 86.5414 60.8209 86.4128 60.7747 86.3172C60.7285 86.2183 60.7153 86.1062 60.7417 85.9809C60.7714 85.8886 60.7978 85.8094 60.8209 85.7468C60.844 85.6809 60.8308 85.6281 60.7813 85.5819C60.7879 85.6182 60.7714 85.694 60.7351 85.8127C60.6988 85.9314 60.6889 86.0534 60.7087 86.1721C60.6724 86.2117 60.6691 86.271 60.7021 86.3436C60.7351 86.4161 60.7219 86.4689 60.6592 86.4952C60.6592 86.4787 60.6526 86.4623 60.6526 86.4425C60.6328 86.4623 60.6295 86.4985 60.6361 86.5513C60.6427 86.604 60.6229 86.6139 60.5767 86.5876C60.5272 86.4029 60.5074 86.2249 60.514 86.0567C60.5206 85.8886 60.5371 85.7336 60.5569 85.5885C60.6262 85.6149 60.6493 85.6347 60.6328 85.6545C60.613 85.6743 60.6295 85.7006 60.6757 85.727C60.7087 85.6677 60.7219 85.6017 60.712 85.5259C60.7021 85.4501 60.712 85.3742 60.7417 85.2984C60.7483 85.3314 60.745 85.3676 60.7417 85.4039C60.7351 85.4402 60.7549 85.4632 60.8011 85.4731C60.8506 85.2193 60.8407 85.0017 60.7714 84.8203C60.7021 84.639 60.7351 84.4313 60.8737 84.2005C60.8803 84.2532 60.8902 84.3027 60.8968 84.3554C60.8968 84.3423 60.9001 84.3291 60.91 84.3159C60.9232 84.3225 60.9364 84.3258 60.9562 84.3225C60.9694 84.3291 60.9793 84.3357 60.9925 84.3422C61.0123 84.3225 61.0057 84.2928 60.9793 84.2532C60.9529 84.2137 60.9595 84.2005 61.0057 84.2104C61.1938 84.1642 61.3819 84.0983 61.5633 84.0092C61.7448 83.9202 61.9329 83.8444 62.1177 83.785C62.2497 83.8015 62.3223 83.7719 62.3355 83.7026C62.2893 83.6729 62.1969 83.6828 62.0616 83.729C61.9263 83.7752 61.824 83.7686 61.7481 83.7092C61.6854 83.7356 61.6029 83.7883 61.494 83.8642C61.3852 83.9433 61.306 83.9565 61.2565 83.9136C61.3093 83.8345 61.4479 83.7653 61.6656 83.7092C61.8867 83.6499 62.0451 83.5806 62.1408 83.4949C62.2827 83.4224 62.3784 83.396 62.4246 83.4158C62.4708 83.4356 62.5566 83.429 62.682 83.3927C62.7117 83.3004 62.7381 83.2542 62.7612 83.2509C62.8832 83.1817 62.9723 83.1256 63.0317 83.0828C63.0482 83.0465 63.0944 82.9937 63.1736 82.9311C63.2627 82.9377 63.3419 82.9179 63.4112 82.8718C63.4805 82.8289 63.563 82.8157 63.6521 82.8388C63.6686 82.8025 63.7313 82.7366 63.8402 82.6443C63.9491 82.5519 64.0019 82.4267 64.0019 82.2684C64.0448 82.2618 64.0778 82.2684 64.1041 82.2948L64.1107 82.2552ZM49.5688 89.7692C49.5721 89.7857 49.5754 89.8022 49.5787 89.8187C49.5556 89.8055 49.5523 89.789 49.5688 89.7692ZM57.1186 82.9542C56.4355 83.0861 55.7921 83.2674 55.1849 83.4982C54.5778 83.729 53.9805 83.9961 53.3998 84.2994C53.3998 84.2829 53.3932 84.2664 53.3899 84.2466C53.3437 84.2367 53.3206 84.2236 53.3173 84.2071C53.5153 83.9763 53.6868 83.7587 53.8254 83.5575C53.964 83.3564 54.1323 83.1322 54.3336 82.8849C54.3336 82.8685 54.3369 82.8487 54.3567 82.8289C54.459 82.6706 54.5382 82.5223 54.5943 82.3904C54.6471 82.2585 54.7164 82.1134 54.7989 81.9585C54.8517 81.8793 54.9374 81.7936 55.0529 81.7013C55.0859 81.642 55.142 81.576 55.2179 81.5002C55.2938 81.4243 55.3499 81.3584 55.3829 81.2991C55.4126 81.2232 55.4522 81.154 55.4984 81.0946C55.5446 81.0353 55.5842 80.9825 55.6205 80.943C55.8449 80.5605 56.0693 80.1814 56.2936 79.7989C56.3827 79.6604 56.4487 79.5648 56.4982 79.5153C56.5444 79.4626 56.6203 79.4131 56.7226 79.3604C56.7523 80.0758 56.8216 80.7023 56.9305 81.2364C57.0394 81.7705 57.1021 82.3442 57.1153 82.9575L57.1186 82.9542ZM61.6326 88.2394C61.6425 88.2987 61.6491 88.3581 61.659 88.4207C61.6392 88.4405 61.6227 88.4603 61.6029 88.4801C61.5963 88.4273 61.6029 88.3482 61.6326 88.2394ZM61.56 88.7241C61.56 88.7241 61.5765 88.7405 61.5831 88.7735C61.5963 88.7175 61.5996 88.6581 61.5897 88.5889C61.6425 88.668 61.6425 88.7372 61.5897 88.7999C61.6161 88.8296 61.6326 88.8691 61.6392 88.912C61.6458 88.9549 61.6326 88.9516 61.6062 88.9021C61.5996 88.8691 61.5963 88.8328 61.5897 88.7999C61.56 88.7504 61.5534 88.7274 61.5633 88.7241H61.56ZM61.3126 87.7877C61.3225 87.7152 61.3357 87.6525 61.3489 87.5998C61.3753 87.6327 61.3885 87.6855 61.3885 87.7646C61.3885 87.8437 61.3819 87.9097 61.3687 87.9657C61.3192 87.9196 61.2994 87.8635 61.3126 87.791V87.7877ZM61.3489 88.4669C61.3621 88.5526 61.372 88.6284 61.3819 88.6977C61.3918 88.7669 61.3819 88.8395 61.3489 88.912C61.3027 88.8856 61.2697 88.8131 61.2532 88.7043C61.2367 88.5922 61.2664 88.513 61.3456 88.4669H61.3489ZM61.1014 89.8055C61.0684 89.733 61.0486 89.6604 61.0387 89.5912C61.0552 89.5549 61.0684 89.5154 61.0849 89.4791C61.1014 89.4428 61.0849 89.4098 61.0387 89.3802C61.0222 89.278 61.0156 89.1922 61.0156 89.1197C61.0156 89.0505 61.0123 88.9812 61.0024 88.912C61.108 88.912 61.1476 88.968 61.1212 89.0768C61.0948 89.1856 61.1245 89.2516 61.2136 89.2747C61.1641 89.3703 61.1674 89.456 61.2202 89.5351C61.273 89.6143 61.2994 89.7264 61.2994 89.8648C61.3918 89.7791 61.4413 89.6769 61.4446 89.5549C61.4446 89.4329 61.4445 89.3274 61.4314 89.2417C61.4478 89.2054 61.4643 89.1823 61.4874 89.1823C61.5072 89.1823 61.5237 89.1494 61.5369 89.0966C61.5864 89.1428 61.6029 89.1922 61.5897 89.245C61.5765 89.301 61.5864 89.3604 61.6161 89.4263C61.5534 89.4362 61.5303 89.4131 61.5435 89.3571C61.5567 89.301 61.5501 89.2582 61.5237 89.2285C61.494 89.3208 61.4841 89.4395 61.4973 89.5879C61.5072 89.7362 61.4973 89.8484 61.4677 89.9209C61.5435 90.0132 61.5633 90.1517 61.527 90.333C61.4907 90.5144 61.4578 90.6495 61.4281 90.7419C61.3258 90.6166 61.2895 90.4385 61.3192 90.2077C61.2697 90.3033 61.2433 90.4023 61.2367 90.5111C61.2301 90.6166 61.2103 90.699 61.1773 90.7583C61.1146 90.6265 61.1014 90.4979 61.1344 90.3693C61.1674 90.2407 61.1872 90.1253 61.1938 90.0198C61.1641 89.9539 61.1311 89.8846 61.0981 89.8088L61.1014 89.8055Z" fill="#C33130"/>
<path d="M83.6791 76.7821C83.6791 76.7557 83.6791 76.7293 83.6791 76.7029C83.8672 76.5381 83.9992 76.3073 84.0751 76.0105C84.151 75.7138 84.2005 75.3907 84.2236 75.0412C84.2038 75.0082 84.2071 74.9819 84.2335 74.9621C84.2599 74.9456 84.2632 74.9192 84.2434 74.883C84.2764 74.7774 84.3028 74.6653 84.3226 74.5401C84.3457 74.4181 84.3226 74.3323 84.2467 74.2829C84.2764 74.1081 84.283 73.9697 84.2698 73.8642C84.2566 73.762 84.2566 73.6136 84.2698 73.4224C84.2335 73.4059 84.217 73.4158 84.217 73.4487C84.217 73.485 84.2005 73.485 84.1642 73.4487C84.1972 73.3597 84.1939 73.2839 84.1543 73.2146C84.1147 73.1487 84.085 73.0696 84.0652 72.9838C84.0751 72.9838 84.0817 72.9838 84.0916 72.9838C83.8408 72.4926 83.4845 72.1101 83.0258 71.8464C82.5638 71.5793 82.0491 71.3881 81.4749 71.2694C80.9008 71.1507 80.2903 71.0979 79.6403 71.1111C78.9935 71.1243 78.3435 71.1606 77.7 71.2199C77.6472 71.2232 77.6175 71.2199 77.6175 71.2133C77.6175 71.2034 77.6241 71.1902 77.6406 71.1738C77.6571 71.154 77.6736 71.1441 77.6934 71.1441C77.7099 71.1441 77.7033 71.1441 77.667 71.1441C75.8026 71.3221 74.0472 71.6782 72.4105 72.2024C70.7738 72.7267 69.2197 73.3004 67.748 73.9202C67.7018 73.9763 67.6391 74.0026 67.5665 73.9927C67.4939 73.9829 67.4213 73.9927 67.3553 74.0158C67.2332 74.0488 67.0946 74.1774 66.9428 74.4049C66.8438 74.4774 66.7448 74.55 66.6459 74.6225C66.57 74.7346 66.5304 74.883 66.5238 75.0676C66.5172 75.2522 66.5634 75.3808 66.6624 75.4566C66.8075 75.4731 66.9197 75.516 66.9989 75.5852C67.0781 75.6545 67.1507 75.7468 67.2167 75.8589C67.3355 75.9512 67.4048 76.0534 67.4246 76.1754C67.4477 76.2941 67.4609 76.4095 67.4642 76.5216C67.4675 76.6337 67.4972 76.7326 67.55 76.8117C67.6028 76.8942 67.7249 76.9205 67.9196 76.9008C67.9724 76.8942 68.035 76.8777 68.1142 76.8513C68.1901 76.8249 68.2759 76.8249 68.365 76.8513C68.5894 76.6535 68.86 76.4952 69.1768 76.3831C69.4935 76.271 69.7773 76.1589 70.0314 76.0435C69.972 76.1523 69.9324 76.2842 69.9126 76.4326C69.8928 76.5842 69.8268 76.7161 69.7146 76.8315C69.6519 77.2568 69.5298 77.6063 69.3483 77.8866C69.1372 78.5691 68.8996 79.2351 68.629 79.8813C68.3584 80.5275 68.1142 81.1705 67.8899 81.8035C67.8239 81.8464 67.7579 81.909 67.6919 81.9947C67.6226 82.0804 67.55 82.1464 67.4675 82.1893C67.451 82.209 67.4345 82.2156 67.418 82.209C67.3982 82.2024 67.385 82.2189 67.3718 82.2552C67.2464 82.3739 67.1936 82.5387 67.2068 82.7432C67.2233 82.9509 67.2992 83.1322 67.4378 83.2905C67.0484 84.3818 66.6392 85.5621 66.2202 86.8348C65.8011 88.1075 65.4546 89.3637 65.1775 90.6001C65.095 90.8539 65.0257 91.0748 64.9762 91.2562C64.9234 91.4375 64.8607 91.6716 64.7815 91.9618C64.7782 92.0508 64.8079 92.1365 64.8772 92.2222C64.9465 92.3079 65.029 92.397 65.1214 92.4893C65.2171 92.5816 65.3128 92.664 65.4117 92.7366C65.5107 92.8091 65.5833 92.8783 65.6229 92.9443C65.7582 92.9772 65.8737 92.9773 65.9661 92.9377C66.0585 92.8981 66.1641 92.8816 66.2796 92.8849C66.3027 92.7959 66.339 92.7432 66.3951 92.7267C66.4512 92.7102 66.4842 92.6673 66.4908 92.5981C66.5007 92.6146 66.5106 92.6311 66.5205 92.6475C66.5667 92.486 66.6326 92.3739 66.7151 92.3112C66.7976 92.2486 66.8735 92.1695 66.9461 92.0739C66.9791 92.0706 66.9824 92.1002 66.956 92.1629C66.9296 92.2255 66.9428 92.2717 66.9956 92.3014C67.0418 92.2618 67.0781 92.186 67.1045 92.0804C67.1342 91.9716 67.1573 91.8661 67.1771 91.7573C67.253 91.7112 67.2992 91.632 67.3091 91.5199C67.319 91.4045 67.3355 91.2957 67.3586 91.1869C67.3916 91.2001 67.4081 91.1968 67.4081 91.1803C67.4081 91.1639 67.4213 91.154 67.4543 91.1474C67.5863 90.8539 67.682 90.5968 67.7381 90.3825C67.7975 90.1682 67.8668 89.9077 67.9493 89.6011C68.0284 89.4164 68.1043 89.245 68.1769 89.0768C68.2495 88.912 68.2924 88.7339 68.3056 88.5394C68.3386 88.5361 68.3617 88.5229 68.3782 88.5064C68.3914 88.4866 68.4178 88.4768 68.4508 88.4735C68.4805 88.2789 68.5201 88.0877 68.5762 87.8965C68.6323 87.7085 68.6653 87.5338 68.6818 87.3755C68.6587 87.4646 68.629 87.5041 68.5927 87.4909C68.6191 87.5767 68.6125 87.636 68.5762 87.6756C68.5399 87.7151 68.5267 87.8042 68.5432 87.9393C68.53 87.9591 68.5201 87.9591 68.5168 87.9393C68.5168 87.9228 68.5069 87.9327 68.4937 87.969C68.3848 88.1899 68.2891 88.424 68.2066 88.668C68.1241 88.912 68.0218 89.156 67.8998 89.3966C67.9031 89.4296 67.9064 89.4659 67.913 89.4988C67.88 89.5021 67.8668 89.5219 67.8701 89.5549C67.8734 89.5912 67.8602 89.6077 67.8272 89.6109C68.002 88.9482 68.1835 88.2855 68.3716 87.6294C68.5597 86.9733 68.7709 86.3337 69.0118 85.7171C69.0118 85.7336 69.0217 85.7336 69.0382 85.7171C69.1273 85.5852 69.1966 85.4435 69.2461 85.2885C69.2988 85.1335 69.3615 85.0181 69.4374 84.9423C69.4308 85.0313 69.411 85.0973 69.3813 85.1434C69.3516 85.1896 69.3252 85.2489 69.2988 85.3215C69.3417 85.4039 69.3384 85.4896 69.2889 85.5819C69.2395 85.6743 69.2263 85.7534 69.2494 85.8193C69.2889 85.7105 69.3285 85.5984 69.3648 85.4797C69.4044 85.361 69.4605 85.2489 69.5331 85.1368C69.4935 85.4006 69.4275 85.6215 69.3351 85.7962C69.2428 85.971 69.1834 86.1754 69.157 86.4029C69.0976 86.4787 69.0646 86.5744 69.0613 86.6865C69.058 86.8019 69.025 86.8876 68.9623 86.9436C68.9227 87.1909 68.8468 87.4085 68.7412 87.5964C68.6356 87.7811 68.5795 88.0152 68.5795 88.2921C68.365 88.9252 68.1901 89.5087 68.0614 90.0363C67.9295 90.5638 67.7711 91.1803 67.5896 91.8826C67.8932 90.9397 68.167 90.0824 68.4046 89.3043C68.6422 88.5295 68.9095 87.6888 69.1999 86.7887C69.345 86.4062 69.4836 86.0138 69.6222 85.6083C69.7575 85.2028 69.873 84.8104 69.972 84.4346C70.0149 84.4313 70.0578 84.4247 70.0974 84.4214C70.1271 84.3653 70.1436 84.3027 70.1535 84.2334C70.1634 84.1642 70.1931 84.118 70.2426 84.095C70.2327 84.184 70.2129 84.2532 70.1733 84.3093C70.137 84.3653 70.104 84.4378 70.0809 84.5269C70.0479 84.5467 70.0413 84.5631 70.0611 84.5697C70.0776 84.5763 70.0908 84.5961 70.0941 84.6324C70.038 84.761 69.9951 84.8863 69.9654 85.0115C69.9357 85.1368 69.9027 85.272 69.8664 85.4138C69.8268 85.5391 69.7773 85.6578 69.7113 85.7699C69.6453 85.882 69.6024 86.0007 69.5826 86.1226C69.5034 86.3238 69.4176 86.5315 69.3318 86.7491C69.2461 86.9667 69.1636 87.1942 69.0877 87.4283C69.0712 87.4283 69.0547 87.4316 69.0382 87.4349C69.0283 87.5041 69.0283 87.5767 69.0382 87.6426C68.8699 88.1141 68.7379 88.5988 68.6422 89.0966C68.5465 89.5945 68.4079 90.0791 68.2297 90.5539C68.2396 90.6396 68.2264 90.7023 68.1901 90.7418C68.1538 90.7814 68.1406 90.8441 68.1505 90.9298C68.0845 91.0781 68.0449 91.1902 68.0284 91.2694C68.0119 91.3485 67.9855 91.4441 67.9493 91.5529C68.1274 91.0946 68.2858 90.6792 68.4178 90.2967C68.5498 89.9176 68.6851 89.5087 68.8204 89.0768C68.8171 89.0439 68.8072 89.0406 68.794 89.0669C68.7808 89.0933 68.7709 89.09 68.7676 89.057C68.8567 88.8032 68.9491 88.5625 69.0415 88.335C69.1339 88.1075 69.2197 87.8833 69.2955 87.6657C69.2691 87.8767 69.2098 88.0844 69.124 88.2855C69.0349 88.4866 68.9722 88.7108 68.9326 88.9581C68.9623 88.9383 68.9821 88.9054 68.9854 88.8625C68.9887 88.8196 68.992 88.8131 68.9953 88.8493C68.992 88.9713 68.9755 89.0636 68.9491 89.1296C68.9227 89.1922 68.8963 89.2615 68.8699 89.334C68.8468 89.2845 68.8468 89.245 68.8699 89.2153C68.893 89.1856 68.8831 89.156 68.8468 89.1263C68.7907 89.3769 68.7181 89.6373 68.6323 89.9077C68.5465 90.178 68.4838 90.4385 68.4442 90.6858C68.4706 90.6297 68.4904 90.577 68.5003 90.5242C68.5102 90.4715 68.5267 90.3989 68.5498 90.3099C68.5828 90.3066 68.6158 90.3033 68.6488 90.3C68.662 90.1253 68.7049 89.9769 68.7742 89.8549C68.8435 89.7329 68.893 89.5747 68.9227 89.3801C68.9293 89.3801 68.9392 89.3801 68.9458 89.3801C68.9458 89.3637 68.9392 89.3472 68.9293 89.3307C68.9194 89.3142 68.9128 89.2878 68.9095 89.2549C68.9392 89.2351 68.9656 89.2318 68.9821 89.245C68.9986 89.2615 69.0151 89.2516 69.0283 89.2153C69.0382 89.0043 69.0712 88.8295 69.1207 88.6845C69.1702 88.5394 69.2329 88.3943 69.2988 88.246C69.2955 88.213 69.289 88.1932 69.2824 88.1965C69.2725 88.1965 69.2692 88.18 69.2659 88.1471C69.345 88.1207 69.3846 88.0844 69.3813 88.0415C69.378 87.9987 69.3978 87.9558 69.444 87.9163C69.4704 87.6888 69.5232 87.5008 69.5991 87.3525C69.675 87.2041 69.7542 87.0326 69.8367 86.8315C69.8532 86.8315 69.8697 86.815 69.8829 86.7887C69.8961 86.7623 69.9192 86.7359 69.9522 86.7161C69.9654 86.6799 69.9819 86.6304 70.0017 86.5678C70.0215 86.5051 70.0116 86.459 69.9753 86.426C69.9621 86.4623 69.9555 86.5117 69.9522 86.5711C69.9522 86.6337 69.9291 86.6469 69.8928 86.6172C69.9192 86.5447 69.9456 86.4721 69.972 86.3996C69.9984 86.3271 70.0347 86.2809 70.0842 86.2578C70.0974 86.2216 70.0908 86.215 70.0677 86.2347C70.0446 86.2545 70.038 86.2479 70.0512 86.2117C70.1073 85.9281 70.2063 85.6578 70.3482 85.3973C70.3515 85.4303 70.3482 85.4533 70.3416 85.4632C70.335 85.4731 70.3317 85.4962 70.335 85.5292C70.3812 85.4731 70.3977 85.3841 70.3845 85.2621C70.3779 85.272 70.368 85.2819 70.3614 85.2918C70.368 85.0313 70.4307 84.8071 70.5495 84.6192C70.6088 84.5269 70.6682 84.4346 70.7276 84.3389C70.7573 84.3027 70.7936 84.2664 70.8332 84.2367C70.8728 84.2071 70.9058 84.1642 70.9355 84.1081C70.9652 84.0719 70.9883 84.0257 70.9982 83.973C71.0081 83.9202 71.0312 83.8741 71.0609 83.8378C71.0939 83.818 71.1302 83.8147 71.1764 83.8246C71.2193 83.8378 71.2655 83.8246 71.315 83.785C71.3645 83.762 71.3975 83.7422 71.4107 83.7224C71.4272 83.7026 71.4404 83.6927 71.4602 83.6927C71.6978 83.6696 71.8891 83.607 72.031 83.5048C72.0838 83.5345 72.1663 83.5015 72.2785 83.4026C72.3874 83.3037 72.4633 83.2641 72.4996 83.2773C72.8593 83.1058 73.1727 82.997 73.4334 82.9575C73.6941 82.9179 73.9647 82.8157 74.2419 82.6508C74.2386 82.5981 74.2518 82.5717 74.2881 82.5684C74.3574 82.5981 74.4168 82.5849 74.4663 82.5288C74.6246 83.2278 74.8193 83.9367 75.0437 84.6555C75.2681 85.3742 75.5123 86.0798 75.7763 86.7689C76.0369 87.4613 76.3174 88.1273 76.6111 88.7735C76.9048 89.4197 77.2017 90.0165 77.502 90.5704C77.6208 90.6297 77.6967 90.7221 77.7297 90.8407C77.7627 90.9594 77.8452 91.0584 77.9838 91.1342C78.0333 91.3749 78.129 91.5002 78.2775 91.5167C78.4259 91.5331 78.6371 91.5166 78.9143 91.4606C78.9308 91.4606 78.9506 91.454 78.9737 91.4441C78.9968 91.4342 79.0166 91.4276 79.0331 91.4276C79.109 91.3518 79.1387 91.2694 79.1156 91.1738C79.0925 91.0781 79.0892 90.9891 79.0991 90.9001C79.0298 90.8704 79.0001 90.8506 79.01 90.8407C79.0166 90.8309 79.043 90.821 79.0826 90.8111C79.1222 90.8012 79.1618 90.7781 79.2014 90.7517C79.241 90.7221 79.2674 90.6726 79.2806 90.6034C79.2971 90.6034 79.3136 90.6133 79.3334 90.6396C79.3499 90.666 79.3598 90.6495 79.3565 90.6001C79.3367 90.5671 79.3004 90.5506 79.2443 90.5539C79.1882 90.5572 79.1651 90.5242 79.1783 90.455C79.241 90.4319 79.2905 90.4121 79.3235 90.3924C79.3565 90.3726 79.3961 90.3693 79.4456 90.3858C79.4654 90.4352 79.4984 90.4682 79.5512 90.4847C79.5314 90.4517 79.5314 90.4286 79.5479 90.4187C79.5644 90.4088 79.5809 90.3956 79.5941 90.3759C79.5083 90.3297 79.4786 90.2539 79.5083 90.1484C79.3664 90 79.2542 89.8253 79.1684 89.6241C79.0826 89.4197 78.9836 89.2285 78.8747 89.0439C78.8417 89.0439 78.8186 89.0208 78.8087 88.9713C78.7955 88.9186 78.7724 88.879 78.7394 88.846C78.7031 88.7801 78.6668 88.6812 78.6338 88.5526C78.6008 88.424 78.5414 88.3284 78.4556 88.2657C78.416 88.147 78.36 88.0152 78.294 87.8734C78.228 87.7316 78.2115 87.5701 78.2511 87.3953C78.2148 87.3459 78.1884 87.2667 78.1719 87.1546C78.1554 87.0425 78.1389 86.9436 78.1158 86.8579C78.1389 86.9601 78.1752 87.0096 78.2247 87.0063C78.1686 86.9238 78.1653 86.881 78.2181 86.8777C78.2709 86.9436 78.3171 86.9832 78.3501 86.9997C78.36 87.1381 78.383 87.2799 78.4259 87.425C78.4688 87.5701 78.5018 87.7184 78.5282 87.8734C78.4952 87.8602 78.4721 87.8338 78.4622 87.8009C78.4523 87.7679 78.4391 87.7415 78.4193 87.725C78.4193 87.7778 78.4325 87.8272 78.4523 87.88C78.4721 87.9294 78.4919 87.9888 78.5117 88.058C78.5183 88.0415 78.5216 88.0284 78.5216 88.0152C78.5282 88.1405 78.5711 88.2526 78.6536 88.3482C78.7625 88.4702 78.8021 88.6284 78.7823 88.8197C78.8417 88.7306 78.8582 88.6383 78.8285 88.5427C78.7988 88.4504 78.7592 88.3515 78.7097 88.2526C78.6635 88.1504 78.614 88.0514 78.5678 87.9492C78.5183 87.847 78.5084 87.7349 78.5348 87.6129C78.6569 87.9525 78.7856 88.2558 78.9275 88.5229C79.0694 88.79 79.2146 89.0768 79.3631 89.3801C79.4093 89.3439 79.4456 89.3703 79.4687 89.4659C79.4918 89.5615 79.5446 89.6208 79.6271 89.6505C79.5809 89.4296 79.4984 89.2087 79.3796 88.9878C79.2608 88.7702 79.1783 88.5757 79.1354 88.4042C79.1156 88.3713 79.0991 88.3383 79.0793 88.3053C79.0397 88.1866 78.9935 88.0415 78.9407 87.8701C78.8879 87.6987 78.8615 87.5734 78.8549 87.4843C78.8714 87.4843 78.8747 87.4843 78.8681 87.4975C78.8615 87.5074 78.8648 87.5107 78.8813 87.5107C78.8549 87.3558 78.8186 87.2206 78.7691 87.1019C78.7196 86.9832 78.6998 86.8546 78.7097 86.7161C78.7097 86.6832 78.7031 86.6601 78.6932 86.6535C78.6833 86.6469 78.6701 86.6172 78.6503 86.5645C78.5117 86.2446 78.3963 85.8919 78.294 85.5094C78.195 85.1269 78.0894 84.7478 77.9805 84.3719C77.9574 84.2862 77.9376 84.2268 77.9178 84.1939C77.898 84.1609 77.8848 84.1016 77.8815 84.0158C77.8287 83.7257 77.766 83.4125 77.6934 83.0795C77.6208 82.7465 77.5647 82.4332 77.5284 82.1398C77.5218 82.0376 77.5152 81.9552 77.5119 81.8925C77.5086 81.8332 77.5053 81.7771 77.502 81.7244C77.4987 81.6716 77.4855 81.6222 77.4657 81.5694C77.4459 81.5199 77.4063 81.4441 77.3469 81.3452C77.931 80.9463 78.5183 80.5539 79.109 80.1616C79.6106 79.8714 80.1154 79.5813 80.6203 79.2911C81.0888 78.9614 81.5607 78.635 82.0326 78.3053C82.0491 78.2888 82.1052 78.246 82.1976 78.18C82.29 78.1141 82.3889 78.0415 82.4879 77.9591C82.5902 77.8767 82.6826 77.8042 82.7651 77.7382C82.8509 77.6723 82.9004 77.6426 82.9169 77.6393C82.9829 77.5668 83.0192 77.5404 83.0192 77.5569C83.0687 77.4679 83.105 77.4184 83.1314 77.4085C83.1578 77.3986 83.1941 77.3492 83.2436 77.2601C83.2535 77.2502 83.2601 77.2437 83.27 77.2338C83.2865 77.2338 83.303 77.2239 83.3228 77.2041C83.4416 77.0788 83.5142 76.9634 83.5472 76.8579C83.5901 76.8315 83.6329 76.8018 83.6758 76.7755L83.6791 76.7821ZM69.6255 84.9654C69.6387 84.9291 69.642 84.8862 69.6387 84.8335C69.675 84.8632 69.6717 84.9093 69.6255 84.9654ZM68.8402 89.4494C68.8105 89.4791 68.7973 89.512 68.8006 89.545C68.7643 89.5153 68.761 89.4857 68.7907 89.456C68.8204 89.4263 68.8336 89.3933 68.8303 89.3604C68.8666 89.39 68.8699 89.4197 68.8402 89.4494ZM70.0743 85.361C70.071 85.6578 70.0017 85.882 69.8631 86.0369C69.8004 86.2512 69.7344 86.482 69.6684 86.7227C69.6024 86.9634 69.5298 87.1942 69.4506 87.4118C69.411 87.3656 69.4011 87.3096 69.4209 87.2469C69.4407 87.1843 69.4374 87.1381 69.4209 87.1052C69.6189 86.7524 69.7674 86.3798 69.8598 85.9875C69.9555 85.5951 70.104 85.239 70.3119 84.9225C70.2987 85.1335 70.2195 85.2786 70.0776 85.3643L70.0743 85.361ZM71.9782 83.396C71.9782 83.3795 71.9782 83.363 71.9749 83.3432C72.0046 83.307 72.0376 83.2938 72.0739 83.307C72.0772 83.3597 72.0475 83.3861 71.9782 83.3927V83.396ZM78.5282 88.0119C78.5282 88.0119 78.5282 87.9888 78.5249 87.9756C78.515 87.9492 78.5183 87.9294 78.5348 87.9097C78.5315 87.9459 78.5315 87.9789 78.5315 88.0119H78.5282ZM78.7922 87.4382C78.8054 87.4975 78.8285 87.5701 78.8681 87.6558C78.8318 87.6228 78.7988 87.5602 78.7691 87.4679C78.7394 87.3755 78.7229 87.3096 78.7196 87.2766C78.7559 87.3261 78.779 87.3821 78.7922 87.4415V87.4382ZM76.984 87.603C76.9411 87.4679 76.9081 87.3393 76.8817 87.2206C76.9543 87.303 77.0071 87.4184 77.0434 87.5734C77.0796 87.7283 77.1027 87.8734 77.1093 88.0119C77.0664 87.8767 77.0236 87.7415 76.9807 87.6063L76.984 87.603ZM77.1555 88.0976C77.1621 88.0712 77.1555 88.0514 77.139 88.035C77.172 88.0152 77.1885 88.0415 77.1951 88.1075C77.1621 88.1273 77.1489 88.124 77.1555 88.0976ZM77.6604 88.3614C77.6439 88.3449 77.6274 88.3251 77.6175 88.2987C77.6076 88.2723 77.6109 88.2591 77.6274 88.2591C77.6769 88.2559 77.6868 88.2888 77.6604 88.3614ZM77.6769 87.4744C77.7165 87.5602 77.7462 87.6492 77.7693 87.7415C77.7924 87.8338 77.8056 87.9327 77.8122 88.0382C77.7429 88.0086 77.7033 87.9591 77.6901 87.8899C77.6769 87.8206 77.6505 87.7547 77.6142 87.6855C77.5416 87.5866 77.5086 87.4942 77.5218 87.4052C77.4492 87.3063 77.3799 87.1777 77.3205 87.0162C77.2611 86.8546 77.2248 86.6963 77.2116 86.5414C77.304 86.6733 77.3766 86.8315 77.4327 87.0195C77.4855 87.2074 77.568 87.3557 77.6769 87.4711V87.4744ZM80.5708 74.8401C80.4751 75.061 80.3629 75.2555 80.2309 75.4171C79.759 75.8589 79.3334 76.2348 78.9473 76.5348C78.5612 76.8381 78.096 77.1447 77.5581 77.4613C76.7827 77.9163 76.0006 78.3515 75.212 78.7702C74.4234 79.1889 73.6413 79.6076 72.8626 80.0264C72.8362 80.0264 72.8098 80.0297 72.7867 80.033C72.7867 80 72.7801 79.9637 72.7768 79.9308C72.9352 79.5681 73.1035 79.1658 73.2849 78.724C73.4664 78.2822 73.6512 77.8536 73.8459 77.4382C73.9218 77.2931 74.0109 77.1381 74.1099 76.9733C74.2122 76.8084 74.2584 76.5974 74.2551 76.337C74.2551 76.1457 74.2122 75.9578 74.1165 75.7765C74.0208 75.5951 73.9482 75.4105 73.8987 75.2225C73.9779 75.1104 74.0901 75.0313 74.2386 74.9852C74.3838 74.939 74.5289 74.8928 74.6675 74.8467C75.1163 74.6884 75.5519 74.5763 75.9742 74.5071C76.3966 74.4411 76.8619 74.3554 77.37 74.2499C78.0366 74.118 78.5942 74.0488 79.0397 74.0488C79.4852 74.0488 79.9702 74.1279 80.4949 74.2895C80.6434 74.4379 80.6731 74.6225 80.5774 74.8434L80.5708 74.8401Z" fill="#C33130"/>
<path d="M101.705 79.1296C101.705 79.1296 101.682 79.143 101.672 79.1497C101.672 79.1497 101.672 79.153 101.672 79.1564C101.682 79.1463 101.695 79.1397 101.705 79.1296Z" fill="#C33130"/>
<path d="M105.723 75.8721C105.7 75.7501 105.726 75.6677 105.806 75.6248C105.885 75.582 105.934 75.5193 105.957 75.4303C106.159 75.0676 106.274 74.7083 106.307 74.3489C106.34 73.9928 106.334 73.673 106.287 73.3927C106.264 73.34 106.274 73.2839 106.32 73.2213C106.367 73.1619 106.33 73.096 106.218 73.0235C106.218 72.8322 106.172 72.6938 106.079 72.6146C105.987 72.5355 105.885 72.4333 105.773 72.308C105.406 71.9157 105.007 71.609 104.571 71.3848C104.136 71.1606 103.552 70.9925 102.819 70.8837C102.43 70.7947 101.984 70.7188 101.48 70.6562C100.975 70.5968 100.506 70.5836 100.077 70.6232C99.734 70.6232 99.4601 70.6232 99.2556 70.6166C99.051 70.61 98.8398 70.6034 98.622 70.5968C98.4042 70.5902 98.1435 70.5968 97.8367 70.61C97.5298 70.6232 97.1272 70.6529 96.6257 70.699C95.7644 70.8045 94.9791 70.8969 94.2663 70.9727C93.5536 71.0485 92.854 71.1408 92.1677 71.2463C91.4814 71.3552 90.7983 71.4936 90.1219 71.6684C89.4421 71.8431 88.7195 72.0739 87.9506 72.3674C87.9044 72.3674 87.878 72.3772 87.8681 72.3838C87.8582 72.3937 87.8318 72.4069 87.7889 72.4267C87.5217 72.4597 87.3006 72.5355 87.129 72.6509C86.9574 72.7663 86.7891 72.9081 86.6241 73.0762C86.4624 73.2806 86.3997 73.4686 86.4393 73.64C86.469 73.7257 86.5152 73.7851 86.5746 73.8148C86.634 73.8444 86.667 73.9038 86.6736 73.9928C86.7198 74.0258 86.7297 74.0587 86.7 74.095C86.6703 74.1313 86.6802 74.1939 86.733 74.2764C86.8254 74.3225 86.8419 74.3654 86.7792 74.4049C86.7165 74.4445 86.7198 74.4973 86.7924 74.5599C86.9376 74.6885 86.997 74.7808 86.9673 74.8369C86.9376 74.8896 86.9739 74.9753 87.0729 75.0907C87.2346 75.1501 87.4227 75.1995 87.6404 75.2391C87.8549 75.2787 88.1189 75.305 88.4357 75.3215C88.5215 75.2655 88.5413 75.2622 88.5017 75.3182C88.4621 75.3743 88.4951 75.371 88.6007 75.3116C88.7129 75.305 88.8053 75.282 88.8811 75.2424C88.957 75.2028 89.0395 75.1797 89.1286 75.1764C89.2408 75.2061 89.3398 75.1633 89.4223 75.0545C89.5015 74.9457 89.5675 74.916 89.617 74.9654C89.0428 75.9579 88.4918 77.0129 87.9539 78.1372C87.4194 79.2615 86.8947 80.3561 86.3799 81.4211C85.9807 81.5728 85.7629 81.8068 85.7266 82.1234C85.753 82.1926 85.786 82.2421 85.8223 82.275C85.8586 82.308 85.8982 82.341 85.9444 82.3706C85.6045 83.1652 85.2844 83.8906 84.9809 84.55C84.6773 85.2094 84.4199 85.9612 84.2021 86.7986C84.1163 86.9997 84.0503 87.2074 84.0074 87.4316C83.9645 87.6525 83.9018 87.8636 83.816 88.0647C83.7599 88.5757 83.6741 89.0868 83.5554 89.5945C83.4366 90.1023 83.4531 90.577 83.5983 91.0188C83.6445 91.0683 83.717 91.1277 83.816 91.1969C83.915 91.2661 84.0701 91.2925 84.2747 91.276C84.4331 91.1771 84.575 91.0584 84.7103 90.9265C84.8423 90.7946 85.0303 90.7782 85.2679 90.8837C85.39 90.8408 85.4659 90.7782 85.5022 90.6957C85.5352 90.6133 85.5814 90.5276 85.6342 90.4353C85.6771 90.4682 85.6936 90.5276 85.6804 90.6166C85.6672 90.7056 85.7035 90.7617 85.7893 90.7913C85.8256 90.7188 85.8619 90.6628 85.9015 90.6265C85.9411 90.5869 85.9543 90.5276 85.9477 90.4386C86.0104 90.4353 86.0335 90.4583 86.017 90.5111C86.0005 90.5639 86.0236 90.5902 86.0863 90.5836C86.1028 90.5309 86.1325 90.4583 86.1787 90.3693C86.2216 90.277 86.2645 90.2012 86.3008 90.1385C86.337 90.0759 86.3667 90.0462 86.3865 90.0528C86.4063 90.0594 86.4129 90.1253 86.403 90.2473C86.4591 90.1913 86.4921 90.1418 86.4987 90.0957C86.5053 90.0528 86.5581 90.0099 86.6604 89.9671C86.6835 90.0001 86.7066 90.0429 86.733 90.0924C86.7561 90.1418 86.8155 90.2078 86.9046 90.2902C86.8881 90.3265 86.865 90.3858 86.8419 90.4649C86.8155 90.5441 86.7858 90.6034 86.7462 90.643C86.7462 90.6595 86.7759 90.6727 86.8254 90.676C86.8782 90.6825 86.9244 90.6825 86.9673 90.6793C87.0663 90.6199 87.1323 90.5342 87.1653 90.4155C87.1983 90.3001 87.2643 90.221 87.3666 90.1781C87.3369 90.0759 87.3336 90.0067 87.3501 89.9704C87.3699 89.9506 87.3765 89.9242 87.3765 89.8913C87.3765 89.855 87.393 89.8385 87.4359 89.8352C87.68 89.2417 87.911 88.6746 88.1222 88.1273C88.3334 87.5833 88.5413 86.9799 88.7459 86.3238C88.835 86.0733 88.9372 85.8293 89.0593 85.5853C89.1781 85.3413 89.2738 85.0973 89.3431 84.85C89.5081 84.4907 89.7127 84.1049 89.9503 83.6928C90.1912 83.2773 90.4254 82.8751 90.6597 82.4795C91.3428 82.3575 91.9796 82.2091 92.5769 82.0278C93.1708 81.8464 93.712 81.6519 94.2003 81.4442C94.1806 81.4804 94.1541 81.5068 94.1245 81.5266C94.0915 81.5464 94.0684 81.5794 94.0486 81.6354C94.0684 81.6354 94.0321 81.6585 93.9397 81.7046C93.844 81.7508 93.7351 81.8003 93.6064 81.8464C93.4777 81.8959 93.3622 81.9387 93.2566 81.9783C93.151 82.0179 93.118 82.0343 93.1609 82.0343C93.2071 82.0673 93.2236 82.0838 93.2137 82.0838C93.2038 82.0838 93.2203 82.0937 93.2632 82.1069C93.3688 82.0673 93.4744 82.031 93.58 81.9915C93.6856 81.9519 93.8143 81.9124 93.9628 81.8728C93.9826 81.8365 93.9694 81.8299 93.9298 81.8464C93.8869 81.8662 93.877 81.8563 93.8968 81.82C94.0024 81.7805 94.0816 81.7442 94.1343 81.7079C94.1871 81.6717 94.2993 81.642 94.4709 81.6189C94.4907 81.6024 94.5006 81.5826 94.5006 81.5662C94.5006 81.5299 94.5072 81.5134 94.5303 81.5134C94.5534 81.5299 94.5699 81.5332 94.5798 81.5266C94.5897 81.5167 94.6161 81.52 94.6623 81.5365C94.791 81.4969 94.8933 81.464 94.9659 81.4343C95.0418 81.4046 95.0979 81.3782 95.1408 81.3519C95.1837 81.3255 95.2398 81.2925 95.3157 81.2562C95.3883 81.22 95.4905 81.1804 95.6192 81.1441C95.6192 81.154 95.6192 81.1606 95.6192 81.1705C95.639 81.1705 95.6885 81.1705 95.7677 81.1804C95.8436 81.187 95.9261 81.1969 96.0119 81.2134C96.101 81.2299 96.1802 81.2398 96.2561 81.2463C96.332 81.2529 96.3815 81.2562 96.4046 81.2562C96.5762 81.1837 96.6719 81.131 96.6917 81.1046C96.7115 81.0782 96.7214 81.0551 96.7214 81.0386C96.7214 81.0221 96.7379 81.0024 96.7676 80.9859C96.8006 80.9694 96.9226 80.9232 97.1371 80.8474C97.2031 80.8276 97.2394 80.8474 97.2526 80.8969C97.2658 80.9496 97.2724 80.9562 97.2691 80.9232C97.6123 80.7947 97.9555 80.6463 98.2986 80.4748C98.6418 80.3034 98.9652 80.1385 99.2655 79.9803C99.3743 79.9638 99.5195 79.9077 99.7043 79.8187C99.8891 79.7297 99.9782 79.6671 99.9782 79.6341C100.021 79.5978 100.087 79.5681 100.173 79.5418C100.259 79.5154 100.358 79.5022 100.467 79.5022C100.424 79.5714 100.381 79.6176 100.338 79.6341C100.513 79.5714 100.684 79.5121 100.859 79.4494C100.793 79.4857 100.724 79.5187 100.648 79.555C100.572 79.5912 100.513 79.6341 100.47 79.6868C100.556 79.6506 100.645 79.6242 100.731 79.6077C100.816 79.5912 100.892 79.5648 100.958 79.5286C100.935 79.5121 100.909 79.5154 100.876 79.5418C100.843 79.5681 100.806 79.5648 100.76 79.5286C100.955 79.4758 101.14 79.4099 101.315 79.3308C101.47 79.2615 101.585 79.2022 101.671 79.1527C101.654 79.1197 101.671 79.0934 101.72 79.067C101.773 79.0406 101.77 79.0109 101.701 78.9747C101.918 78.9054 102.103 78.8098 102.255 78.6878C102.407 78.5658 102.572 78.4801 102.747 78.4274C102.856 78.3416 102.958 78.2559 103.057 78.1669C103.156 78.0812 103.225 78.0218 103.271 77.9855C103.314 77.9163 103.337 77.8899 103.337 77.9064C103.337 77.9427 103.446 77.8932 103.667 77.7646C103.888 77.6361 104.129 77.4646 104.393 77.2503C104.657 77.036 104.918 76.8052 105.172 76.5546C105.426 76.3073 105.611 76.0765 105.72 75.8688L105.723 75.8721ZM100.163 79.3802C100.054 79.4066 99.9881 79.4297 99.9683 79.4462C99.8396 79.5352 99.6878 79.6275 99.5162 79.7231C99.3447 79.822 99.1401 79.9143 98.9025 80.0034C98.9454 79.9341 98.9916 79.888 99.0444 79.8715C99.0972 79.855 99.1467 79.8187 99.1896 79.766C99.0378 79.7857 98.8761 79.8682 98.7045 80.0198C98.5329 80.1715 98.3943 80.2473 98.2854 80.2473C98.2656 80.2638 98.2524 80.2572 98.2524 80.221C98.2326 80.2572 98.2095 80.2704 98.1897 80.2605C98.1666 80.2539 98.104 80.2671 97.9951 80.3034C98.1435 80.1616 98.3151 80.0528 98.5098 79.9803C98.7045 79.9077 98.8761 79.8187 99.0279 79.7132C99.3117 79.6934 99.5393 79.6341 99.7109 79.5385C99.8825 79.4429 100.09 79.3472 100.328 79.2615C100.328 79.3143 100.275 79.3538 100.166 79.3802H100.163ZM100.737 79.3505C100.661 79.4132 100.602 79.4264 100.556 79.3901C100.599 79.3044 100.645 79.2549 100.701 79.245C100.754 79.2351 100.826 79.2219 100.915 79.2055C100.872 79.2417 100.813 79.2879 100.737 79.3505ZM101.499 74.794C101.311 74.9424 101.186 75.0512 101.12 75.1204C101.011 75.2259 100.876 75.338 100.711 75.4633C100.546 75.5853 100.364 75.6908 100.166 75.7798C99.7934 75.9908 99.3809 76.2183 98.9355 76.459C98.4867 76.6997 98.0479 76.9206 97.6123 77.1184C97.0051 77.425 96.5333 77.6591 96.2 77.8141C95.8634 77.9691 95.5466 78.1042 95.2431 78.2196C94.9395 78.3317 94.5963 78.4603 94.2069 78.6054C93.8176 78.7505 93.2698 78.9483 92.5604 79.2022C92.6165 79.0604 92.6429 78.9285 92.6363 78.8065C92.6297 78.6845 92.7089 78.5493 92.8771 78.4043C93.0124 78.0845 93.1972 77.7679 93.4348 77.4547C93.6691 77.1415 93.8704 76.8316 94.0288 76.5315C94.0915 76.459 94.1146 76.4096 94.1047 76.3865C94.0915 76.3601 94.075 76.3436 94.0519 76.337C94.0288 76.3304 94.0123 76.3106 93.9991 76.2876C93.9859 76.2612 94.0123 76.2051 94.0717 76.1161C94.2432 75.9875 94.395 75.8128 94.527 75.5919C94.659 75.371 94.7778 75.1699 94.8801 74.9918C94.9197 74.8698 94.89 74.7643 94.7976 74.6819C94.7019 74.5962 94.6524 74.5038 94.6491 74.3983C94.89 74.3027 95.0649 74.2467 95.1771 74.2269C95.2893 74.2071 95.4213 74.1774 95.5763 74.1379C96.0185 74.0225 96.3452 73.9433 96.5597 73.9038C96.7709 73.8642 97.0678 73.8148 97.4473 73.7554C97.5595 73.7719 97.6783 73.7653 97.8004 73.7356C97.9225 73.706 98.0743 73.6829 98.2524 73.6631C98.4108 73.6631 98.6517 73.6631 98.9784 73.6664C99.3051 73.673 99.5921 73.6664 99.8396 73.6466C99.9749 73.6631 100.094 73.6763 100.196 73.6829C100.298 73.6928 100.417 73.6763 100.549 73.64C100.684 73.6763 100.793 73.6829 100.869 73.6664C100.948 73.6499 101.044 73.6565 101.156 73.6928C101.315 73.762 101.476 73.8312 101.635 73.9038C101.793 73.973 101.852 74.1577 101.816 74.4544C101.796 74.5434 101.691 74.6588 101.506 74.8072L101.499 74.794Z" fill="#C33130"/>
<path d="M99.8804 79.799C99.8144 79.8088 99.7616 79.8319 99.7188 79.8649C99.7715 79.8385 99.8276 79.822 99.8804 79.799Z" fill="#C33130"/>
<path d="M99.8809 79.799C99.9469 79.7891 99.9997 79.7693 100.043 79.733C99.9865 79.7495 99.9337 79.7759 99.8809 79.799Z" fill="#C33130"/>
<path d="M100.335 79.6274C100.236 79.6637 100.14 79.6967 100.041 79.733C100.107 79.7165 100.203 79.6802 100.335 79.6274Z" fill="#C33130"/>
<path d="M123.446 72.6443C123.38 72.6344 123.311 72.6245 123.245 72.6179C123.037 72.5553 122.809 72.4926 122.565 72.4333C122.318 72.3739 122.117 72.3443 121.961 72.341C120.906 72.1662 119.958 72.1003 119.124 72.1366C118.289 72.1728 117.457 72.2355 116.629 72.3245C116.022 72.3674 115.415 72.4102 114.808 72.4597C114.844 72.4992 114.847 72.5091 114.821 72.486C114.794 72.4663 114.748 72.43 114.685 72.3805C114.623 72.3311 114.553 72.275 114.484 72.2124C114.412 72.153 114.359 72.1102 114.323 72.0904C114.214 72.008 114.138 71.9321 114.098 71.8563C114.055 71.7805 114.019 71.7244 113.983 71.6849C113.927 71.6519 113.87 71.6222 113.818 71.5892C113.742 71.5629 113.666 71.5398 113.59 71.5134C113.62 71.5134 113.649 71.52 113.676 71.52C113.478 71.3585 113.234 71.3552 112.947 71.5068C112.798 71.6354 112.65 71.764 112.504 71.8926C112.399 71.9717 112.29 72.0739 112.171 72.1959C112.052 72.3179 111.98 72.4498 111.947 72.5883C111.564 73.1949 111.135 73.7818 110.656 74.3456C110.178 74.9127 109.756 75.5095 109.383 76.1359C109.017 76.6766 108.647 77.2338 108.277 77.8108C107.905 78.3878 107.558 78.9747 107.235 79.5747C107.066 79.8649 106.895 80.155 106.726 80.4452C106.72 80.5507 106.677 80.61 106.601 80.6232C106.601 80.6397 106.594 80.6595 106.585 80.676C106.575 80.6924 106.568 80.7122 106.568 80.7287C106.505 80.8474 106.439 80.9826 106.373 81.1277C106.307 81.2727 106.205 81.4145 106.067 81.5464C105.746 82.1992 105.449 82.8817 105.172 83.5906C104.898 84.2994 104.628 85.0479 104.364 85.8293C104.341 85.9084 104.318 85.9875 104.295 86.0634C104.275 86.0963 104.245 86.1623 104.202 86.2579C104.159 86.3535 104.136 86.4359 104.133 86.5052C103.968 86.9733 103.806 87.4448 103.645 87.913C103.618 88.035 103.598 88.1801 103.579 88.3482C103.559 88.5164 103.549 88.6845 103.549 88.8527C103.549 89.0208 103.569 89.1758 103.615 89.3209C103.658 89.4659 103.734 89.5681 103.836 89.6242C103.965 89.8253 104.031 89.9671 104.034 90.0462C104.037 90.1253 104.1 90.188 104.222 90.2309C104.308 90.2539 104.38 90.2902 104.44 90.3364C104.499 90.3825 104.578 90.4287 104.684 90.4715C104.836 90.6034 104.955 90.6727 105.04 90.6793C105.07 90.7518 105.12 90.8045 105.189 90.8342C105.258 90.8639 105.308 90.9002 105.341 90.9364C105.393 90.9232 105.449 90.9067 105.502 90.8936C105.588 90.9265 105.674 90.9595 105.76 90.9892C106.05 91.131 106.327 91.1771 106.598 91.1277C106.865 91.0749 107.109 91.032 107.324 90.9925C107.304 91.009 107.386 90.9826 107.568 90.9166C107.749 90.8507 107.891 90.7683 107.987 90.6694C108.205 90.5968 108.426 90.5243 108.644 90.4551C108.723 90.4616 108.802 90.4682 108.881 90.4748C108.974 90.4452 109.086 90.4287 109.218 90.4221C109.353 90.4155 109.449 90.3693 109.511 90.2869C109.934 90.155 110.356 90.0231 110.779 89.8913C110.851 89.8616 110.924 89.8517 110.996 89.8583C111.109 89.7989 111.175 89.7627 111.194 89.7561C111.214 89.7495 111.241 89.7462 111.277 89.7495C111.399 89.7594 111.508 89.7627 111.597 89.7528C111.646 89.7132 111.696 89.6736 111.742 89.6341C111.927 89.5615 112.092 89.5352 112.234 89.5484C112.283 89.4297 112.343 89.3538 112.419 89.3275C112.494 89.2978 112.567 89.2813 112.64 89.2681C112.775 89.245 112.914 89.2252 113.052 89.2022C113.069 89.2219 113.095 89.2318 113.128 89.2384C113.138 89.2384 113.145 89.2384 113.154 89.2384C113.227 89.2285 113.333 89.2121 113.468 89.189C113.606 89.1692 113.692 89.1395 113.732 89.1098C113.709 89.0901 113.682 89.0703 113.659 89.0472C113.755 88.9879 113.894 88.9285 114.068 88.8758C114.247 88.823 114.408 88.7867 114.553 88.767C114.544 88.767 114.537 88.767 114.527 88.767C114.636 88.7604 114.745 88.7538 114.854 88.7505C114.897 88.7538 114.943 88.7604 114.989 88.7637C115.025 88.767 115.058 88.7703 115.095 88.7768C115.131 88.7801 115.22 88.7208 115.359 88.5922C115.388 88.5691 115.418 88.546 115.448 88.523C115.468 88.5065 115.494 88.5032 115.53 88.5065C116.028 88.3482 116.527 88.1933 117.028 88.0383C117.015 88.002 117.002 87.9625 116.989 87.9262C116.979 87.9262 116.972 87.9262 116.962 87.9262C117.018 87.9064 117.078 87.8866 117.134 87.8669C117.15 87.8669 117.167 87.8669 117.177 87.8603C117.187 87.8537 117.2 87.8504 117.22 87.8504C117.226 87.7976 117.233 87.7449 117.239 87.6921C117.239 87.6756 117.253 87.6657 117.269 87.669C117.286 87.669 117.315 87.6657 117.352 87.6525C117.447 87.6097 117.55 87.5734 117.652 87.5404C117.758 87.5075 117.929 87.4613 118.177 87.4053C118.289 87.3822 118.421 87.3525 118.573 87.3064C118.724 87.2635 118.863 87.2404 118.992 87.2404C119.12 87.2404 119.242 87.2239 119.355 87.1943C119.47 87.1646 119.579 87.0953 119.685 86.9832C119.596 86.9536 119.539 86.9371 119.513 86.9338C119.487 86.9305 119.464 86.9272 119.447 86.9239C119.44 86.914 119.431 86.9041 119.424 86.8942C119.447 86.8612 119.493 86.8217 119.563 86.7788C119.632 86.7327 119.695 86.7063 119.754 86.6964C119.625 86.6964 119.546 86.6964 119.52 86.6931C119.493 86.6898 119.46 86.6865 119.424 86.6799C119.464 86.6667 119.506 86.6404 119.559 86.6041C119.609 86.5678 119.685 86.5249 119.78 86.4854C119.78 86.4953 119.78 86.5019 119.777 86.5118C119.817 86.4986 119.85 86.4755 119.883 86.4458C119.916 86.4129 119.965 86.403 120.038 86.4128C120.051 86.3238 120.074 86.2744 120.114 86.2612C120.137 86.2282 120.156 86.2084 120.176 86.2018C120.196 86.1952 120.206 86.1755 120.213 86.1392C120.18 86.0996 120.133 86.0766 120.071 86.0667C120.008 86.0568 119.958 86.0502 119.922 86.0469C119.803 86.0304 119.688 86.0172 119.569 86.0007C119.628 85.9743 119.668 85.9381 119.694 85.8952C119.718 85.8523 119.747 85.8359 119.784 85.8392C119.787 85.8029 119.793 85.7699 119.797 85.7337C119.833 85.737 119.866 85.7304 119.896 85.7073C119.925 85.6842 119.925 85.6545 119.896 85.6117C119.935 85.582 119.978 85.5688 120.024 85.5754C120.071 85.582 120.114 85.5688 120.153 85.5391C120.374 85.549 120.493 85.4963 120.51 85.371C120.546 85.2523 120.51 85.1567 120.397 85.0874C120.285 85.0182 120.143 84.9687 119.975 84.9391C119.803 84.9061 119.625 84.883 119.444 84.8698C119.262 84.8566 119.124 84.8434 119.031 84.8303C118.734 84.8467 118.464 84.8632 118.223 84.8764C117.982 84.8929 117.758 84.9127 117.55 84.9424C117.296 84.9819 117.041 85.0248 116.787 85.0677C116.487 85.1237 116.177 85.1699 115.86 85.216C115.543 85.2622 115.223 85.3281 114.9 85.4171C114.395 85.5128 113.89 85.6117 113.385 85.7139C112.656 85.8886 111.927 86.07 111.201 86.2513C111.013 86.3139 110.825 86.3766 110.64 86.4425C110.399 86.5118 110.181 86.5678 109.987 86.614C109.792 86.6601 109.61 86.7129 109.442 86.7689C109.241 86.8052 109.092 86.825 109.003 86.825C108.911 86.825 108.786 86.8382 108.621 86.8613C108.089 86.9635 107.924 86.7459 108.132 86.2117C108.139 86.1227 108.139 86.093 108.126 86.1194C108.116 86.1458 108.122 86.1161 108.145 86.0271C108.192 85.8886 108.225 85.7765 108.241 85.6875C108.258 85.5985 108.317 85.4732 108.423 85.3017C108.723 84.7313 109.026 84.1577 109.33 83.5873C109.396 83.4785 109.459 83.3664 109.525 83.2576C109.61 83.1059 109.7 82.9476 109.785 82.7861C109.874 82.6245 109.957 82.5025 110.039 82.4201C110.135 82.3937 110.234 82.3739 110.336 82.3641C110.439 82.3542 110.534 82.3542 110.627 82.3641C110.788 82.4135 110.907 82.4135 110.986 82.3674C111.066 82.3212 111.142 82.275 111.221 82.2289C111.313 82.219 111.392 82.2025 111.462 82.1827C111.528 82.1629 111.607 82.1563 111.699 82.1629C111.933 82.1399 112.168 82.1168 112.402 82.0937C112.478 82.064 112.567 82.0508 112.669 82.0508C112.772 82.0508 112.857 82.0541 112.933 82.064C113.088 82.008 113.201 81.9783 113.276 81.9783C113.349 81.9783 113.418 81.9618 113.478 81.9321C113.702 81.919 113.917 81.8992 114.125 81.8761C114.332 81.853 114.484 81.82 114.583 81.7772C114.692 81.7178 114.801 81.6585 114.91 81.5991C115.045 81.5596 115.21 81.5299 115.411 81.5035C115.609 81.4804 115.84 81.4738 116.101 81.4837C116.273 81.4673 116.441 81.4508 116.613 81.4343C116.745 81.4145 116.88 81.3848 117.015 81.3453C117.15 81.3057 117.289 81.3156 117.434 81.3683C117.513 81.342 117.596 81.3354 117.692 81.3453C117.784 81.3552 117.866 81.3584 117.946 81.3453C118.302 81.3519 118.5 81.3222 118.546 81.2562C118.553 81.2035 118.559 81.1507 118.566 81.098C118.589 81.065 118.615 81.0419 118.645 81.0287C118.675 81.0156 118.691 80.9892 118.698 80.9529C118.787 80.9265 118.873 80.9035 118.962 80.8771C118.929 80.8375 118.932 80.8111 118.972 80.7979C119.011 80.7848 119.048 80.7815 119.087 80.7848C119.107 80.7848 119.134 80.7848 119.173 80.7683C119.213 80.7551 119.242 80.7485 119.259 80.7518C119.457 80.6858 119.579 80.61 119.629 80.5177C119.678 80.4254 119.642 80.3462 119.52 80.277C119.464 80.2704 119.447 80.2605 119.467 80.244C119.563 80.2374 119.586 80.2309 119.539 80.2276C119.493 80.221 119.338 80.2012 119.081 80.1715C118.998 80.1616 118.912 80.1517 118.83 80.1418C118.84 80.0726 118.856 79.9968 118.886 79.9209C118.916 79.8451 118.949 79.789 118.992 79.7594C119.084 79.7693 119.134 79.7594 119.137 79.7231C119.137 79.7066 119.16 79.7 119.196 79.7033C119.279 79.6605 119.358 79.6176 119.44 79.5714C119.437 79.5978 119.434 79.6242 119.431 79.6506C119.559 79.5945 119.691 79.5385 119.82 79.4857C119.873 79.4462 119.925 79.4099 119.978 79.3703C119.982 79.3341 119.991 79.3011 120.005 79.2681C120.018 79.2351 120.028 79.1989 120.031 79.1659C120.031 79.1131 120.024 79.0571 120.024 79.0043C119.698 78.8922 119.325 78.8197 118.912 78.7867C118.5 78.7538 118.101 78.7538 117.718 78.7801C117.52 78.7834 117.319 78.7867 117.121 78.7933C116.273 78.7703 115.415 78.7834 114.55 78.8395C113.686 78.8955 112.871 78.9846 112.108 79.1131C112.237 78.9285 112.402 78.7307 112.603 78.5164C112.801 78.3054 113.006 78.0878 113.217 77.8669C113.428 77.646 113.626 77.4251 113.808 77.2041C113.989 76.9832 114.131 76.7788 114.227 76.5909C114.247 76.5744 114.27 76.5579 114.29 76.5447C114.309 76.5447 114.319 76.5381 114.319 76.5217C114.309 76.5118 114.303 76.5019 114.293 76.492C114.323 76.4755 114.352 76.4623 114.382 76.4458C114.438 76.2546 114.567 76.1392 114.761 76.0963C114.956 76.0535 115.141 76.0139 115.319 75.9809C115.405 75.971 115.494 75.9644 115.58 75.9546C115.675 75.948 115.824 75.9117 116.022 75.8523C116.22 75.793 116.448 75.7337 116.702 75.671C116.959 75.6084 117.213 75.549 117.47 75.4897C117.665 75.4765 117.784 75.4666 117.833 75.4633C117.883 75.46 117.926 75.4633 117.962 75.4633C118.117 75.4534 118.272 75.4468 118.427 75.4369C118.467 75.4402 118.51 75.4435 118.556 75.4369C118.606 75.4369 118.668 75.427 118.747 75.4204C118.784 75.4237 118.84 75.4204 118.906 75.4138C118.975 75.4039 119.038 75.3941 119.097 75.3842C119.176 75.3776 119.233 75.3644 119.275 75.3512C119.374 75.3281 119.45 75.3314 119.506 75.3644C119.559 75.3974 119.605 75.4171 119.645 75.4204C119.721 75.4303 119.77 75.4204 119.793 75.3974C119.817 75.3743 119.856 75.3545 119.916 75.3446C119.995 75.3182 120.074 75.3182 120.147 75.3446C120.242 75.338 120.345 75.338 120.45 75.3446C120.556 75.3479 120.655 75.3578 120.75 75.3677C120.902 75.3875 121.051 75.3875 121.199 75.371C121.348 75.3545 121.506 75.2853 121.678 75.1666C121.757 75.1402 121.839 75.1171 121.919 75.0907C121.928 75.0907 121.938 75.0907 121.948 75.094C121.968 75.094 121.978 75.094 121.978 75.0841C121.978 75.0742 121.988 75.0709 122.008 75.0742C122.06 75.0446 122.113 75.0182 122.166 74.9885C122.295 74.8995 122.371 74.7577 122.397 74.5632C122.512 74.5632 122.559 74.5137 122.532 74.4214C122.555 74.4049 122.575 74.3918 122.598 74.3753C122.638 74.3819 122.674 74.3852 122.714 74.3918C122.767 74.2928 122.806 74.2137 122.836 74.1544C122.862 74.095 123.001 74.0917 123.245 74.1445C123.093 73.9631 123.047 73.7818 123.1 73.6005C123.153 73.4191 123.344 73.2806 123.671 73.1817C123.852 73.0103 123.908 72.8883 123.839 72.8158C123.77 72.7432 123.641 72.6872 123.45 72.641L123.446 72.6443Z" fill="#C33130"/>
<path d="M145.569 77.1942C145.579 77.1514 145.589 77.1085 145.599 77.0656C145.688 77.0887 145.761 77.0854 145.813 77.0656C145.83 76.9964 145.754 76.9173 145.586 76.8216C145.553 76.8151 145.516 76.8052 145.483 76.7986C145.54 76.759 145.566 76.7227 145.563 76.6964C145.556 76.6667 145.553 76.6172 145.546 76.5447C145.599 76.5315 145.648 76.515 145.701 76.5018C145.734 76.3205 145.764 76.1392 145.797 75.9545C145.681 75.8358 145.48 75.7303 145.19 75.6347C144.899 75.5391 144.576 75.4402 144.216 75.338C143.774 75.2358 143.329 75.1336 142.887 75.0313C142.834 75.0182 142.804 75.0116 142.784 75.0083C142.807 75.0149 142.814 75.0083 142.804 74.9984C142.794 74.9885 142.755 74.9753 142.689 74.9588C142.484 74.9126 142.352 74.883 142.296 74.8698C142.24 74.8566 142.223 74.85 142.246 74.8467C142.27 74.8434 142.319 74.8401 142.392 74.8401C142.464 74.8401 142.52 74.8401 142.566 74.8533C142.431 74.8236 142.322 74.7972 142.243 74.7808C142.164 74.7643 142.091 74.7478 142.022 74.7313C141.953 74.7148 141.88 74.6983 141.801 74.6818C141.722 74.6654 141.603 74.639 141.441 74.6027C141.045 74.5533 140.676 74.5005 140.333 74.4445C139.986 74.3884 139.656 74.3258 139.336 74.2598C139.039 74.1972 138.745 74.151 138.458 74.1181C138.168 74.0851 137.815 74.0521 137.392 74.0224C137.135 74.006 136.772 73.9895 136.304 73.9664C135.835 73.9466 135.337 73.9037 134.805 73.8378C134.083 73.7916 133.37 73.7653 132.667 73.7653C131.964 73.7653 131.446 73.7719 131.116 73.785C131.13 73.7785 131.143 73.7719 131.156 73.7653C130.8 73.7916 130.536 73.8048 130.361 73.8015C130.186 73.8015 130.041 73.7982 129.925 73.7949C129.81 73.7949 129.697 73.7883 129.595 73.7785C129.49 73.7719 129.348 73.7587 129.163 73.7488C128.859 73.7488 128.688 73.7686 128.648 73.7982C128.609 73.8279 128.602 73.8675 128.628 73.9136C128.655 73.9631 128.661 74.0027 128.645 74.0356C128.628 74.0686 128.49 74.0917 128.232 74.1016C128.206 74.1148 128.193 74.1279 128.193 74.1345C128.193 74.1444 128.176 74.1543 128.153 74.1675C128.127 74.1807 128.114 74.1972 128.11 74.2137C127.929 74.2565 127.747 74.2994 127.566 74.3423C127.566 74.3587 127.549 74.3752 127.523 74.3884C127.493 74.4379 127.46 74.484 127.431 74.5335C127.302 74.6027 127.18 74.7181 127.064 74.8764C126.946 75.0346 126.827 75.2127 126.705 75.4072C126.612 75.5523 126.559 75.6677 126.546 75.7567C126.533 75.8424 126.5 75.9018 126.451 75.9281C126.361 76.0468 126.276 76.1688 126.19 76.2875C126.276 76.3172 126.312 76.3469 126.299 76.37C126.282 76.393 126.246 76.4194 126.183 76.4458C126.121 76.4722 126.061 76.4952 126.002 76.5117C125.942 76.5282 125.923 76.548 125.942 76.5678C125.906 76.6502 125.919 76.7227 125.979 76.7854C125.972 76.8216 125.985 76.8579 126.012 76.8975C126.041 76.937 126.041 76.9733 126.012 77.003C126.002 77.0722 126.005 77.125 126.022 77.1645C126.038 77.2041 126.055 77.2404 126.071 77.2799C126.137 77.2898 126.163 77.2997 126.154 77.3063C126.14 77.3129 126.117 77.3228 126.081 77.336C126.045 77.3492 126.015 77.3624 125.989 77.3756C125.962 77.3887 125.972 77.4085 126.015 77.4316C126.015 77.4217 126.015 77.4151 126.018 77.4052C126.101 77.4712 126.18 77.5371 126.262 77.6031C126.282 77.6228 126.355 77.6393 126.477 77.6492C126.602 77.6591 126.711 77.6558 126.804 77.6327C126.942 77.6195 127.044 77.6162 127.114 77.6294C127.157 77.6525 127.213 77.6624 127.282 77.6558C127.351 77.6492 127.398 77.6492 127.421 77.6525C127.533 77.669 127.599 77.6723 127.625 77.6591C127.652 77.6459 127.685 77.6426 127.731 77.6492C127.955 77.6855 128.071 77.6987 128.084 77.6921C128.097 77.6855 128.222 77.6558 128.46 77.6064C128.595 77.6129 128.731 77.6031 128.859 77.58C128.988 77.5569 129.09 77.5338 129.163 77.5107C129.252 77.5272 129.377 77.5371 129.536 77.547C129.694 77.5569 129.859 77.5668 130.031 77.5767C130.202 77.5899 130.361 77.5932 130.513 77.5932C130.661 77.5932 130.773 77.5899 130.842 77.5833C130.889 77.5734 130.945 77.5668 131.001 77.5569C131.06 77.5503 131.1 77.547 131.123 77.5503C131.166 77.5569 131.258 77.5437 131.39 77.5041C131.522 77.4646 131.664 77.4283 131.809 77.392C131.955 77.3558 132.08 77.3294 132.189 77.3129C132.294 77.2964 132.334 77.3129 132.301 77.3591C132.347 77.3492 132.393 77.336 132.43 77.3162C132.469 77.2964 132.499 77.2898 132.522 77.2931C132.265 77.5668 131.961 77.8998 131.615 78.2921C131.268 78.6845 130.978 79.0307 130.74 79.3274C130.509 79.5978 130.278 79.8681 130.047 80.1418C129.843 80.3924 129.612 80.6462 129.351 80.9034C129.09 81.1606 128.859 81.4244 128.655 81.6914C128.43 81.9552 128.216 82.2189 128.015 82.4761C127.813 82.7366 127.602 82.9971 127.378 83.2641C127.15 83.5641 126.939 83.8642 126.744 84.1609C126.55 84.4577 126.352 84.7577 126.147 85.0643C125.84 85.46 125.573 85.8358 125.352 86.1886C125.131 86.5447 124.896 86.9338 124.655 87.3558C124.596 87.4514 124.537 87.5503 124.477 87.6459C124.418 87.7415 124.358 87.8503 124.296 87.9624C123.999 88.5295 123.705 89.0966 123.411 89.6604C123.349 89.7923 123.332 89.9308 123.362 90.0792C123.392 90.2242 123.425 90.3891 123.461 90.5737C123.491 90.6495 123.517 90.7649 123.537 90.9166C123.557 91.0716 123.557 91.1903 123.543 91.276C123.514 91.4672 123.484 91.6815 123.454 91.9255C123.425 92.1695 123.504 92.3245 123.685 92.3871C123.791 92.4036 123.893 92.4201 123.996 92.4366C124.2 92.3607 124.375 92.3376 124.52 92.3607C124.497 92.3739 124.477 92.397 124.461 92.43C124.444 92.4629 124.444 92.5618 124.461 92.7234C124.57 92.7036 124.639 92.6674 124.672 92.6113C124.702 92.5553 124.731 92.5025 124.761 92.453C124.834 92.4102 124.886 92.3937 124.929 92.4003C125.009 92.43 125.055 92.4431 125.068 92.4366C125.081 92.43 125.098 92.4267 125.117 92.43C125.259 92.3475 125.352 92.308 125.395 92.3146C125.49 92.3838 125.48 92.4366 125.368 92.4695C125.398 92.4926 125.424 92.5157 125.454 92.5355C125.533 92.6904 125.619 92.73 125.705 92.6575C125.791 92.5816 125.863 92.5058 125.919 92.4267C125.965 92.4003 126.008 92.3805 126.041 92.3673C126.074 92.3541 126.127 92.3376 126.196 92.3146C126.279 92.2651 126.365 92.2189 126.447 92.1695C126.493 92.1431 126.53 92.12 126.556 92.1068C126.579 92.0937 126.602 92.0805 126.629 92.064C126.678 92.0178 126.728 91.9882 126.774 91.9684C126.82 91.9486 126.794 91.9123 126.695 91.8629C126.777 91.7508 126.87 91.6288 126.969 91.4969C127.068 91.3617 127.077 91.3419 126.995 91.4342C127.077 91.3254 127.157 91.2265 127.226 91.1408C127.295 91.0551 127.381 90.9661 127.483 90.877C127.721 90.6331 127.919 90.3726 128.077 90.0989C128.094 90.066 128.11 90.033 128.127 90C128.315 89.7297 128.506 89.4626 128.698 89.1922C129.226 88.5032 129.76 87.8141 130.295 87.125C130.476 86.9799 130.608 86.8118 130.687 86.6205C130.767 86.4293 130.902 86.2381 131.097 86.0402C131.235 85.8886 131.377 85.7336 131.516 85.582C131.875 85.2193 132.222 84.8302 132.562 84.4115C132.902 83.9928 133.232 83.6004 133.552 83.2344C133.703 83.1553 133.842 83.0465 133.974 82.9014C134.106 82.7564 134.271 82.5783 134.472 82.3673C134.594 82.3212 134.73 82.2222 134.871 82.0706C135.017 81.9189 135.119 81.8068 135.178 81.7277C135.231 81.6848 135.294 81.6288 135.366 81.5628C135.436 81.4969 135.522 81.4474 135.621 81.4112C135.795 81.2232 135.974 81.0353 136.148 80.8474C136.152 80.8309 136.181 80.8012 136.234 80.7583C136.29 80.7155 136.343 80.6825 136.393 80.6561C136.396 80.6397 136.511 80.5177 136.742 80.2968C136.973 80.0759 137.241 79.8121 137.548 79.5088C137.854 79.2054 138.178 78.9054 138.521 78.6087C138.864 78.3119 139.151 78.0646 139.382 77.8635C139.722 77.8108 140.006 77.791 140.24 77.8075C140.471 77.8207 140.702 77.847 140.93 77.8767C141.134 77.9031 141.293 77.9064 141.405 77.8866C141.517 77.8668 141.659 77.8866 141.834 77.9426C141.9 77.9591 141.966 77.9591 142.029 77.9426C142.091 77.9295 142.171 77.913 142.27 77.8899C142.369 77.8668 142.504 77.847 142.672 77.8338C142.84 77.8174 143.065 77.824 143.342 77.8536C143.395 77.8306 143.448 77.8075 143.5 77.7811C143.556 77.847 143.639 77.8932 143.751 77.9196C143.774 77.9262 143.814 77.9262 143.876 77.9196C143.936 77.9163 144.002 77.9196 144.068 77.9361C144.249 77.9229 144.428 77.913 144.609 77.9031C144.725 77.913 144.843 77.9591 144.969 78.0416C145.088 78.035 145.111 78.0185 145.035 77.9888C144.959 77.9624 144.923 77.9295 144.932 77.8965C144.992 77.8932 145.055 77.8899 145.114 77.8866C145.226 77.913 145.335 77.8569 145.441 77.7217C145.378 77.58 145.398 77.4811 145.493 77.4217C145.589 77.3624 145.615 77.2832 145.569 77.181V77.1942Z" fill="#C33130"/>
<path d="M28.1758 106.499C28.4101 108.823 28.5322 110.313 31.8781 109.944C35.7553 109.519 39.0451 107.372 42.6617 106.419C70.858 98.9779 101.391 96.0237 131.217 94.6884C122.433 95.0808 113.24 93.9861 104.374 94.1246C95.5071 94.2631 86.0401 94.7577 76.9427 95.5951C67.8387 96.4326 58.7974 97.6162 49.865 99.146C43.6384 100.214 32.6766 100.907 28.8753 105.239" fill="#C33130"/>
<path d="M18.3301 0.0889893H0V61.9123H18.3301C23.4711 61.9123 29.5063 58.5559 29.5063 54.4939V43.9828C29.5063 36.0336 26.7115 33.297 21.4583 30.999C26.7115 28.7042 29.5063 25.9644 29.5063 18.0151V7.50409C29.5063 3.4454 23.4711 0.0889893 18.3301 0.0889893ZM14.1955 54.4939H11.3874V34.7115H14.0833C14.0833 34.7115 17.9605 37.0062 17.9605 44.6027C17.9605 52.1991 14.1955 54.4939 14.1955 54.4939ZM14.0833 27.2931H11.3874V7.50739H14.1955C14.1955 7.50739 17.9605 9.80215 17.9605 17.3986C17.9605 24.995 14.0833 27.2898 14.0833 27.2898V27.2931Z" fill="#C33130"/>
<path d="M41.7427 0C40.1786 7.77118 37.9414 61.9123 37.9414 61.9123H51.2427L50.7873 34.7115H55.8293L55.374 61.9123H68.6753C68.6753 61.9123 66.4446 7.77118 64.7684 0H41.7427ZM50.7906 27.2898C50.9028 19.4296 51.6915 12.9838 52.2491 7.4184H54.3741C54.8196 12.9838 55.7237 19.4296 55.7237 27.2898H50.7906Z" fill="#C33130"/>
<path d="M95.0004 30.91C95.0004 40.5374 92.9974 48.0448 92.4398 54.4906H92.2616C91.7039 48.0448 89.701 40.5374 89.701 30.91L88.1699 0.0889893H75.0039L82.4481 61.9123H102.144L109.701 0.0889893H96.5348L95.0004 30.9133V30.91Z" fill="#C33130"/>
<path d="M118.643 61.9123H138.312V54.4906H131.941V34.7675H136.22V27.3491H131.941V7.50739H138.312V0.0889893H118.643V61.9123Z" fill="#C33130"/>
<path d="M145.818 7.50739H151.741V61.9123H165.043V7.50739H171.078V0.0889893H145.818V7.50739Z" fill="#C33130"/>
<path d="M181.629 0C178.504 0 176.24 2.32113 176.24 5.2819C176.24 8.24266 178.504 10.5374 181.629 10.5374C184.754 10.5374 187.004 8.24596 187.004 5.2819C187.004 2.31784 184.77 0 181.629 0ZM181.629 9.44939C179.091 9.44939 177.488 7.51731 177.488 5.2819C177.488 3.04649 179.091 1.08803 181.629 1.08803C184.166 1.08803 185.74 3.04979 185.74 5.2819C185.74 7.51401 184.163 9.44939 181.629 9.44939Z" fill="#C33130"/>
<path d="M183.794 4.22685C183.794 3.27399 183.111 2.73328 181.781 2.73328H179.805V7.44808H181.039V5.73031H181.557L182.497 7.44808H183.969L182.804 5.53249C183.368 5.34455 183.794 4.89615 183.794 4.22685ZM181.781 4.81372H181.039V3.70921H181.814C182.227 3.70921 182.497 3.91033 182.497 4.24993C182.497 4.64887 182.204 4.81372 181.778 4.81372H181.781Z" fill="#C33130"/>
</svg>
