<?xml version="1.0" encoding="UTF-8"?> <svg xmlns="http://www.w3.org/2000/svg" width="1000" height="1000" viewBox="0 0 1000 1000" fill="none"><g clip-path="url(#clip0_2869_90812)"><path d="M418.695 9.36792C424.7 8.34791 430.503 12.4669 431.522 18.4732L443.354 88.1976C444.373 94.2038 440.254 100.008 434.249 101.028L421.324 103.223C415.319 104.243 409.516 100.124 408.497 94.118L396.665 24.3937C395.646 18.3874 399.765 12.5832 405.77 11.5632L418.695 9.36792ZM427.166 90.9471C426.07 81.3268 424.709 70.1397 422.294 55.9076C419.879 41.6754 417.474 30.6657 415.334 21.2228L412.853 21.6441C413.818 31.2865 415.179 42.4737 417.594 56.7058C420.01 70.938 422.415 81.9477 424.685 91.3685L427.166 90.9471Z" fill="white"></path><path d="M489.226 29.6307C489.845 41.5341 486.753 45.8065 480.716 49.5692C489.018 51.1257 491.07 65.0764 492.645 95.3639L477.834 96.1359C476.101 62.8064 472.278 55.579 472.278 55.579L470.162 55.6893C471.875 65.679 472.095 69.9113 473.47 96.3633L457.734 97.1836L452.919 4.60156L474.606 3.47116C480.689 3.1541 488.091 7.80777 488.408 13.8917L489.226 29.6307ZM471.7 44.4692C471.7 44.4692 474.298 40.8857 473.706 29.5113C473.115 18.1369 470.291 14.836 470.291 14.836L468.043 14.9532C468.043 14.9532 468.751 18.3644 469.343 29.7388C469.934 41.1131 469.584 44.5795 469.584 44.5795L471.7 44.4692Z" fill="white"></path><path d="M533.668 4.00267C539.746 4.40223 544.436 9.75417 544.036 15.8333L539.277 86.1307C538.876 92.2098 533.525 96.9016 527.447 96.502L505.91 95.0861L511.999 2.57812L533.668 4.00267ZM522.76 85.0449C522.76 85.0449 526.901 64.4791 527.849 50.0743C528.797 35.6694 527.52 14.7475 527.52 14.7475L525.274 14.5998C525.274 14.5998 524.437 35.3828 523.488 49.7876C522.54 64.1924 520.646 84.9059 520.646 84.9059L522.76 85.0449Z" fill="white"></path><path d="M550.322 98.4875L565.237 6.98633L588.238 10.7345L586.448 21.7146L578.999 20.5007L574.227 49.7811L580.369 50.782L578.579 61.7622L572.437 60.7613L567.664 90.0416L575.114 91.2555L573.324 102.236L550.322 98.4875Z" fill="white"></path><path d="M636.552 49.8782C633.423 61.3797 629.151 64.4723 622.241 66.161C629.642 70.2333 627.233 84.1273 619.271 113.392L604.961 109.499C613.723 77.2943 612.348 69.2339 612.348 69.2339L610.304 68.6777C608.811 78.703 607.698 82.7924 600.744 108.351L585.54 104.214L609.88 14.7578L630.834 20.4593C636.711 22.0584 642.29 28.792 640.69 34.6705L636.552 49.8782ZM615.269 58.4991C615.269 58.4991 618.856 55.9065 621.847 44.9161C624.837 33.9257 623.186 29.9077 623.186 29.9077L621.014 29.3167C621.014 29.3167 620.621 32.7785 617.63 43.7689C614.64 54.7593 613.225 57.9429 613.225 57.9429L615.269 58.4991Z" fill="white"></path><path d="M732.091 60.1505C737.491 62.9679 739.625 69.7575 736.807 75.1591L704.101 137.865C701.284 143.267 694.495 145.402 689.095 142.584L677.472 136.521C672.072 133.703 669.938 126.914 672.755 121.512L705.462 58.8062C708.279 53.4046 715.068 51.2698 720.468 54.0871L732.091 60.1505ZM689.543 130.27C694.484 121.943 700.16 112.207 706.836 99.4075C713.512 86.6079 718.248 76.3817 722.25 67.5645L720.019 66.4008C714.961 74.6668 709.285 84.4031 702.609 97.2026C695.933 110.002 691.197 120.228 687.313 129.107L689.543 130.27Z" fill="white"></path><path d="M775.93 118.844C769.218 128.694 764.171 130.222 757.089 129.562C762.754 135.828 755.943 148.175 738.865 173.237L726.61 164.884C745.404 137.305 746.735 129.237 746.735 129.237L744.985 128.043C740.302 137.032 737.915 140.534 722.999 162.423L709.979 153.548L762.184 76.9375L780.128 89.1687C785.161 92.5995 788.236 100.786 784.805 105.82L775.93 118.844ZM753 120.043C753 120.043 757.237 118.764 763.651 109.352C770.064 99.9397 769.815 95.6025 769.815 95.6025L767.955 94.3347C767.955 94.3347 766.454 97.4785 760.04 106.891C753.626 116.303 751.249 118.85 751.249 118.85L753 120.043Z" fill="white"></path><path d="M858.404 171.373L853.456 166.211L794.576 222.676L783.671 211.301L842.551 154.836L837.694 149.769L845.723 142.069L866.433 163.673L858.404 171.373Z" fill="white"></path><path d="M805.89 234.189C805.89 234.189 871.726 186.62 882.078 180.958L898.763 202.54C890.759 211.241 828.163 263 828.163 263L818.524 250.533L850.79 225.579L847.793 221.703L815.528 246.657L805.89 234.189ZM859.508 218.669C868.832 211.459 876.155 205.125 882.431 199.602L880.892 197.611C873.887 202.192 865.997 207.792 856.593 214.898L859.508 218.669Z" fill="white"></path><path d="M889.04 271.885C891.541 279.954 880.642 289.083 854.604 304.628L846.528 291.096C869.269 277.519 873.135 275.211 879.785 267.231L878.699 265.411C870.669 271.594 867.03 273.766 844.289 287.343L836.213 273.811L915.807 226.291L923.882 239.823C901.141 253.401 897.503 255.573 888.251 259.709L889.336 261.528C899.742 259.326 903.381 257.153 926.122 243.576L934.197 257.109C909.296 271.976 894.953 277.917 889.04 271.885Z" fill="white"></path><path d="M860.971 316.511L944.979 277.325L954.827 298.45L944.746 303.152L941.557 296.311L914.674 308.85L917.304 314.491L907.223 319.194L904.593 313.553L877.711 326.092L880.9 332.934L870.819 337.636L860.971 316.511Z" fill="white"></path><path d="M984.124 384.455C985.563 390.374 981.863 396.454 975.945 397.894L907.237 414.613C901.318 416.053 895.24 412.353 893.8 406.433L890.703 393.693C889.264 387.774 892.964 381.694 898.882 380.254L967.59 363.535C973.509 362.095 979.587 365.795 981.027 371.715L984.124 384.455ZM903.357 398.656C912.875 396.885 923.936 394.739 937.961 391.326C951.986 387.913 962.797 384.737 972.065 381.937L971.47 379.492C961.921 381.134 950.859 383.281 936.835 386.693C922.81 390.106 911.999 393.282 902.762 396.211L903.357 398.656Z" fill="white"></path><path d="M914.808 465.64C908.758 466.345 903.178 461.928 902.474 455.877L900.959 442.853C900.255 436.802 904.671 431.221 910.721 430.516L991.874 421.062L993.635 436.19L947.6 441.553C933.263 443.223 922.144 445.052 912.619 446.828L912.91 449.328C922.573 448.735 933.814 447.959 948.151 446.289L994.186 440.926L995.961 456.185L914.808 465.64Z" fill="white"></path><path d="M986.73 505.185L986.656 498.034L905.092 498.888L904.929 483.128L986.493 482.274L986.42 475.255L997.542 475.139L997.853 505.068L986.73 505.185Z" fill="white"></path><path d="M898.063 575.579C924.038 580.741 928.194 581.567 937.651 585.608L939.201 577.814C928.917 577.93 924.761 577.104 898.786 571.941L901.859 556.483L992.771 574.553L989.698 590.011C963.723 584.848 959.567 584.022 950.11 579.982L948.561 587.776C958.844 587.659 963 588.485 988.975 593.648L985.902 609.106L894.99 591.037L898.063 575.579Z" fill="white"></path><path d="M891.372 606.082L979.911 633.509L973.014 655.775L962.389 652.483L964.623 645.272L936.291 636.496L934.449 642.442L923.824 639.15L925.666 633.204L897.333 624.428L895.1 631.639L884.475 628.347L891.372 606.082Z" fill="white"></path><path d="M928.431 696.589C917.456 691.943 914.967 687.293 914.223 680.219C909.193 687.006 895.752 682.753 867.828 670.931L873.611 657.271C904.339 670.281 912.51 670.001 912.51 670.001L913.336 668.05C903.604 665.224 899.702 663.572 875.315 653.246L881.459 638.733L966.814 674.871L958.347 694.873C955.972 700.483 948.55 705.107 942.941 702.733L928.431 696.589ZM922.752 674.338C922.752 674.338 924.838 678.241 935.325 682.681C945.811 687.121 950.014 686.024 950.014 686.024L950.892 683.95C950.892 683.95 947.515 683.096 937.029 678.656C926.542 674.216 923.578 672.386 923.578 672.386L922.752 674.338Z" fill="white"></path><path d="M862.869 681.554L944.218 725.983L933.047 746.442L923.285 741.11L926.903 734.484L900.871 720.267L897.888 725.73L888.126 720.398L891.11 714.935L865.078 700.718L861.46 707.343L851.698 702.012L862.869 681.554Z" fill="white"></path><path d="M817.001 885.89C797.984 863.997 787.495 843.642 785.35 834.105L763.814 809.313L775.713 798.978L797.248 823.769C806.392 827.227 825.18 840.373 844.197 862.266L832.499 872.427C815.132 852.434 806.816 843.872 799.543 836.509L797.743 838.072C804.017 846.304 811.332 855.735 828.699 875.728L817.001 885.89Z" fill="white"></path><path d="M745.743 824.148L799.214 899.86L780.174 913.308L773.758 904.222L779.924 899.867L762.813 875.639L757.729 879.23L751.312 870.145L756.397 866.554L739.286 842.326L733.12 846.681L726.704 837.595L745.743 824.148Z" fill="white"></path><path d="M719.088 843.181C719.088 843.181 756.76 915.129 760.885 926.184L737.142 939.622C729.674 930.46 687.391 861.121 687.391 861.121L701.107 853.358L721.194 888.853L725.458 886.439L705.372 850.945L719.088 843.181ZM726.787 898.468C732.591 908.724 737.813 916.876 742.383 923.875L744.573 922.636C741.04 915.049 736.625 906.441 730.936 896.119L726.787 898.468Z" fill="white"></path><path d="M657.915 874.684C668.06 899.147 669.683 903.061 671.581 913.169L678.921 910.124C673.109 901.64 671.485 897.726 661.34 873.263L675.897 867.224L711.406 952.844L696.849 958.883C686.704 934.42 685.08 930.506 683.182 920.398L675.843 923.443C681.655 931.927 683.278 935.841 693.424 960.304L678.867 966.343L643.357 880.723L657.915 874.684Z" fill="white"></path><path d="M569.633 967.316C567.541 955.583 570.08 950.96 575.603 946.477C568.871 944.181 564.891 940.722 562.798 928.989L560.032 913.476C558.962 907.479 565.119 901.268 571.116 900.198L592.498 896.381L608.771 987.636L587.39 991.453C581.393 992.523 573.469 988.826 572.4 982.829L569.633 967.316ZM585.184 950.416C585.184 950.416 583.051 954.294 585.05 965.506C587.049 976.717 590.261 979.641 590.261 979.641L592.478 979.245C592.478 979.245 591.352 975.949 589.352 964.738C587.353 953.526 587.27 950.044 587.27 950.044L585.184 950.416ZM577.889 925.353C579.889 936.565 583.231 939.466 583.231 939.466L585.317 939.093C585.317 939.093 584.191 935.797 582.192 924.585C580.192 913.374 580.109 909.892 580.109 909.892L577.893 910.287C577.893 910.287 575.89 914.142 577.889 925.353Z" fill="white"></path><path d="M546.461 904.388C546.461 904.388 548.309 985.587 547.102 997.325L519.863 998.84C517.235 987.315 510.099 906.411 510.099 906.411L525.834 905.536L528.091 946.26L532.983 945.988L530.726 905.264L546.461 904.388ZM528.838 957.359C529.491 969.126 530.554 978.749 531.545 987.05L534.057 986.91C534.257 978.543 534.119 968.869 533.599 957.094L528.838 957.359Z" fill="white"></path><path d="M458.273 970.375C459.002 958.479 462.558 954.583 468.981 951.526C462.979 947.71 459.925 943.411 460.654 931.514L461.617 915.785C461.99 909.705 469.435 905.118 475.516 905.489L497.194 906.813L491.526 999.338L469.848 998.014C463.768 997.643 456.937 992.185 457.31 986.104L458.273 970.375ZM477.365 957.61C477.365 957.61 474.378 960.877 473.682 972.245C472.986 983.612 475.419 987.21 475.419 987.21L477.666 987.347C477.666 987.347 477.348 983.878 478.044 972.511C478.74 961.143 479.48 957.739 479.48 957.739L477.365 957.61ZM476.176 931.533C475.479 942.901 478.045 946.507 478.045 946.507L480.16 946.636C480.16 946.636 479.841 943.167 480.538 931.8C481.234 920.432 481.973 917.028 481.973 917.028L479.726 916.891C479.726 916.891 476.872 920.166 476.176 931.533Z" fill="white"></path><path d="M400.125 988.932C405.141 960.367 414.337 939.392 420.391 931.715L426.072 899.367L441.593 902.09L435.913 934.438C438.989 943.717 440.619 966.59 435.603 995.155L420.342 992.478C424.923 966.392 426.332 954.538 427.467 944.25L425.119 943.838C422.68 953.898 419.967 965.522 415.385 991.609L400.125 988.932Z" fill="white"></path><path d="M385.277 905.813L389.369 890.732L404.451 894.821L400.358 909.902L385.277 905.813Z" fill="white"></path><path d="M904.672 794.274L851.008 751.498L858.812 740.88L915.661 779.322L904.672 794.274ZM842.411 746.848L829.626 737.452L839.022 724.667L851.807 734.063L842.411 746.848Z" fill="white"></path></g><defs><clipPath id="clip0_2869_90812"><rect width="1000" height="1000" fill="white"></rect></clipPath></defs></svg> 